<?xml version="1.0" encoding="utf-8"?>
<!-- Generator: Adobe Illustrator 19.2.0, SVG Export Plug-In . SVG Version: 6.00 Build 0)  -->
<svg version="1.1" id="Layer_1" xmlns="http://www.w3.org/2000/svg" xmlns:xlink="http://www.w3.org/1999/xlink" x="0px" y="0px"
	 viewBox="0 0 704.6 373.7" style="enable-background:new 0 0 704.6 373.7;" xml:space="preserve">
<style type="text/css">
	.st0{fill:#DF4C36;}
	.st1{fill:#FAFAFA;}
	.st2{fill:#F0F0F0;}
	.st3{fill:none;stroke:#DADADA;stroke-width:1.5;stroke-miterlimit:10;}
	.st4{fill:#FADBD7;}
	.st5{fill:#E5EBF5;}
	.st6{fill:#E6F2EC;}
	.st7{fill:#EEEDED;}
	.st8{fill:#FFFFFF;stroke:#DADADA;stroke-width:1.5;stroke-linecap:round;stroke-linejoin:round;}
	.st9{fill:#547DBE;}
	.st10{fill:#DC3336;}
	.st11{fill:#F4C30F;}
	.st12{fill:#4EB056;}
	.st13{fill:none;stroke:#FFFFFF;stroke-width:1.5;stroke-linecap:round;stroke-linejoin:round;}
	.st14{fill:#F5FAFE;}
	.st15{fill:#A9D7F1;}
	.st16{fill:#347CC0;}
	.st17{fill:#527BBD;}
	.st18{fill:#E84436;}
	.st19{fill:#FBBC0C;}
	.st20{fill:#34A953;}
	.st21{fill:#FFFFFF;}
	.st22{enable-background:new    ;}
	.st23{fill:#255FAA;}
	.st24{fill:#F1F1EF;}
	.st25{fill:#475764;}
	.st26{fill:#154176;}
	.st27{fill:#B4BBAE;}
	.st28{fill:#8EBF2E;}
	.st29{fill:#BFB799;}
	.st30{fill:#E4DDD3;}
</style>
<title>browser-premium</title>
<g id="Layer_2">
	<rect x="96.8" y="160.4" class="st0" width="26.6" height="2.5"/>
	<path class="st1" d="M699.5,42.7H5c-2.4,0-4.3,1.9-4.3,4.3c0,0,0,0,0,0v24.9h703.1V47C703.9,44.6,702,42.7,699.5,42.7
		C699.6,42.7,699.6,42.7,699.5,42.7z"/>
	<rect x="0.8" y="71.9" class="st2" width="703.1" height="52.5"/>
	<path class="st3" d="M0.8,373.7V47c0-2.4,1.9-4.3,4.2-4.3c0,0,0,0,0.1,0h694.5c2.4,0,4.3,1.9,4.3,4.2c0,0,0,0,0,0.1v326.7"/>
	<line class="st3" x1="0.8" y1="71.9" x2="703.8" y2="71.9"/>
	<line class="st3" x1="0.8" y1="124.4" x2="703.8" y2="124.4"/>
	<line class="st3" x1="0.8" y1="162.9" x2="703.8" y2="162.9"/>
	<rect x="100.8" y="140.1" class="st4" width="17.8" height="6.2"/>
	<rect x="143.2" y="140.1" class="st2" width="27.4" height="6.2"/>
	<rect x="193.9" y="140.1" class="st2" width="26.5" height="6.2"/>
	<rect x="94.2" y="257.7" class="st5" width="245" height="11"/>
	<rect x="94.2" y="276.7" class="st6" width="122.5" height="7.3"/>
	<rect x="94.2" y="347.3" class="st5" width="245" height="11"/>
	<rect x="94.2" y="366.3" class="st6" width="122.5" height="7.3"/>
	<rect x="94.2" y="292.1" class="st7" width="352.3" height="7.3"/>
	<rect x="94.2" y="307.4" class="st7" width="362.8" height="7.3"/>
	<rect x="94.2" y="322.7" class="st7" width="176.2" height="7.3"/>
	<rect x="514.5" y="172.4" class="st6" width="88.7" height="8"/>
	<rect x="514.5" y="186.7" class="st7" width="114.1" height="8"/>
	<rect x="514.5" y="201.1" class="st7" width="88.7" height="8"/>
	<rect x="514.5" y="258.4" class="st6" width="88.7" height="8"/>
	<rect x="514.5" y="272.7" class="st7" width="114.1" height="8"/>
	<rect x="514.5" y="287.1" class="st7" width="88.7" height="8"/>
	<rect x="514.5" y="241.1" class="st5" width="107.3" height="10.3"/>
</g>
<g id="Layer_3">
	<rect x="93.8" y="87.4" class="st8" width="411.3" height="21.3"/>
	<path id="path2998" class="st9" d="M31.4,96H23v2.5h5.9c-0.3,3.4-3.2,4.9-5.9,4.9c-3.5,0-6.5-2.8-6.5-6.3c0-0.1,0-0.1,0-0.2
		c0-3.6,2.8-6.5,6.4-6.6c0,0,0.1,0,0.1,0c1.6,0,3.2,0.6,4.4,1.8l1.7-1.8c-1.6-1.6-3.9-2.5-6.2-2.5c-5,0-9,4.1-9,9.1s4.1,9,9.1,9
		c4.8,0,8.4-3.3,8.4-8.2C31.4,97.1,31.4,96.6,31.4,96L31.4,96L31.4,96z"/>
	<path id="path3000" class="st10" d="M38.2,94.2c-3.2,0-5.8,2.5-5.8,5.7c0,0,0,0.1,0,0.1c0,3.2,2.6,5.9,5.8,5.9c0,0,0.1,0,0.1,0
		c3.1,0.1,5.7-2.4,5.8-5.6c0-0.1,0-0.2,0-0.2c0-3.2-2.5-5.9-5.8-5.9C38.2,94.2,38.2,94.2,38.2,94.2L38.2,94.2z M38.2,96.5
		c1.9,0.1,3.4,1.8,3.2,3.8c-0.1,1.7-1.5,3.1-3.2,3.2c-1.9-0.1-3.4-1.8-3.2-3.8C35,98,36.4,96.6,38.2,96.5L38.2,96.5z"/>
	<path id="path3005" class="st11" d="M50.8,94.2c-3.2-0.1-5.8,2.5-5.8,5.6c0,0.1,0,0.1,0,0.2c0,3.2,2.6,5.9,5.8,5.9c0,0,0.1,0,0.1,0
		c3.1,0.1,5.7-2.4,5.8-5.6c0-0.1,0-0.2,0-0.2C56.7,96.9,54.2,94.2,50.8,94.2C50.9,94.2,50.8,94.2,50.8,94.2L50.8,94.2L50.8,94.2z
		 M50.8,96.5c1.9,0.1,3.4,1.8,3.2,3.8c-0.1,1.7-1.5,3.1-3.2,3.2c-1.9-0.1-3.4-1.8-3.2-3.8C47.7,98,49.1,96.6,50.8,96.5L50.8,96.5z"
		/>
	<path id="path3007" class="st9" d="M63.2,94.2c-3.1,0.1-5.6,2.7-5.6,5.8c-0.1,3.1,2.4,5.7,5.5,5.8c1.2,0,2.4-0.5,3.2-1.4v1.1
		c0.2,1.6-1,3-2.6,3.2c-0.2,0-0.3,0-0.5,0c-1.3,0-2.5-0.8-3-2.1l-2.2,0.9c0.9,2.1,2.9,3.4,5.2,3.4c3.1,0,5.5-2,5.5-6.1V94.4h-2.4v1
		C65.5,94.6,64.4,94.2,63.2,94.2C63.2,94.2,63.2,94.2,63.2,94.2z M63.5,96.5c1.8,0.1,3.2,1.6,3.1,3.4c0,0,0,0,0,0.1
		c0.2,1.8-1.2,3.3-2.9,3.5c-0.1,0-0.1,0-0.2,0c-1.8-0.1-3.3-1.6-3.2-3.4c0,0,0-0.1,0-0.1c-0.2-1.8,1.1-3.3,2.9-3.5
		C63.3,96.5,63.4,96.5,63.5,96.5C63.6,96.5,63.6,96.5,63.5,96.5z"/>
	<path id="path3011" class="st10" d="M79.7,94.2c-3,0-5.4,2.5-5.4,5.6c0,0.1,0,0.2,0,0.2c-0.1,3.1,2.3,5.7,5.4,5.8
		c0.1,0,0.2,0,0.3,0c1.9,0,3.8-0.9,4.9-2.5l-2-1.3c-0.6,1-1.6,1.6-2.8,1.6c-1.2,0.1-2.3-0.7-2.8-1.8l7.8-3.2l-0.4-0.9
		C83.8,95.6,81.8,94.3,79.7,94.2L79.7,94.2L79.7,94.2z M79.8,96.4c0.9,0,1.7,0.4,2.1,1.2l-5.2,2.2C76.7,98,78,96.6,79.8,96.4
		C79.8,96.4,79.8,96.4,79.8,96.4z"/>
	<path id="path3015" class="st12" d="M70.6,105.5h2.6V88.4h-2.6V105.5z"/>
	<path class="st9" d="M565.5,108.7h-48.1c-1,0-1.8-0.8-1.8-1.8c0,0,0,0,0,0V89.1c0-1,0.8-1.8,1.8-1.8c0,0,0,0,0,0h48.1
		c1,0,1.8,0.8,1.8,1.8c0,0,0,0,0,0v17.8C567.2,107.9,566.4,108.6,565.5,108.7z"/>
	<circle class="st8" cx="13.1" cy="58.1" r="4.1"/>
	<circle class="st8" cx="27.4" cy="58.1" r="4.1"/>
	<circle class="st8" cx="42.2" cy="58.1" r="4.1"/>
</g>
<g id="Layer_4">
	<circle class="st13" cx="540.7" cy="97.2" r="3.2"/>
	<line class="st13" x1="544.8" y1="101.9" x2="542.7" y2="99.7"/>
	<path class="st14" d="M288.5,143.3c-5,0-9-4-9-9V9.5c0-5,4-9,9-9h124.7c5,0,9,4,9,9v124.7c0,5-4,9-9,9H288.5V143.3z"/>
	<path class="st15" d="M413.2,1c4.7,0,8.5,3.8,8.5,8.5c0,0,0,0,0,0v124.7c0,4.7-3.8,8.5-8.5,8.5c0,0,0,0,0,0H288.5
		c-4.7,0-8.5-3.8-8.5-8.5c0,0,0,0,0,0V9.5c0-4.7,3.8-8.5,8.5-8.5c0,0,0,0,0,0H413.2 M413.2,0H288.5c-5.2,0-9.5,4.3-9.5,9.5v124.7
		c0,5.2,4.3,9.5,9.5,9.5h124.7c5.2,0,9.5-4.3,9.5-9.5V9.5C422.7,4.3,418.5,0,413.2,0L413.2,0z"/>
	<rect x="280" y="42.6" class="st16" width="141.7" height="28.3"/>
	<path class="st17" d="M326.6,14c-0.7,0.7-1.3,1.4-2,2.1c-0.2-0.2-0.4-0.3-0.6-0.5c-1.1-0.9-2.5-1.4-3.9-1.6c-4-0.5-7.7,2.1-8.5,6.1
		c-0.6,2.3,0,4.7,1.4,6.6c1.2,1.6,3,2.6,5,2.9c2,0.3,4-0.1,5.7-1.3c1.3-0.9,2.2-2.4,2.4-4c0-0.2,0-0.3,0.1-0.5c0-0.1,0-0.2-0.1-0.2
		h-6.6c-0.3,0-0.3,0-0.3-0.3V21c0-0.1,0.1-0.3,0.2-0.3c0,0,0,0,0.1,0h9.3c0.1,0,0.3,0.1,0.3,0.2c0,0,0,0,0,0.1c0.3,2.2,0,4.4-1,6.3
		c-0.9,1.8-2.4,3.3-4.2,4.1c-3.8,1.8-8.2,1.3-11.5-1.2c-2.1-1.6-3.5-3.8-4-6.4c-0.6-2.5-0.2-5.2,1.2-7.4c1.3-2.4,3.6-4.2,6.2-5
		c1.1-0.4,2.2-0.5,3.3-0.5c2.4,0,4.8,0.7,6.7,2.2c0.2,0.2,0.4,0.4,0.7,0.6C326.6,13.8,326.7,13.9,326.6,14z"/>
	<path class="st17" d="M361.5,34.8c0.9-0.4,1.8-0.7,2.6-1.1c0.3,0.5,0.6,1,1,1.5c0.8,0.8,2,1.1,3.1,1c0.7-0.1,1.5-0.4,2-0.9
		c0.6-0.6,0.9-1.3,1-2.1c0.1-0.7,0.1-1.4,0.1-2.1h-0.1l-0.1,0.1c-0.8,0.9-1.9,1.4-3.1,1.5c-3.1,0.2-6-1.9-6.8-4.9
		c-0.2-0.7-0.3-1.5-0.3-2.2c0-3.1,2.1-5.9,5.2-6.6c1.6-0.5,3.2-0.1,4.5,0.9c0.2,0.2,0.4,0.4,0.7,0.6v-0.8c0-0.5-0.1-0.4,0.4-0.4h2.2
		c0.2,0,0.3,0,0.3,0.2V32c0.1,1.5-0.4,3-1.2,4.2c-0.9,1.4-2.4,2.3-4,2.5c-1.3,0.3-2.7,0.1-3.9-0.3c-1.3-0.5-2.3-1.4-3.1-2.5
		C361.8,35.5,361.7,35.1,361.5,34.8z M367.8,29.9c1.1,0,2.2-0.5,2.9-1.4c0.6-0.7,0.9-1.6,0.9-2.5c0.1-0.9-0.1-1.9-0.6-2.7
		c-0.6-1.2-1.9-1.9-3.2-1.9c-1.3-0.1-2.6,0.6-3.2,1.8c-0.6,1.1-0.9,2.4-0.6,3.6C364.3,28.6,365.9,29.9,367.8,29.9z"/>
	<path class="st18" d="M337.4,18.7c3.7-0.1,6.8,2.7,7,6.4c0.1,1.4-0.2,2.9-0.9,4.1c-1,1.8-2.8,3-4.8,3.3c-1.8,0.3-3.6,0-5.1-1
		c-1.6-1-2.7-2.7-3-4.6c-0.5-2.4,0.4-4.8,2.2-6.4c0.9-0.9,2.1-1.4,3.4-1.6C336.5,18.8,337,18.8,337.4,18.7z M341.4,25.6
		c0-0.2-0.1-0.5-0.1-0.9c-0.3-1.7-1.7-3.1-3.4-3.3c-1.3-0.2-2.6,0.3-3.4,1.3c-1,1.2-1.4,2.8-0.9,4.3c0.7,2.1,2.9,3.2,5,2.6
		C340.3,29,341.4,27.4,341.4,25.6z"/>
	<path class="st19" d="M352.5,18.7c3.7-0.1,6.8,2.7,7,6.4c0.1,1.4-0.2,2.9-0.9,4.1c-1,1.8-2.8,3-4.8,3.3c-1.8,0.3-3.6,0-5.1-1
		c-1.6-1-2.7-2.7-3-4.6c-0.5-2.4,0.4-4.8,2.2-6.4c0.9-0.9,2.1-1.4,3.4-1.6C351.6,18.8,352,18.8,352.5,18.7z M356.5,25.6
		c0-0.2-0.1-0.5-0.1-0.9c-0.3-1.7-1.7-3.1-3.4-3.3c-1.3-0.2-2.6,0.3-3.4,1.3c-1,1.2-1.4,2.8-0.9,4.3c0.5,2.1,2.6,3.3,4.7,2.8
		c0.3-0.1,0.6-0.2,0.9-0.4C355.6,28.7,356.5,27.2,356.5,25.6z"/>
	<path class="st18" d="M393.5,23.9l-9.3,3.9c1.1,2.8,5.3,2.9,6.9,0.3c0.8,0.5,1.5,1,2.3,1.5c0,0.1,0,0.1-0.1,0.1l0,0
		c-1.1,1.5-2.7,2.5-4.5,2.8c-3.6,0.7-7.1-1.6-7.8-5.2c0,0,0,0,0-0.1c-0.4-1.9-0.1-3.8,0.9-5.5c0.9-1.7,2.6-2.8,4.5-2.9
		c2.5-0.4,5,0.9,6.2,3.1C392.9,22.5,393,23.2,393.5,23.9z M383.7,25.5c2.1-0.9,4.2-1.7,6.3-2.6c-0.1-0.1-0.1-0.2-0.2-0.3
		c-0.6-0.9-1.8-1.4-2.9-1.2c-1.6,0.3-2.8,1.5-3.2,3C383.5,24.8,383.5,25.1,383.7,25.5L383.7,25.5z"/>
	<path class="st20" d="M376.2,21.9V12c0-0.3,0-0.3,0.3-0.3h2.4c0.3,0,0.3,0,0.3,0.3v19.8c0,0.3,0,0.3-0.3,0.3h-2.4
		c-0.1,0-0.3-0.1-0.3-0.2c0,0,0,0,0-0.1V21.9z"/>
	<path class="st21" d="M339,59.3h-4.5l-1,2.8H332l4.1-10.7h1.2l4.1,10.7h-1.4L339,59.3z M335,58.2h3.6l-1.8-5L335,58.2z"/>
	<path class="st21" d="M343.6,62.1V51.4h3c0.9,0,1.7,0.2,2.5,0.6c0.8,0.4,1.4,1,1.7,1.8c0.4,0.8,0.6,1.7,0.6,2.6v0.7
		c0,0.9-0.2,1.8-0.6,2.6c-0.4,0.7-1,1.3-1.7,1.7c-0.8,0.4-1.6,0.6-2.5,0.6h-3C343.6,62,343.6,62.1,343.6,62.1z M345,52.6V61h1.5
		c0.9,0.1,1.9-0.3,2.5-1c0.7-0.8,1-1.9,0.9-2.9v-0.7c0.1-1-0.2-2-0.9-2.8c-0.6-0.7-1.5-1-2.4-1C346.6,52.6,345,52.6,345,52.6z"/>
	<path class="st21" d="M356.5,58.7l0.2,1.4l0.3-1.3l2.1-7.4h1.2l2.1,7.4l0.3,1.3l0.2-1.4l1.7-7.3h1.4l-2.6,10.7h-1.3l-2.2-7.8
		l-0.2-0.8l-0.2,0.8l-2.3,7.8H356l-2.6-10.7h1.4L356.5,58.7z"/>
	<path class="st21" d="M376.5,57.1c0,0.9-0.2,1.8-0.5,2.7c-0.3,0.7-0.8,1.4-1.5,1.8c-0.7,0.4-1.5,0.6-2.3,0.6
		c-0.8,0-1.5-0.2-2.2-0.6c-0.7-0.4-1.2-1.1-1.5-1.8c-0.4-0.9-0.6-1.8-0.6-2.7v-0.7c0-0.9,0.2-1.8,0.5-2.7c0.3-0.7,0.8-1.4,1.5-1.8
		c0.7-0.4,1.4-0.6,2.2-0.6c0.8,0,1.6,0.2,2.3,0.6c0.7,0.4,1.2,1,1.5,1.8c0.3,0.9,0.5,1.8,0.5,2.7v0.7
		C376.4,57.1,376.5,57.1,376.5,57.1z M375.1,56.4c0.1-1-0.2-2-0.8-2.9c-0.9-1.2-2.7-1.3-3.8-0.4c-0.1,0.1-0.3,0.2-0.4,0.4
		c-0.6,0.8-0.8,1.8-0.8,2.8v0.8c0,1,0.2,2,0.8,2.9c0.5,0.7,1.3,1.1,2.1,1.1c0.8,0.1,1.6-0.3,2.1-1c0.6-0.8,0.8-1.8,0.8-2.8
		C375.1,57.3,375.1,56.4,375.1,56.4z"/>
	<path class="st21" d="M383.4,57.8h-2.5v4.3h-1.4V51.4h3.5c1,0,2,0.2,2.8,0.8c0.7,0.6,1,1.5,1,2.4c0,0.6-0.2,1.2-0.5,1.7
		c-0.4,0.5-0.9,0.9-1.5,1.1l2.5,4.5V62h-1.5L383.4,57.8z M380.9,56.6h2.2c0.6,0,1.2-0.2,1.7-0.5c0.4-0.4,0.6-0.9,0.6-1.5
		c0.1-0.6-0.2-1.1-0.6-1.5c-0.5-0.3-1.1-0.5-1.7-0.5h-2.2V56.6z"/>
	<path class="st21" d="M389.4,62.1V51.4h3c0.9,0,1.7,0.2,2.5,0.6c0.8,0.4,1.4,1,1.7,1.8c0.4,0.8,0.6,1.7,0.6,2.6v0.7
		c0,0.9-0.2,1.8-0.6,2.6c-0.3,0.7-1,1.4-1.7,1.7c-0.8,0.4-1.6,0.6-2.5,0.6h-3C389.4,62,389.4,62.1,389.4,62.1z M390.8,52.6V61h1.5
		c0.9,0.1,1.9-0.3,2.5-1c0.7-0.8,1-1.9,0.9-2.9v-0.7c0.1-1-0.2-2-0.9-2.8c-0.6-0.7-1.5-1-2.4-1C392.4,52.6,390.8,52.6,390.8,52.6z"
		/>
	<path class="st21" d="M403.1,57.4c-1-0.2-1.9-0.6-2.6-1.3c-0.5-0.5-0.8-1.2-0.8-1.9c0-0.8,0.4-1.6,1-2.1c0.7-0.6,1.7-0.9,2.6-0.8
		c0.7,0,1.4,0.1,2,0.4c1.1,0.5,1.7,1.6,1.8,2.8h-1.4c0-0.6-0.2-1.1-0.6-1.5c-0.5-0.4-1.1-0.6-1.7-0.6c-0.6,0-1.1,0.2-1.6,0.5
		c-0.4,0.3-0.6,0.8-0.6,1.3c0,0.4,0.2,0.9,0.6,1.1c0.6,0.4,1.2,0.7,1.9,0.8c0.7,0.2,1.4,0.4,2.1,0.8c0.5,0.3,0.8,0.6,1.1,1.1
		c0.2,0.4,0.4,0.9,0.4,1.4c0.1,0.8-0.3,1.6-1,2.1c-0.8,0.5-1.7,0.8-2.7,0.8c-0.7,0-1.4-0.1-2.1-0.4c-0.6-0.3-1.1-0.7-1.5-1.2
		c-0.3-0.5-0.5-1.1-0.5-1.7h1.4c0,0.6,0.2,1.2,0.7,1.5c1.1,0.8,2.5,0.8,3.6,0.1c0.4-0.3,0.6-0.7,0.6-1.2c0-0.5-0.2-0.9-0.5-1.2
		C404.7,57.8,403.9,57.5,403.1,57.4z"/>
	<g>
		<g class="st22">
			<path class="st23" d="M303.4,98.4v6.4h-2.2V88.4h6c1.8,0,3.2,0.5,4.2,1.4c1,0.9,1.5,2.1,1.5,3.6c0,1.6-0.5,2.8-1.5,3.7
				c-1,0.9-2.4,1.3-4.3,1.3H303.4z M303.4,96.6h3.9c1.2,0,2-0.3,2.7-0.8c0.6-0.5,0.9-1.3,0.9-2.4c0-1-0.3-1.8-0.9-2.3
				s-1.5-0.9-2.5-0.9h-4V96.6z"/>
			<path class="st23" d="M321.8,98.2h-3.8v6.6h-2.2V88.4h5.4c1.8,0,3.3,0.4,4.3,1.3c1,0.8,1.5,2.1,1.5,3.7c0,1-0.3,1.9-0.8,2.7
				c-0.5,0.8-1.3,1.3-2.3,1.7l3.8,6.9v0.1h-2.3L321.8,98.2z M317.9,96.4h3.3c1.1,0,1.9-0.3,2.6-0.8c0.6-0.6,0.9-1.3,0.9-2.2
				c0-1-0.3-1.8-0.9-2.3c-0.6-0.5-1.5-0.8-2.6-0.8h-3.3V96.4z"/>
			<path class="st23" d="M339.2,97.2h-7.1v5.8h8.2v1.8h-10.4V88.4h10.3v1.8h-8.1v5.3h7.1V97.2z"/>
			<path class="st23" d="M345.8,88.4l5.3,13.3l5.3-13.3h2.8v16.4h-2.2v-6.4l0.2-6.9l-5.4,13.2h-1.7l-5.4-13.2l0.2,6.8v6.4H343V88.4
				H345.8z"/>
			<path class="st23" d="M365.4,104.8h-2.2V88.4h2.2V104.8z"/>
			<path class="st23" d="M380.9,88.4v11.1c0,1.5-0.5,2.8-1.5,3.8c-1,1-2.3,1.5-3.9,1.7l-0.6,0c-1.8,0-3.2-0.5-4.3-1.4
				c-1.1-1-1.6-2.3-1.6-4V88.4h2.1v11.1c0,1.2,0.3,2.1,1,2.8c0.7,0.7,1.6,1,2.8,1c1.2,0,2.2-0.3,2.8-1c0.6-0.7,1-1.6,1-2.8V88.4
				H380.9z"/>
			<path class="st23" d="M387,88.4l5.3,13.3l5.3-13.3h2.8v16.4h-2.2v-6.4l0.2-6.9l-5.4,13.2h-1.7l-5.4-13.2l0.2,6.8v6.4h-2.2V88.4
				H387z"/>
		</g>
		<g class="st22">
			<path class="st23" d="M315.3,121.4v5h-1.7v-12.8h4.7c1.4,0,2.5,0.4,3.3,1.1s1.2,1.7,1.2,2.8c0,1.2-0.4,2.2-1.2,2.9s-1.9,1-3.3,1
				H315.3z M315.3,120h3c0.9,0,1.6-0.2,2.1-0.6c0.5-0.4,0.7-1,0.7-1.8c0-0.8-0.2-1.4-0.7-1.8s-1.1-0.7-2-0.7h-3.1V120z"/>
		</g>
		<g class="st22">
			<path class="st23" d="M330.9,123h-5.4l-1.2,3.3h-1.7l4.9-12.8h1.5l4.9,12.8h-1.7L330.9,123z M326,121.7h4.4l-2.2-6L326,121.7z"/>
		</g>
		<g class="st22">
			<path class="st23" d="M340.2,121.2h-3v5.2h-1.7v-12.8h4.2c1.4,0,2.6,0.3,3.3,1s1.2,1.6,1.2,2.9c0,0.8-0.2,1.5-0.6,2.1
				s-1,1-1.8,1.3l3,5.4v0.1H343L340.2,121.2z M337.2,119.8h2.6c0.8,0,1.5-0.2,2-0.7s0.7-1,0.7-1.7c0-0.8-0.2-1.4-0.7-1.8
				s-1.2-0.6-2-0.6h-2.6V119.8z"/>
		</g>
		<g class="st22">
			<path class="st23" d="M354.8,115h-4.1v11.4H349V115h-4.1v-1.4h9.9V115z"/>
			<path class="st23" d="M366.5,126.4h-1.7l-6.4-9.9v9.9h-1.7v-12.8h1.7l6.5,9.9v-9.9h1.7V126.4z"/>
			<path class="st23" d="M376.7,120.5h-5.5v4.5h6.4v1.4h-8.1v-12.8h8v1.4h-6.4v4.1h5.5V120.5z"/>
			<path class="st23" d="M384.4,121.2h-3v5.2h-1.7v-12.8h4.2c1.4,0,2.5,0.3,3.3,1s1.2,1.6,1.2,2.9c0,0.8-0.2,1.5-0.6,2.1
				s-1,1-1.8,1.3l3,5.4v0.1h-1.8L384.4,121.2z M381.4,119.8h2.6c0.8,0,1.5-0.2,2-0.7s0.7-1,0.7-1.7c0-0.8-0.2-1.4-0.7-1.8
				s-1.2-0.6-2-0.6h-2.6V119.8z"/>
		</g>
	</g>
	<path class="st24" d="M300.6,71.7c-0.2,0-0.4-0.1-0.6-0.3c-2-2.4-3.9-5-5.6-7.6c-1.5-2.5-5-8.1-5-8.1c-0.1-0.2-0.1-0.4-0.1-0.6
		l0.6-2.4c0-0.2,0.2-0.4,0.4-0.5c0.1-0.1,14.2-7.6,25.8-10.4h0.2c0.2,0,0.5,0.1,0.6,0.3l7.9,11.9c0.1,0.2,0.1,0.3,0.1,0.5l-0.5,2.7
		c0,0.2-0.2,0.4-0.4,0.5c-0.1,0-8.3,4.2-12.6,6.9s-10.3,6.7-10.3,6.7C301.1,71.5,300.9,71.6,300.6,71.7z"/>
	<path class="st21" d="M316.2,42.6l7.9,11.9l-0.5,2.7c0,0-8.3,4.2-12.7,7s-10.3,6.7-10.3,6.7s-4.1-5.1-5.6-7.6s-5-8.1-5-8.1l0.6-2.4
		C290.6,52.9,304.5,45.4,316.2,42.6 M316.2,41.2H316c-11.7,2.8-25.4,10.1-25.9,10.4c-0.4,0.2-0.6,0.5-0.7,0.9l-0.6,2.4
		c-0.1,0.4,0,0.8,0.2,1.1c0,0.1,3.5,5.6,5,8.1c1.7,2.7,3.6,5.3,5.7,7.7c0.3,0.3,0.7,0.5,1.1,0.5c0.3,0,0.6-0.1,0.8-0.2
		c0.1,0,6-4,10.3-6.7s12.4-6.9,12.5-6.9c0.4-0.2,0.7-0.6,0.8-1l0.5-2.7c0.1-0.4,0-0.8-0.2-1.1l-7.9-11.9
		C317.3,41.4,316.8,41.2,316.2,41.2L316.2,41.2L316.2,41.2z"/>
	<path class="st24" d="M300.6,71.3c-0.1,0-0.2,0-0.3-0.1c-2-2.4-3.9-5-5.6-7.6c-1.5-2.5-5-8.1-5-8.1c-0.1-0.1-0.1-0.2,0-0.3
		c0,0,0,0,0,0l0.6-2.4c0-0.1,0.1-0.2,0.2-0.2c0.1-0.1,14.1-7.6,25.7-10.3h0.1c0.1,0,0.2,0.1,0.3,0.2l7.9,11.9
		c0.1,0.1,0.1,0.2,0.1,0.3l-0.5,2.7c0,0.1-0.1,0.2-0.2,0.3c-4.3,2.1-8.5,4.5-12.6,7c-4.3,2.7-10.3,6.7-10.3,6.7
		C300.9,71.3,300.8,71.3,300.6,71.3z"/>
	<path class="st25" d="M316.2,42.6l7.9,11.9l-0.5,2.7c0,0-8.3,4.2-12.7,7s-10.3,6.7-10.3,6.7s-4.1-5.1-5.6-7.6s-5-8.1-5-8.1l0.6-2.4
		C290.6,52.9,304.5,45.4,316.2,42.6 M316.2,41.9H316c-11.6,2.8-25.6,10.3-25.8,10.4c-0.2,0.1-0.3,0.3-0.4,0.5l-0.6,2.4
		c0,0.2,0,0.4,0.1,0.6c0,0.1,3.5,5.6,5,8.1s5.5,7.4,5.6,7.6c0.1,0.2,0.4,0.3,0.6,0.3c0.1,0,0.3,0,0.4-0.1c0.1,0,6-4,10.3-6.7
		s12.5-6.9,12.6-6.9c0.2-0.1,0.3-0.3,0.4-0.5l0.5-2.7c0-0.2,0-0.4-0.1-0.5l-7.9-11.9C316.6,42,316.4,41.9,316.2,41.9L316.2,41.9
		L316.2,41.9z"/>
	<path class="st24" d="M300.6,71.3c-0.1,0-0.2,0-0.3-0.1c-2-2.4-3.9-5-5.6-7.6c-1.5-2.5-5-8.1-5-8.1c-0.1-0.1-0.1-0.2,0-0.3
		c0,0,0,0,0,0l0.6-2.4c0-0.1,0.1-0.2,0.2-0.2c0.1-0.1,14.1-7.6,25.7-10.3h0.1c0.1,0,0.2,0.1,0.3,0.2l7.9,11.9
		c0.1,0.1,0.1,0.2,0.1,0.3l-0.5,2.7c0,0.1-0.1,0.2-0.2,0.3c-4.3,2.1-8.5,4.5-12.6,7c-4.3,2.7-10.3,6.7-10.3,6.7
		C300.9,71.3,300.8,71.3,300.6,71.3z"/>
	<path class="st25" d="M316.2,42.6l7.9,11.9l-0.5,2.7c0,0-8.3,4.2-12.7,7s-10.3,6.7-10.3,6.7s-4.1-5.1-5.6-7.6s-5-8.1-5-8.1l0.6-2.4
		C290.6,52.9,304.5,45.4,316.2,42.6 M316.2,41.9H316c-11.6,2.8-25.6,10.3-25.8,10.4c-0.2,0.1-0.3,0.3-0.4,0.5l-0.6,2.4
		c0,0.2,0,0.4,0.1,0.6c0,0.1,3.5,5.6,5,8.1s5.5,7.4,5.6,7.6c0.1,0.2,0.4,0.3,0.6,0.3c0.1,0,0.3,0,0.4-0.1c0.1,0,6-4,10.3-6.7
		s12.5-6.9,12.6-6.9c0.2-0.1,0.3-0.3,0.4-0.5l0.5-2.7c0-0.2,0-0.4-0.1-0.5l-7.9-11.9C316.6,42,316.4,41.9,316.2,41.9L316.2,41.9
		L316.2,41.9z"/>
	<path class="st26" d="M294.2,54.3c0,0,10-5.7,17.4-7.8l1.1,1.2l-17.7,8L294.2,54.3z"/>
	<polygon class="st27" points="296.2,57.5 297,58.7 317.1,49.2 316.5,48.3 	"/>
	<polygon class="st27" points="298,59.8 298.6,60.9 319,51.4 318.4,50.5 	"/>
	<polygon class="st28" points="299.8,62.2 300.2,63.7 311,58.1 310.5,57.2 	"/>
	<path class="st29" d="M300.6,68.2V71c0,0,8.9-6,13-8.4s10-5.3,10-5.3l0.5-2.7L300.6,68.2z"/>
	<polygon class="st30" points="290.6,52.9 300.6,68.2 300.6,70.9 296.2,65.2 294.5,62.6 290,55.3 	"/>
</g>
</svg>
