<svg id="Layer_1" data-name="Layer 1" xmlns="http://www.w3.org/2000/svg" viewBox="0 0 704.6 373.7"><title>browser-premium</title><g id="Layer_2" data-name="Layer 2"><rect x="96.85" y="160.4" width="26.6" height="2.5" fill="#df4c36"/><path d="M699.55,42.7H5A4.27,4.27,0,0,0,.75,47V71.9h703.1V47A4.27,4.27,0,0,0,699.55,42.7Z" fill="#fafafa"/><rect x="0.75" y="71.9" width="703.1" height="52.5" fill="#f0f0f0"/><path d="M0.75,373.7V47a4.27,4.27,0,0,1,4.3-4.3h694.5a4.27,4.27,0,0,1,4.3,4.3V373.7" fill="none" stroke="#dadada" stroke-miterlimit="10" stroke-width="1.5"/><line x1="0.75" y1="71.9" x2="703.85" y2="71.9" fill="none" stroke="#dadada" stroke-miterlimit="10" stroke-width="1.5"/><line x1="0.75" y1="124.4" x2="703.85" y2="124.4" fill="none" stroke="#dadada" stroke-miterlimit="10" stroke-width="1.5"/><line x1="0.75" y1="162.9" x2="703.85" y2="162.9" fill="none" stroke="#dadada" stroke-miterlimit="10" stroke-width="1.5"/><rect x="100.85" y="140.1" width="17.8" height="6.2" fill="#fadbd7"/><rect x="143.25" y="140.1" width="27.4" height="6.2" fill="#f0f0f0"/><rect x="193.95" y="140.1" width="26.5" height="6.2" fill="#f0f0f0"/><rect x="94.15" y="257.7" width="245" height="11" fill="#e5ebf5"/><rect x="94.15" y="276.7" width="122.5" height="7.3" fill="#e6f2ec"/><rect x="94.15" y="347.3" width="245" height="11" fill="#e5ebf5"/><rect x="94.15" y="366.3" width="122.5" height="7.3" fill="#e6f2ec"/><rect x="94.15" y="292.1" width="352.3" height="7.3" fill="#eeeded"/><rect x="94.15" y="307.4" width="362.8" height="7.3" fill="#eeeded"/><rect x="94.15" y="322.7" width="176.2" height="7.3" fill="#eeeded"/><rect x="514.55" y="172.4" width="88.7" height="8" fill="#e6f2ec"/><rect x="514.55" y="186.7" width="114.1" height="8" fill="#eeeded"/><rect x="514.55" y="201.1" width="88.7" height="8" fill="#eeeded"/><rect x="514.55" y="258.4" width="88.7" height="8" fill="#e6f2ec"/><rect x="514.55" y="272.7" width="114.1" height="8" fill="#eeeded"/><rect x="514.55" y="287.1" width="88.7" height="8" fill="#eeeded"/><rect x="514.55" y="241.1" width="107.3" height="10.3" fill="#e5ebf5"/></g><g id="Layer_3" data-name="Layer 3"><rect x="93.85" y="87.4" width="411.3" height="21.3" fill="#fff" stroke="#dadada" stroke-linecap="round" stroke-linejoin="round" stroke-width="1.5"/><path id="path2998" d="M31.35,96H23v2.5h5.9c-0.3,3.4-3.2,4.9-5.9,4.9a6.42,6.42,0,0,1-6.5-6.5A6.51,6.51,0,0,1,23,90.3a6.19,6.19,0,0,1,4.4,1.8l1.7-1.8a8.63,8.63,0,0,0-6.2-2.5,9.05,9.05,0,1,0,.1,18.1c4.8,0,8.4-3.3,8.4-8.2a11.48,11.48,0,0,0-.1-1.7h0Z" fill="#547dbe"/><path id="path3000" d="M38.15,94.2a5.74,5.74,0,0,0-5.8,5.8,5.85,5.85,0,0,0,5.9,5.9,5.68,5.68,0,0,0,5.8-5.8,5.83,5.83,0,0,0-5.9-5.9h0Zm0,2.3a3.51,3.51,0,0,1,0,7,3.51,3.51,0,0,1,0-7h0Z" fill="#dc3336"/><path id="path3005" d="M50.85,94.2A5.74,5.74,0,0,0,45,100a5.85,5.85,0,0,0,5.9,5.9,5.68,5.68,0,0,0,5.8-5.8,5.83,5.83,0,0,0-5.9-5.9h0Zm0,2.3a3.51,3.51,0,0,1,0,7,3.51,3.51,0,0,1,0-7h0Z" fill="#f4c30f"/><path id="path3007" d="M63.25,94.2a5.76,5.76,0,0,0-5.6,5.8,5.68,5.68,0,0,0,5.5,5.8,4,4,0,0,0,3.2-1.4v1.1a2.92,2.92,0,0,1-3.1,3.2,3.17,3.17,0,0,1-3-2.1l-2.2.9a5.55,5.55,0,0,0,5.2,3.4c3.1,0,5.5-2,5.5-6.1V94.4h-2.4v1a4.65,4.65,0,0,0-3.1-1.2h0Zm0.3,2.3a3.28,3.28,0,0,1,3.1,3.5,3.22,3.22,0,0,1-3.1,3.5,3.3,3.3,0,0,1-3.2-3.5,3.19,3.19,0,0,1,3.2-3.5h0Z" fill="#547dbe"/><path id="path3011" d="M79.65,94.2a5.48,5.48,0,0,0-5.4,5.8,5.59,5.59,0,0,0,5.7,5.8,5.88,5.88,0,0,0,4.9-2.5l-2-1.3a3.23,3.23,0,0,1-2.8,1.6,2.86,2.86,0,0,1-2.8-1.8L85,98.6l-0.4-.9a5.59,5.59,0,0,0-5-3.5h0Zm0.1,2.2a2.27,2.27,0,0,1,2.1,1.2l-5.2,2.2a3.46,3.46,0,0,1,3.1-3.4h0Z" fill="#dc3336"/><path id="path3015" d="M70.55,105.5h2.6V88.4h-2.6v17.1Z" fill="#4eb056"/><path d="M565.45,108.7h-48.1a1.79,1.79,0,0,1-1.8-1.8V89.1a1.79,1.79,0,0,1,1.8-1.8h48.1a1.79,1.79,0,0,1,1.8,1.8v17.8A1.93,1.93,0,0,1,565.45,108.7Z" fill="#547dbe"/><circle cx="13.15" cy="58.1" r="4.1" fill="#fff" stroke="#dadada" stroke-linecap="round" stroke-linejoin="round" stroke-width="1.5"/><circle cx="27.35" cy="58.1" r="4.1" fill="#fff" stroke="#dadada" stroke-linecap="round" stroke-linejoin="round" stroke-width="1.5"/><circle cx="42.25" cy="58.1" r="4.1" fill="#fff" stroke="#dadada" stroke-linecap="round" stroke-linejoin="round" stroke-width="1.5"/></g><g id="Layer_4" data-name="Layer 4"><circle cx="540.65" cy="97.2" r="3.2" fill="none" stroke="#fff" stroke-linecap="round" stroke-linejoin="round" stroke-width="1.5"/><line x1="544.75" y1="101.9" x2="542.65" y2="99.7" fill="none" stroke="#fff" stroke-linecap="round" stroke-linejoin="round" stroke-width="1.5"/><path d="M288.55,143.3a9,9,0,0,1-9-9V9.5a9,9,0,0,1,9-9h124.7a9,9,0,0,1,9,9V134.2a9,9,0,0,1-9,9H288.55v0.1Z" fill="#f5fafe"/><path d="M413.25,1a8.49,8.49,0,0,1,8.5,8.5V134.2a8.49,8.49,0,0,1-8.5,8.5H288.55a8.49,8.49,0,0,1-8.5-8.5V9.5a8.49,8.49,0,0,1,8.5-8.5h124.7m0-1H288.55a9.56,9.56,0,0,0-9.5,9.5V134.2a9.56,9.56,0,0,0,9.5,9.5h124.7a9.56,9.56,0,0,0,9.5-9.5V9.5a9.56,9.56,0,0,0-9.5-9.5h0Z" fill="#a9d7f1"/><rect x="280.05" y="42.6" width="141.7" height="28.3" fill="#347cc0"/><path d="M326.65,14c-0.7.7-1.3,1.4-2,2.1-0.2-.2-0.4-0.3-0.6-0.5a7.56,7.56,0,0,0-3.9-1.6,7.64,7.64,0,0,0-8.5,6.1,7.82,7.82,0,0,0,1.4,6.6,7.42,7.42,0,0,0,5,2.9,7.63,7.63,0,0,0,5.7-1.3,5.81,5.81,0,0,0,2.4-4,0.9,0.9,0,0,1,.1-0.5c0-.1,0-0.2-0.1-0.2h-6.6c-0.3,0-.3,0-0.3-0.3V21a0.27,0.27,0,0,1,.3-0.3h9.3a0.27,0.27,0,0,1,.3.3,10.56,10.56,0,0,1-1,6.3,8.8,8.8,0,0,1-4.2,4.1,11.12,11.12,0,0,1-11.5-1.2,10.42,10.42,0,0,1-4-6.4,9.64,9.64,0,0,1,1.2-7.4,10.64,10.64,0,0,1,6.2-5,9.12,9.12,0,0,1,3.3-.5,10.78,10.78,0,0,1,6.7,2.2,4.35,4.35,0,0,0,.7.6A0.49,0.49,0,0,1,326.65,14Z" fill="#527bbd"/><path d="M361.45,34.8c0.9-.4,1.8-0.7,2.6-1.1a7.84,7.84,0,0,0,1,1.5,3.91,3.91,0,0,0,3.1,1,3.37,3.37,0,0,0,2-.9,3.46,3.46,0,0,0,1-2.1,14.77,14.77,0,0,0,.1-2.1h-0.1l-0.1.1a4.59,4.59,0,0,1-3.1,1.5,6.65,6.65,0,0,1-6.8-4.9,7.8,7.8,0,0,1-.3-2.2,6.78,6.78,0,0,1,5.2-6.6,4.93,4.93,0,0,1,4.5.9,4.35,4.35,0,0,0,.7.6V19.7c0-.5-0.1-0.4.4-0.4h2.2c0.2,0,.3,0,0.3.2V32a6.89,6.89,0,0,1-1.2,4.2,5.72,5.72,0,0,1-4,2.5,7.36,7.36,0,0,1-3.9-.3,6.92,6.92,0,0,1-3.1-2.5A5.36,5.36,0,0,0,361.45,34.8Zm6.3-4.9a3.7,3.7,0,0,0,2.9-1.4,4.22,4.22,0,0,0,.9-2.5,4.17,4.17,0,0,0-.6-2.7,3.58,3.58,0,0,0-3.2-1.9,3.5,3.5,0,0,0-3.2,1.8,5,5,0,0,0-.6,3.6A3.87,3.87,0,0,0,367.75,29.9Z" fill="#527bbd"/><path d="M337.35,18.7a6.76,6.76,0,0,1,7,6.4,7.28,7.28,0,0,1-.9,4.1,6.9,6.9,0,0,1-4.8,3.3,7.1,7.1,0,0,1-5.1-1,6.55,6.55,0,0,1-3-4.6,6.73,6.73,0,0,1,2.2-6.4,6.33,6.33,0,0,1,3.4-1.6C336.55,18.8,337,18.8,337.35,18.7Zm4,6.9c0-.2-0.1-0.5-0.1-0.9a4,4,0,0,0-3.4-3.3,3.73,3.73,0,0,0-3.4,1.3,4.49,4.49,0,0,0-.9,4.3A4,4,0,0,0,341.35,25.6Z" fill="#e84436"/><path d="M352.45,18.7a6.76,6.76,0,0,1,7,6.4,7.28,7.28,0,0,1-.9,4.1,6.9,6.9,0,0,1-4.8,3.3,7.1,7.1,0,0,1-5.1-1,6.55,6.55,0,0,1-3-4.6,6.73,6.73,0,0,1,2.2-6.4,6.33,6.33,0,0,1,3.4-1.6C351.65,18.8,352.05,18.8,352.45,18.7Zm4,6.9c0-.2-0.1-0.5-0.1-0.9a4,4,0,0,0-3.4-3.3,3.73,3.73,0,0,0-3.4,1.3,4.49,4.49,0,0,0-.9,4.3,3.85,3.85,0,0,0,5.6,2.4A4.18,4.18,0,0,0,356.45,25.6Z" fill="#fbbc0c"/><path d="M393.45,23.9l-9.3,3.9c1.1,2.8,5.3,2.9,6.9.3,0.8,0.5,1.5,1,2.3,1.5a0.1,0.1,0,0,1-.1.1,7,7,0,0,1-4.5,2.8,6.64,6.64,0,0,1-7.8-5.3,7.59,7.59,0,0,1,.9-5.5,5.64,5.64,0,0,1,4.5-2.9,6.05,6.05,0,0,1,6.2,3.1C392.85,22.5,393.05,23.2,393.45,23.9Zm-9.8,1.6c2.1-.9,4.2-1.7,6.3-2.6-0.1-.1-0.1-0.2-0.2-0.3a2.84,2.84,0,0,0-2.9-1.2,4,4,0,0,0-3.2,3A2.05,2.05,0,0,0,383.65,25.5Z" fill="#e84436"/><path d="M376.25,21.9V12c0-.3,0-0.3.3-0.3h2.4c0.3,0,.3,0,0.3.3V31.8c0,0.3,0,.3-0.3.3h-2.4a0.27,0.27,0,0,1-.3-0.3V21.9Z" fill="#34a953"/><path d="M339.05,59.3h-4.5l-1,2.8h-1.5l4.1-10.7h1.2l4.1,10.7h-1.4Zm-4-1.1h3.6l-1.8-5Z" fill="#fff"/><path d="M343.65,62.1V51.4h3a5.42,5.42,0,0,1,2.5.6,3.72,3.72,0,0,1,1.7,1.8,5.54,5.54,0,0,1,.6,2.6v0.7a5.26,5.26,0,0,1-.6,2.6,4,4,0,0,1-1.7,1.7,5.42,5.42,0,0,1-2.5.6h-3v0.1Zm1.4-9.5V61h1.5a3,3,0,0,0,2.5-1,4.2,4.2,0,0,0,.9-2.9V56.4a3.93,3.93,0,0,0-.9-2.8,3,3,0,0,0-2.4-1h-1.6Z" fill="#fff"/><path d="M356.55,58.7l0.2,1.4,0.3-1.3,2.1-7.4h1.2l2.1,7.4,0.3,1.3,0.2-1.4,1.7-7.3h1.4l-2.6,10.7h-1.3L360,54.3l-0.2-.8-0.2.8-2.3,7.8H356l-2.6-10.7h1.4Z" fill="#fff"/><path d="M376.55,57.1a7.22,7.22,0,0,1-.5,2.7,3.76,3.76,0,0,1-1.5,1.8,4.38,4.38,0,0,1-2.3.6,4,4,0,0,1-2.2-.6,3.85,3.85,0,0,1-1.5-1.8,7.16,7.16,0,0,1-.6-2.7V56.4a7.64,7.64,0,0,1,.5-2.7,3.85,3.85,0,0,1,1.5-1.8,4.28,4.28,0,0,1,2.2-.6,4.38,4.38,0,0,1,2.3.6,3.35,3.35,0,0,1,1.5,1.8,7.64,7.64,0,0,1,.5,2.7v0.7h0.1Zm-1.4-.7a4.77,4.77,0,0,0-.8-2.9,2.71,2.71,0,0,0-4.2,0,4.65,4.65,0,0,0-.8,2.8v0.8a5,5,0,0,0,.8,2.9,2.48,2.48,0,0,0,2.1,1.1,2.39,2.39,0,0,0,2.1-1,4.65,4.65,0,0,0,.8-2.8V56.4Z" fill="#fff"/><path d="M383.35,57.8h-2.5v4.3h-1.4V51.4H383a4.65,4.65,0,0,1,2.8.8,3,3,0,0,1,1,2.4,3.1,3.1,0,0,1-.5,1.7,3.27,3.27,0,0,1-1.5,1.1l2.5,4.5V62h-1.5Zm-2.5-1.2h2.2a2.86,2.86,0,0,0,1.7-.5,1.89,1.89,0,0,0,.6-1.5,1.75,1.75,0,0,0-.6-1.5,2.86,2.86,0,0,0-1.7-.5h-2.2v4Z" fill="#fff"/><path d="M389.35,62.1V51.4h3a5.42,5.42,0,0,1,2.5.6,3.72,3.72,0,0,1,1.7,1.8,5.54,5.54,0,0,1,.6,2.6v0.7a5.26,5.26,0,0,1-.6,2.6,3.51,3.51,0,0,1-1.7,1.7,5.42,5.42,0,0,1-2.5.6h-3v0.1Zm1.4-9.5V61h1.5a3,3,0,0,0,2.5-1,4.2,4.2,0,0,0,.9-2.9V56.4a3.93,3.93,0,0,0-.9-2.8,3,3,0,0,0-2.4-1h-1.6Z" fill="#fff"/><path d="M403.15,57.4a5.71,5.71,0,0,1-2.6-1.3,2.56,2.56,0,0,1-.8-1.9,2.64,2.64,0,0,1,1-2.1,3.69,3.69,0,0,1,2.6-.8,4.48,4.48,0,0,1,2,.4,3.34,3.34,0,0,1,1.8,2.8h-1.4a1.89,1.89,0,0,0-.6-1.5,2.89,2.89,0,0,0-1.7-.6,2.54,2.54,0,0,0-1.6.5,1.49,1.49,0,0,0-.6,1.3,1.38,1.38,0,0,0,.6,1.1,4.89,4.89,0,0,0,1.9.8,7.09,7.09,0,0,1,2.1.8,2.89,2.89,0,0,1,1.1,1.1,3.25,3.25,0,0,1,.4,1.4,2.39,2.39,0,0,1-1,2.1,4.55,4.55,0,0,1-2.7.8,5.22,5.22,0,0,1-2.1-.4,3.64,3.64,0,0,1-1.5-1.2,3.1,3.1,0,0,1-.5-1.7h1.4a1.68,1.68,0,0,0,.7,1.5,3.23,3.23,0,0,0,3.6.1,1.43,1.43,0,0,0,.6-1.2,1.66,1.66,0,0,0-.5-1.2A6,6,0,0,0,403.15,57.4Z" fill="#fff"/><g style="isolation:isolate"><text transform="translate(295.33 104.79)" font-size="23" fill="#255faa" font-family="Roboto" style="isolation:isolate">PREMIUM</text><text transform="translate(308.13 126.39)" font-size="18" fill="#255faa" font-family="Roboto" style="isolation:isolate"><tspan letter-spacing="-1">P</tspan><tspan x="10.14" y="0">A</tspan><tspan x="21.88" y="0">R</tspan><tspan x="32.26" y="0">TNER</tspan></text></g><path d="M300.65,71.7a0.86,0.86,0,0,1-.6-0.3,89.48,89.48,0,0,1-5.6-7.6c-1.5-2.5-5-8.1-5-8.1a1.27,1.27,0,0,1-.1-0.6l0.6-2.4a0.66,0.66,0,0,1,.4-0.5c0.1-.1,14.2-7.6,25.8-10.4h0.2a0.71,0.71,0,0,1,.6.3l7.9,11.9a0.9,0.9,0,0,1,.1.5l-0.5,2.7a0.66,0.66,0,0,1-.4.5c-0.1,0-8.3,4.2-12.6,6.9s-10.3,6.7-10.3,6.7A0.76,0.76,0,0,1,300.65,71.7Z" fill="#f1f1ef"/><path d="M316.25,42.6l7.9,11.9-0.5,2.7s-8.3,4.2-12.7,7-10.3,6.7-10.3,6.7-4.1-5.1-5.6-7.6-5-8.1-5-8.1l0.6-2.4c0,0.1,13.9-7.4,25.6-10.2m0-1.4H316c-11.7,2.8-25.4,10.1-25.9,10.4a1.27,1.27,0,0,0-.7.9l-0.6,2.4A1.39,1.39,0,0,0,289,56c0,0.1,3.5,5.6,5,8.1a76.36,76.36,0,0,0,5.7,7.7,1.27,1.27,0,0,0,1.1.5,1.88,1.88,0,0,0,.8-0.2c0.1,0,6-4,10.3-6.7s12.4-6.9,12.5-6.9a1.59,1.59,0,0,0,.8-1l0.5-2.7a1.47,1.47,0,0,0-.2-1.1l-7.9-11.9a1.94,1.94,0,0,0-1.3-.6h0Z" fill="#fff"/><path d="M300.65,71.3a0.37,0.37,0,0,1-.3-0.1,89.48,89.48,0,0,1-5.6-7.6c-1.5-2.5-5-8.1-5-8.1a0.19,0.19,0,0,1,0-.3l0.6-2.4a0.22,0.22,0,0,1,.2-0.2c0.1-.1,14.1-7.6,25.7-10.3h0.1a0.53,0.53,0,0,1,.3.2l7.9,11.9a0.37,0.37,0,0,1,.1.3l-0.5,2.7a0.53,0.53,0,0,1-.2.3,141.76,141.76,0,0,0-12.6,7c-4.3,2.7-10.3,6.7-10.3,6.7A1,1,0,0,0,300.65,71.3Z" fill="#f1f1ef"/><path d="M316.25,42.6l7.9,11.9-0.5,2.7s-8.3,4.2-12.7,7-10.3,6.7-10.3,6.7-4.1-5.1-5.6-7.6-5-8.1-5-8.1l0.6-2.4c0,0.1,13.9-7.4,25.6-10.2m0-.7H316c-11.6,2.8-25.6,10.3-25.8,10.4a1,1,0,0,0-.4.5l-0.6,2.4a1.27,1.27,0,0,0,.1.6c0,0.1,3.5,5.6,5,8.1s5.5,7.4,5.6,7.6a0.71,0.71,0,0,0,.6.3,0.6,0.6,0,0,0,.4-0.1c0.1,0,6-4,10.3-6.7s12.5-6.9,12.6-6.9a1,1,0,0,0,.4-0.5l0.5-2.7a0.75,0.75,0,0,0-.1-0.5l-7.9-11.9c-0.1-.5-0.3-0.6-0.5-0.6h0Z" fill="#475764"/><path d="M300.65,71.3a0.37,0.37,0,0,1-.3-0.1,89.48,89.48,0,0,1-5.6-7.6c-1.5-2.5-5-8.1-5-8.1a0.19,0.19,0,0,1,0-.3l0.6-2.4a0.22,0.22,0,0,1,.2-0.2c0.1-.1,14.1-7.6,25.7-10.3h0.1a0.53,0.53,0,0,1,.3.2l7.9,11.9a0.37,0.37,0,0,1,.1.3l-0.5,2.7a0.53,0.53,0,0,1-.2.3,141.76,141.76,0,0,0-12.6,7c-4.3,2.7-10.3,6.7-10.3,6.7A1,1,0,0,0,300.65,71.3Z" fill="#f1f1ef"/><path d="M316.25,42.6l7.9,11.9-0.5,2.7s-8.3,4.2-12.7,7-10.3,6.7-10.3,6.7-4.1-5.1-5.6-7.6-5-8.1-5-8.1l0.6-2.4c0,0.1,13.9-7.4,25.6-10.2m0-.7H316c-11.6,2.8-25.6,10.3-25.8,10.4a1,1,0,0,0-.4.5l-0.6,2.4a1.27,1.27,0,0,0,.1.6c0,0.1,3.5,5.6,5,8.1s5.5,7.4,5.6,7.6a0.71,0.71,0,0,0,.6.3,0.6,0.6,0,0,0,.4-0.1c0.1,0,6-4,10.3-6.7s12.5-6.9,12.6-6.9a1,1,0,0,0,.4-0.5l0.5-2.7a0.75,0.75,0,0,0-.1-0.5l-7.9-11.9c-0.1-.5-0.3-0.6-0.5-0.6h0Z" fill="#475764"/><path d="M294.25,54.3s10-5.7,17.4-7.8l1.1,1.2-17.7,8Z" fill="#154176"/><polygon points="296.25 57.5 296.95 58.7 317.15 49.2 316.55 48.3 296.25 57.5" fill="#b4bbae"/><polygon points="297.95 59.8 298.65 60.9 319.05 51.4 318.35 50.5 297.95 59.8" fill="#b4bbae"/><polygon points="299.75 62.2 300.25 63.7 310.95 58.1 310.45 57.2 299.75 62.2" fill="#8ebf2e"/><path d="M300.65,68.2V71s8.9-6,13-8.4,10-5.3,10-5.3l0.5-2.7Z" fill="#bfb799"/><polygon points="290.65 52.9 300.65 68.2 300.65 70.9 296.25 65.2 294.55 62.6 290.05 55.3 290.65 52.9" fill="#e4ddd3"/></g></svg>