<?xml version="1.0" encoding="utf-8"?>
<!-- Generator: Adobe Illustrator 19.2.0, SVG Export Plug-In . SVG Version: 6.00 Build 0)  -->
<svg version="1.1" xmlns="http://www.w3.org/2000/svg" xmlns:xlink="http://www.w3.org/1999/xlink" x="0px" y="0px"
	 viewBox="0 0 392.1 199.1" style="enable-background:new 0 0 392.1 199.1;" xml:space="preserve">
<style type="text/css">
	.st0{fill:#E6E6E6;}
	.st1{fill:#EDEDED;}
	.st2{fill:#4C4F5E;}
	.st3{fill:#ED6A67;}
	.st4{opacity:0.2;fill:#B1B5C5;}
	.st5{fill:#EEF2F8;}
	.st6{fill:#697384;}
	.st7{opacity:0.2;fill:#697384;}
	.st8{fill:#E88B82;}
	.st9{fill:#F7CB64;}
	.st10{fill:#9CC766;}
	.st11{opacity:0.5;}
</style>
<g id="Layer_2">
	<polygon class="st0" points="168.8,166.7 160.2,194.9 150.1,196.7 150.1,199.1 241.2,199.1 241.2,196.6 231.3,195.5 222.9,165.9 	
		"/>
	<polygon class="st1" points="166.6,173.7 225.1,173.7 222.9,165.9 168.8,166.7 	"/>
	<path class="st2" d="M329,0H63c-2.8,0-5.1,2.3-5.1,5.1v136.7h276.2V5.1C334.1,2.3,331.8,0,329,0z"/>
	<path class="st0" d="M57.9,141.8v19.9c0,2.8,2.3,5.1,5.1,5.1h266c2.8,0,5.1-2.3,5.1-5.1v-19.9H57.9z"/>
	<circle class="st2" cx="196.4" cy="154.3" r="4.2"/>
	<rect x="68.4" y="11.4" class="st3" width="254.6" height="119.5"/>
	<circle class="st4" cx="196.4" cy="5.9" r="1.4"/>
</g>
<g id="Layer_3">
	<path class="st5" d="M0,118.5c0,2.3,1.9,4.3,4.3,4.3h107.2c2.3,0,4.3-1.9,4.3-4.3V35.3H0V118.5z"/>
	<path class="st6" d="M111.5,21H4.3C1.9,21,0,22.9,0,25.3v10h115.8v-10C115.8,22.9,113.8,21,111.5,21z"/>
	<rect x="0" y="35.3" class="st7" width="115.8" height="7.2"/>
	<path class="st8" d="M7.3,30.4L7.3,30.4c1.2,0,2.3-1,2.3-2.2v0c0-1.2-1-2.2-2.2-2.2h0c-1.2,0-2.2,1-2.2,2.2v0
		C5,29.4,6,30.4,7.3,30.4z"/>
	<path class="st9" d="M14.1,30.4L14.1,30.4c1.2,0,2.3-1,2.3-2.2v0c0-1.2-1-2.2-2.2-2.2h0c-1.2,0-2.2,1-2.2,2.2v0
		C11.8,29.4,12.8,30.4,14.1,30.4z"/>
	<path class="st10" d="M20.9,30.4L20.9,30.4c1.2,0,2.3-1,2.3-2.2v0c0-1.2-1-2.2-2.2-2.2h0c-1.2,0-2.2,1-2.2,2.2v0
		C18.6,29.4,19.7,30.4,20.9,30.4z"/>
	<path class="st5" d="M276.3,118.5c0,2.3,1.9,4.3,4.3,4.3h107.2c2.3,0,4.3-1.9,4.3-4.3V35.3H276.3V118.5z"/>
	<path class="st6" d="M387.8,21H280.6c-2.3,0-4.3,1.9-4.3,4.3v10h115.8v-10C392.1,22.9,390.2,21,387.8,21z"/>
	<rect x="276.3" y="35.3" class="st7" width="115.8" height="7.2"/>
	<path class="st8" d="M283.6,30.4L283.6,30.4c1.2,0,2.2-1,2.2-2.2v0c0-1.2-1-2.2-2.2-2.2l0,0c-1.2,0-2.2,1-2.2,2.2v0
		C281.4,29.4,282.4,30.4,283.6,30.4z"/>
	<path class="st9" d="M290.4,30.4L290.4,30.4c1.2,0,2.2-1,2.2-2.2v0c0-1.2-1-2.2-2.2-2.2l0,0c-1.2,0-2.2,1-2.2,2.2v0
		C288.2,29.4,289.2,30.4,290.4,30.4z"/>
	<path class="st10" d="M297.2,30.4L297.2,30.4c1.2,0,2.2-1,2.2-2.2v0c0-1.2-1-2.2-2.2-2.2l0,0c-1.2,0-2.2,1-2.2,2.2v0
		C295,29.4,296,30.4,297.2,30.4z"/>
	<path class="st5" d="M138.5,118.5c0,2.3,1.9,4.3,4.3,4.3H250c2.3,0,4.3-1.9,4.3-4.3V35.3H138.5V118.5z"/>
	<path class="st6" d="M250,21H142.8c-2.3,0-4.3,1.9-4.3,4.3v10h115.8v-10C254.3,22.9,252.4,21,250,21z"/>
	<rect x="138.5" y="35.3" class="st7" width="115.8" height="7.2"/>
	<path class="st8" d="M145.8,30.4L145.8,30.4c1.2,0,2.2-1,2.2-2.2v0c0-1.2-1-2.2-2.2-2.2l0,0c-1.2,0-2.2,1-2.2,2.2v0
		C143.6,29.4,144.6,30.4,145.8,30.4z"/>
	<path class="st9" d="M152.6,30.4L152.6,30.4c1.2,0,2.2-1,2.2-2.2v0c0-1.2-1-2.2-2.2-2.2l0,0c-1.2,0-2.2,1-2.2,2.2v0
		C150.4,29.4,151.4,30.4,152.6,30.4z"/>
	<path class="st10" d="M159.4,30.4L159.4,30.4c1.2,0,2.3-1,2.3-2.2v0c0-1.2-1-2.2-2.2-2.2h0c-1.2,0-2.2,1-2.2,2.2v0
		C157.2,29.4,158.2,30.4,159.4,30.4z"/>
</g>
<g id="Layer_4">
	<g class="st11">
		<rect x="13.3" y="50.2" class="st6" width="20.2" height="58.5"/>
		<rect x="79.8" y="50.2" class="st6" width="20.2" height="23"/>
		<rect x="79.8" y="77.2" class="st6" width="20.2" height="13.3"/>
		<rect x="37.3" y="50.2" class="st6" width="38.8" height="58.5"/>
	</g>
	<g class="st11">
		<rect x="287.8" y="68.9" class="st6" width="84.9" height="7.2"/>
		<rect x="314" y="80.1" class="st6" width="13" height="3.6"/>
		<rect x="331" y="80.1" class="st6" width="12.8" height="3.6"/>
	</g>
	<g class="st11">
		<rect x="151.6" y="50.2" class="st6" width="53" height="36.8"/>
		<rect x="151.6" y="101.5" class="st6" width="53" height="7.2"/>
		<rect x="151.6" y="90.6" class="st6" width="53" height="7.2"/>
		<rect x="208.8" y="101.5" class="st6" width="29.5" height="7.2"/>
		<rect x="208.8" y="90.6" class="st6" width="29.5" height="7.2"/>
		<rect x="208.8" y="79.8" class="st6" width="29.5" height="7.2"/>
		<rect x="208.8" y="68.9" class="st6" width="29.5" height="7.2"/>
		<rect x="208.8" y="50.2" class="st6" width="29.5" height="14.6"/>
	</g>
</g>
<g id="Layer_5">
</g>
</svg>
