<?xml version="1.0" encoding="utf-8"?>
<!-- Generator: Adobe Illustrator 19.2.0, SVG Export Plug-In . SVG Version: 6.00 Build 0)  -->
<svg version="1.1" id="Layer_1" xmlns="http://www.w3.org/2000/svg" xmlns:xlink="http://www.w3.org/1999/xlink" x="0px" y="0px"
	 viewBox="0 0 329.2 70.7" style="enable-background:new 0 0 329.2 70.7;" xml:space="preserve">
<style type="text/css">
	.st0{clip-path:url(#SVGID_2_);}
	.st1{fill-rule:evenodd;clip-rule:evenodd;fill:#FFFFFF;}
	.st2{fill-rule:evenodd;clip-rule:evenodd;fill:#E4DDD7;}
	.st3{fill:#FFFFFF;}
	.st4{fill-rule:evenodd;clip-rule:evenodd;fill:#8FC043;}
	.st5{fill-rule:evenodd;clip-rule:evenodd;fill:#D4CBBA;}
	.st6{fill-rule:evenodd;clip-rule:evenodd;fill:#68A5D5;}
	.st7{fill:#EAE6DF;}
	.st8{fill:#E05052;}
	.st9{opacity:0.1;fill:#1E1E1C;}
	.st10{fill:#F5AB9A;}
	.st11{fill:#F18A67;}
	.st12{fill:#746458;}
	.st13{fill:#69857E;}
	.st14{fill:#E6C258;}
	.st15{fill:#E6E6E6;}
	.st16{fill:#FFEABF;}
	.st17{fill:#544842;}
	.st18{fill:#998675;}
</style>
<g>
	<g>
		<defs>
			<polygon id="SVGID_1_" points="246.5,35.7 329.2,70.7 0,70.7 82.7,35.7 			"/>
		</defs>
		<clipPath id="SVGID_2_">
			<use xlink:href="#SVGID_1_"  style="overflow:visible;"/>
		</clipPath>
		<g class="st0">
			<polygon class="st1" points="85.4,6.8 242.7,6.8 398.5,94.1 -43.2,94.1 			"/>
			<polygon class="st2" points="85.4,6.8 242.7,6.8 398.5,94.1 -43.2,94.1 			"/>
			<path class="st1" d="M255.1,15.6c1.8,3.7,3.3,7.4,4.4,11.1c1.7,6.9,1.7,13.7,0.8,20.5c3.8,0.4,7.5,0.8,11.3,1.2
				c0.2-7-0.4-14-2.9-21.1c-0.5-1.2-1-2.5-1.6-3.8L255.1,15.6z"/>
			<path class="st3" d="M277,45.2c9.3,4.5,27.8,12.5,64.3,21.1l11.8,6c-6.9-1.3-13.3-2.6-19.3-3.9c-38.9-9.3-57.7-17.9-67-22.6
				C270.2,45.6,273.5,45.4,277,45.2z"/>
			<path class="st1" d="M283.7,34.1c-14.2,6.7-32.4,13.3-55.5,19.5c-60.5,14.3-144.4,27-249.9,40.5H5.9c97.7-12.8,176-25,233.1-38.5
				c20.8-5.6,37.7-11.5,51.3-17.5L283.7,34.1z"/>
			<path class="st1" d="M337.6,94.1c-22.2-14.6-43.2-29.2-62.9-43.8c-18.2-14.5-35-29-50.6-43.5h-6.2c14.2,14.5,29.4,29,45.8,43.5
				c17.7,14.6,36.6,29.2,56.6,43.8H337.6z"/>
			<polygon class="st1" points="300.8,44.2 178.9,44.2 39.1,44.2 34.6,47.3 179.6,47.3 306.2,47.3 			"/>
			<path class="st1" d="M253,36.7c15.2,0,33.8,4.1,41.6,9.1c8,5-0.6,9.1-19.5,9.1c-18.9,0-38-4.1-42.2-9.1
				C228.7,40.8,237.7,36.7,253,36.7z"/>
			<path class="st4" d="M256.5,39.7c10.7,0,23.2,2.7,28.1,6.1c5,3.4-0.9,6.1-13.2,6.1c-12.3,0-25.1-2.7-28.4-6.1
				C239.7,42.4,245.8,39.7,256.5,39.7z"/>
			<path class="st1" d="M207.3,63.1c1.9-0.8,3.9-1.7,5.7-2.6c-24.6-2.6-47.9-5.2-69.7-7.9c-20.6-2.6-39.9-5.2-58.1-7.9
				c-2.7,0.9-5.5,1.7-8.3,2.6c18.5,2.6,38.2,5.3,59.3,7.9C158.6,57.9,182.3,60.5,207.3,63.1z"/>
			<path class="st1" d="M2.5,68.2c26.7-2.3,52.2-4.7,76.5-7c-0.7-1-1.3-1.9-1.9-2.9C55.1,60.5,32,62.7,8,64.8L2.5,68.2z"/>
			<path class="st1" d="M49.3,89.2c4-0.8,8-1.7,11.9-2.6c-25.6-3.7-49.3-7.4-70.9-11.2l-6.4,3.7C4.1,82.5,25.8,85.9,49.3,89.2z"/>
			<path class="st1" d="M-8.5,76.4c0.1,1,0.4,1.9,0.7,2.9c33.5-3,65.4-5.9,95.5-8.9c-1-1-1.9-1.9-2.8-2.9
				C55.5,70.5,24.4,73.5-8.5,76.4z"/>
			<path class="st1" d="M24.2,54.4c9.5-0.5,19-1,28.4-1.5c0.9-1,1.7-2.1,2.7-3.1c-8.7,0.5-17.5,1-26.3,1.4L24.2,54.4z"/>
			<path class="st1" d="M40.7,43.9c-0.1,1-0.1,1.9-0.2,2.9c17.8-4.1,34.2-8.1,49.3-12.2c13.9-4,26.5-8.2,38.1-12.2
				c-0.6-1-1.1-1.9-1.5-2.9C115,23.5,102.6,27.7,89,31.7C74.3,35.8,58.1,39.8,40.7,43.9z"/>
			<path class="st1" d="M88.1,34.3c2.9-0.9,5.9-1.8,8.8-2.7c-12.6-1-24.9-2-36.8-3L56,31.8C66.4,32.6,77.1,33.4,88.1,34.3z"/>
			<path class="st1" d="M75.2,16.1C83.9,13,92,9.9,99.6,6.8h-6.5c-4.2,1.6-8.6,3.3-13.1,4.9L75.2,16.1z"/>
			<path class="st1" d="M58.3,41.7c3.4-0.9,6.8-1.8,10.2-2.7c-6.7-0.5-13.4-1.1-19.9-1.6l-4.4,3.2C48.8,41,53.5,41.3,58.3,41.7z"/>
			<path class="st1" d="M148.5,22.7c2.1,0.5,4.3,1,6.4,1.4c12.6-5.8,23.2-11.5,31.9-17.3h-7.8C170.5,12.1,160.4,17.4,148.5,22.7z"/>
			<path class="st1" d="M154.6,33.8c-0.2-1.1-0.4-2.3-0.4-3.4c-20.4,0-40.8,0-61.2,0c-4.1,1.1-8.4,2.3-12.6,3.4
				C105.1,33.8,129.8,33.8,154.6,33.8z"/>
			<path class="st1" d="M252.7,34.7c-1-1.2-2-2.3-3-3.5c-16.9-0.1-33.7-0.3-50.4-0.5c-16.7-0.1-33.3-0.3-49.9-0.5
				c-0.5,1.2-1.1,2.3-1.6,3.5c17.3,0.2,34.7,0.3,52.1,0.5C217.4,34.4,235,34.5,252.7,34.7z"/>
			<path class="st1" d="M172.7,46.4c3.8-0.2,7.6-0.4,11.4-0.6c-1.3-4.3-2.5-8.6-3.7-13c-3.2,0.3-6.4,0.7-9.7,1
				C171.3,38,171.9,42.2,172.7,46.4z"/>
			<path class="st1" d="M209.8,46.1c3.7-0.2,7.4-0.4,11.1-0.6c-3.2-4.3-6.2-8.6-9.2-13c-3.1,0.3-6.2,0.7-9.3,1
				C204.9,37.7,207.3,41.9,209.8,46.1z"/>
			<path class="st1" d="M169.4,15.9c1.6-0.9,3-1.8,4.4-2.7c-13.9-1.1-27.4-2.1-40.4-3.2c-12.4-1-24.4-2.1-36-3.1h-0.7
				c-2.3,0.9-4.7,1.8-7.1,2.7c12.3,1.1,24.9,2.1,38,3.2C141.1,13.8,155,14.8,169.4,15.9z"/>
			<path class="st1" d="M140.5,11.5c2.2,0.4,4.5,0.8,6.8,1.2c2.7-1.9,5.1-3.9,7.5-5.8h-7.8C144.9,8.4,142.8,9.9,140.5,11.5z"/>
			<path class="st1" d="M308.3,77.4c-1.7-1-3.4-2.1-5-3.1c-49.6-1.5-97.6-3-144.3-4.5c0.1,1,0.2,2.1,0.4,3.1
				C207.6,74.5,257.2,75.9,308.3,77.4z"/>
			<path class="st1" d="M326.7,88.7c-1.7-1-3.5-2.1-5.2-3.1c-39.1-1-77.4-2-115-2.9c-36.8-1-73.1-2-108.5-2.9c-0.5,1-1,2.1-1.5,3.1
				c36.6,1,73.9,2,111.9,2.9C247,86.8,286.6,87.8,326.7,88.7z"/>
			<path class="st1" d="M137.4,82.9c6.4,0.4,13.1,0.8,19.7,1.1c20.3-3.7,39.1-7.3,56.6-11c-6.2-0.4-12.2-0.8-18.1-1.1
				C177.6,75.6,158.2,79.3,137.4,82.9z"/>
			<path class="st1" d="M88,66.9c0.9,1,1.9,1.9,2.9,2.9c27.7-4,53.1-8.1,76.5-12.1c-1.5-1-3.1-1.9-4.5-2.9
				C140,58.8,115,62.9,88,66.9z"/>
			<path class="st1" d="M341.1,69c2.1,0.2,4.3,0.4,6.5,0.6l-5.2-2.7C342,67.6,341.6,68.3,341.1,69z"/>
			<path class="st1" d="M345,68.3l-9.9,0.2c9.2,4.3,18.7,8.7,28.5,13c9.8,4.2,20,8.4,30.5,12.6h4.5L345,68.3z"/>
			<path class="st1" d="M380.4,85.7c-20.8,0.2-41.7,0.3-62.5,0.5c1.7,1,3.4,2.1,5.2,3.1c21.4-0.1,42.7-0.3,63.9-0.5L380.4,85.7z"/>
			<path class="st1" d="M342.5,67c-14.6,2-30,4.1-46.2,6.1c2.1,1.4,4.3,2.9,6.4,4.3c16.9-2,33-4,48.3-6.1L342.5,67z"/>
			<path class="st1" d="M142.3,94.1c6.1-3.4,12-6.9,17.5-10.3c-5.2-0.4-10.3-0.9-15.3-1.3c-6.7,3.9-14,7.8-21.7,11.6H142.3z"/>
			<path class="st1" d="M288.2,63.3c-0.4-1.1-0.9-2.3-1.3-3.4c-28.9,0-57.8,0-86.6,0c-0.1,1.1-0.3,2.3-0.4,3.4
				C229.2,63.3,258.7,63.3,288.2,63.3z"/>
			<path class="st1" d="M261.7,27.6c1.7,1.2,3.5,2.3,5.3,3.5l11.5-0.2l-5.1-3.2C269.5,27.6,265.6,27.6,261.7,27.6z"/>
			<path class="st4" d="M159.4,73c9,0.3,18,0.6,27.1,0.8c-12.3,2.4-25.3,4.9-38.8,7.3c-12.3-0.3-24.5-0.7-36.6-1
				C128,77.8,144.1,75.4,159.4,73z"/>
			<path class="st4" d="M92.5,33.8c-12.7,3.5-26.4,7-41,10.5c20.1,0,40.2,0,60.3,0s40.3,0,60.4,0c-0.6-3.4-1.2-6.9-1.7-10.3
				C144.5,33.9,118.5,33.8,92.5,33.8z"/>
			<path class="st4" d="M17,59.1c3.4,1.4,7,2.7,10.7,4.1c13.4-1.3,26.5-2.6,39.3-3.9c-5.2-2.1-10-4.3-14.5-6.4
				c-9.4,0.5-18.8,1-28.4,1.5L17,59.1z"/>
			<path class="st5" d="M180.7,34c0.9,3.4,2,6.8,2.9,10.2c8.3,0,16.8,0,25.1,0c-1.9-3.3-3.9-6.7-5.8-10
				C195.4,34.2,188,34.1,180.7,34z"/>
			<path class="st5" d="M119.1,22.1c-4.2,1.5-8.5,2.9-13,4.4c-13.5-1.1-26.7-2.2-39.3-3.3L73,18C87.7,19.3,103.1,20.7,119.1,22.1z"
				/>
			<path class="st5" d="M-16.3,79.3c2.2,0.4,4.3,0.7,6.5,1.1c-3.6,0.5-7.2,0.9-10.9,1.4L-16.3,79.3z"/>
			<path class="st5" d="M159.5,22.2c5.6-2.6,10.8-5.2,15.5-7.7c17.4,1.5,35.6,2.9,54.5,4.4c3.2,3.1,6.3,6.1,9.5,9.2
				C211.1,26.1,184.7,24.1,159.5,22.2z"/>
			<path class="st1" d="M62.6,29.5c-1.1-0.1-2.2-0.2-3.4-0.3l-2.8,2.2C58.5,30.8,60.5,30.2,62.6,29.5z"/>
			<path class="st5" d="M242.2,31.1c-19.9-0.1-39.8-0.3-59.7-0.4c-19.7-0.1-39.4-0.3-59-0.4c11.2-1.8,22.1-3.5,32.4-5.3
				C183.2,27,211.9,29.1,242.2,31.1z"/>
			<path class="st1" d="M45.5,39.7c4-1.5,8.1-3,12.3-4.5c15.3-5.6,31-10.8,48.3-15.2c13.7-3.9,31.4-8.6,47.7-13.1h55
				c-7.2,2.6-11.9,4.3-19.5,6.3c-18.3,4.6-37,10.8-54.1,18.3C115.4,39.2,97.6,48,89.4,58.3C83.8,65,75.1,71.6,63,78.1
				c-10.8,5.5-24.8,10.8-41.6,16h-64.6L45.5,39.7z"/>
			<path class="st6" d="M2.8,94.1c16.7-4.9,31.4-10,43.3-15.4c13.5-6.4,24-13.2,31-20.4c13.1-14.3,38.1-24.7,63.1-33.3
				c20-7.7,40.5-13.7,58-18.2h-36.2c-18.9,4.7-39.8,10.7-61.5,17.9C77,31.9,52.4,40.2,29.9,50.6l-53.4,32.8
				C-8.8,79.5,4.5,75.3,16.2,71c-8.3,4.9-18.3,9.6-29.8,13.9c-8.7,3.2-18.5,6.2-29.1,9.1l-0.4,0.2H2.8z"/>
			<path class="st3" d="M38.8,44.5c8.7,1.7,22.6,4.6,34.1,9.9c7.3,3,14.2,6.7,19.7,11.2c5.9,4.6,10.3,10.1,10.7,16.7
				c-5.6,0.2-11.2,0.3-16.7,0.5c0.5-6.2-2.9-11.3-7.9-15.6c-4.6-4.3-10.7-7.7-17.5-10.5c-9-4.1-19.8-6.7-27.9-8.4L38.8,44.5z"/>
			<path class="st1" d="M247,31.4c-1-1-2.1-2.1-3.2-3.1c-41.9-2.9-80.8-5.8-116.5-8.8c-17.7-1.5-34.6-3.1-50.7-4.7L73,18
				c16.8,1.6,34.3,3.1,52.7,4.7C163,25.6,203.5,28.5,247,31.4z"/>
		</g>
	</g>
	<g>
		<ellipse class="st7" cx="79.5" cy="61.5" rx="5.7" ry="1.6"/>
		<path class="st8" d="M90.4,34.3L90.4,34.3c0-0.2,0-0.4,0-0.7c0-6.1-4.9-11-11-11s-11,4.9-11,11c0,0.2,0,0.4,0,0.7
			c0,0,0,0.2,0.1,0.7c0.1,0.7,0.3,1.5,0.5,2.1c1,3.4,3.5,10.5,10.4,24.4c6.9-13.9,9.5-21,10.4-24.4c0.2-0.7,0.4-1.4,0.5-2.1
			C90.4,34.4,90.4,34.3,90.4,34.3z"/>
		<circle class="st3" cx="79.5" cy="33.6" r="8.2"/>
		<path class="st9" d="M90.5,33.6c0-6.1-4.9-11-11-11v2.8c4.5,0,8.2,3.7,8.2,8.2c0,4.5-3.7,8.2-8.2,8.2v19.7
			c6.9-13.9,9.5-21,10.4-24.4c0.2-0.7,0.4-1.4,0.5-2.1c0.1-0.5,0.1-0.7,0.1-0.7C90.4,34,90.5,33.8,90.5,33.6z"/>
	</g>
	<g>
		<ellipse class="st7" cx="305" cy="65.6" rx="5.7" ry="1.6"/>
		<path class="st8" d="M316,38.4L316,38.4c0-0.2,0-0.4,0-0.7c0-6.1-4.9-11-11-11s-11,4.9-11,11c0,0.2,0,0.4,0,0.7c0,0,0,0.2,0.1,0.7
			c0.1,0.7,0.3,1.5,0.5,2.1c1,3.4,3.5,10.5,10.4,24.4c6.9-13.9,9.5-21,10.4-24.4c0.2-0.7,0.4-1.4,0.5-2.1
			C316,38.6,316,38.4,316,38.4z"/>
		<circle class="st3" cx="305" cy="37.7" r="8.2"/>
		<path class="st9" d="M316,37.7c0-6.1-4.9-11-11-11v2.8c4.5,0,8.2,3.7,8.2,8.2c0,4.5-3.7,8.2-8.2,8.2v19.7
			c6.9-13.9,9.5-21,10.4-24.4c0.2-0.7,0.4-1.4,0.5-2.1c0.1-0.5,0.1-0.7,0.1-0.7C316,38.1,316,37.9,316,37.7z"/>
	</g>
	<g>
		<ellipse class="st7" cx="190.7" cy="40.4" rx="4.8" ry="1.3"/>
		<path class="st8" d="M199.8,17.7L199.8,17.7c0-0.2,0-0.4,0-0.5c0-5.1-4.1-9.2-9.2-9.2c-5.1,0-9.2,4.1-9.2,9.2c0,0.2,0,0.4,0,0.5
			c0,0,0,0.2,0.1,0.6c0.1,0.6,0.2,1.2,0.4,1.8c0.8,2.8,2.9,8.7,8.7,20.3c5.7-11.6,7.9-17.5,8.7-20.3c0.2-0.6,0.3-1.2,0.4-1.8
			C199.8,17.9,199.8,17.7,199.8,17.7z"/>
		<circle class="st3" cx="190.7" cy="17.2" r="6.8"/>
		<path class="st9" d="M199.8,17.2c0-5.1-4.1-9.2-9.2-9.2v2.3c3.8,0,6.8,3.1,6.8,6.8c0,3.8-3.1,6.8-6.8,6.8v16.4
			c5.7-11.6,7.9-17.5,8.7-20.3c0.2-0.6,0.3-1.2,0.4-1.8c0.1-0.4,0.1-0.6,0.1-0.6C199.8,17.5,199.8,17.4,199.8,17.2z"/>
	</g>
	<g>
		<ellipse class="st7" cx="139.6" cy="67" rx="3.6" ry="1"/>
		<path class="st8" d="M146.4,50.1L146.4,50.1c0-0.1,0-0.3,0-0.4c0-3.8-3.1-6.8-6.8-6.8s-6.8,3.1-6.8,6.8c0,0.1,0,0.3,0,0.4
			c0,0,0,0.1,0,0.5c0.1,0.5,0.2,0.9,0.3,1.3c0.6,2.1,2.2,6.5,6.5,15.1c4.3-8.6,5.9-13,6.5-15.1c0.1-0.4,0.2-0.9,0.3-1.3
			C146.5,50.2,146.4,50.1,146.4,50.1z"/>
		<circle class="st3" cx="139.6" cy="49.7" r="5.1"/>
		<path class="st9" d="M146.5,49.7c0-3.8-3.1-6.8-6.8-6.8v1.7c2.8,0,5.1,2.3,5.1,5.1c0,2.8-2.3,5.1-5.1,5.1V67
			c4.3-8.6,5.9-13,6.5-15.1c0.1-0.4,0.2-0.9,0.3-1.3c0.1-0.3,0-0.5,0-0.5C146.5,49.9,146.5,49.8,146.5,49.7z"/>
	</g>
	<g>
		<ellipse class="st7" cx="266.2" cy="47.8" rx="3.6" ry="1"/>
		<path class="st8" d="M273.1,30.9L273.1,30.9c0-0.1,0-0.3,0-0.4c0-3.8-3.1-6.8-6.8-6.8s-6.8,3.1-6.8,6.8c0,0.1,0,0.3,0,0.4
			c0,0,0,0.1,0,0.5c0.1,0.5,0.2,0.9,0.3,1.3c0.6,2.1,2.2,6.5,6.5,15.1c4.3-8.6,5.9-13,6.5-15.1c0.1-0.4,0.2-0.9,0.3-1.3
			C273.1,31,273.1,30.9,273.1,30.9z"/>
		<circle class="st3" cx="266.2" cy="30.5" r="5.1"/>
		<path class="st9" d="M273.1,30.5c0-3.8-3.1-6.8-6.8-6.8v1.7c2.8,0,5.1,2.3,5.1,5.1c0,2.8-2.3,5.1-5.1,5.1v12.3
			c4.3-8.6,5.9-13,6.5-15.1c0.1-0.4,0.2-0.9,0.3-1.3c0.1-0.3,0-0.5,0-0.5C273.1,30.8,273.1,30.6,273.1,30.5z"/>
	</g>
	<g>
		<polygon class="st10" points="153.6,39.2 168,39.2 168,10.5 160.8,0 153.6,10.5 		"/>
		<polygon class="st3" points="133.7,39.2 148.1,39.2 148.1,10.5 140.9,0 133.7,10.5 		"/>
		<rect x="133.7" y="10.5" class="st11" width="19.9" height="28.7"/>
		<polygon class="st12" points="140.9,0 160.8,0 153.6,10.5 133.7,10.5 		"/>
		<g>
			<path class="st13" d="M141.3,36.2h-3.9v-7.1c0-1.1,0.9-2,2-2l0,0c1.1,0,2,0.9,2,2V36.2z"/>
			<path class="st13" d="M150,36.2H146v-7.1c0-1.1,0.9-2,2-2l0,0c1.1,0,2,0.9,2,2V36.2z"/>
		</g>
		<g>
			<path class="st13" d="M141.3,23.3h-3.9v-7.1c0-1.1,0.9-2,2-2l0,0c1.1,0,2,0.9,2,2V23.3z"/>
			<path class="st13" d="M150,23.3H146v-7.1c0-1.1,0.9-2,2-2l0,0c1.1,0,2,0.9,2,2V23.3z"/>
		</g>
	</g>
	<g>
		<polygon class="st14" points="109.8,58.3 97.8,58.3 97.8,34.5 103.8,25.7 109.8,34.5 		"/>
		<rect x="109.8" y="34.5" class="st14" width="16.5" height="23.8"/>
		<rect x="109.8" y="34.5" class="st15" width="16.5" height="23.8"/>
		<polygon class="st12" points="120.4,25.7 103.8,25.7 109.8,34.5 126.3,34.5 		"/>
		<g>
			<path class="st13" d="M120,55.8h3.2v-5.9c0-0.9-0.7-1.6-1.6-1.6l0,0c-0.9,0-1.6,0.7-1.6,1.6V55.8z"/>
			<path class="st13" d="M112.9,55.8h3.2v-5.9c0-0.9-0.7-1.6-1.6-1.6l0,0c-0.9,0-1.6,0.7-1.6,1.6V55.8z"/>
		</g>
		<g>
			<path class="st13" d="M120,45.1h3.2v-5.9c0-0.9-0.7-1.6-1.6-1.6l0,0c-0.9,0-1.6,0.7-1.6,1.6V45.1z"/>
			<path class="st13" d="M112.9,45.1h3.2v-5.9c0-0.9-0.7-1.6-1.6-1.6l0,0c-0.9,0-1.6,0.7-1.6,1.6V45.1z"/>
		</g>
	</g>
	<g>
		<polygon class="st16" points="230.5,67.6 248.2,67.6 248.2,30.2 239.4,17.2 230.5,30.2 		"/>
		<rect x="205.9" y="30.2" class="st16" width="24.5" height="37.4"/>
		<rect x="205.9" y="30.2" class="st15" width="24.5" height="37.4"/>
		<polygon class="st17" points="214.8,17.2 239.4,17.2 230.5,30.2 205.9,30.2 		"/>
		<rect x="230.5" y="64.9" class="st18" width="17.8" height="2.7"/>
		<rect x="205.9" y="64.9" class="st12" width="24.5" height="2.7"/>
		<g>
			<rect x="222.2" y="51.1" class="st13" width="3.6" height="10.3"/>
			<rect x="216.4" y="51.1" class="st13" width="3.6" height="10.3"/>
			<rect x="210.6" y="51.1" class="st13" width="3.6" height="10.3"/>
		</g>
		<g>
			<rect x="222.2" y="35.4" class="st13" width="3.6" height="10.3"/>
			<rect x="216.4" y="35.4" class="st13" width="3.6" height="10.3"/>
			<rect x="210.6" y="35.4" class="st13" width="3.6" height="10.3"/>
		</g>
	</g>
</g>
</svg>
