<?xml version="1.0" encoding="utf-8"?>
<!-- Generator: Adobe Illustrator 19.1.0, SVG Export Plug-In . SVG Version: 6.00 Build 0)  -->
<svg version="1.1" id="Layer_1" xmlns="http://www.w3.org/2000/svg" xmlns:xlink="http://www.w3.org/1999/xlink" x="0px" y="0px"
	 viewBox="0 0 154.9 65" style="enable-background:new 0 0 154.9 65;" xml:space="preserve">
<style type="text/css">
	.st0{fill:#38B39B;}
	.st1{fill:#EAE6E0;}
	.st2{fill:#E04F51;}
	.st3{fill:#FFFFFF;}
	.st4{opacity:0.1;}
	.st5{fill:#1A8975;}
	.st6{font-family:'RobotoMono-Medium';}
	.st7{font-size:3.6383px;}
</style>
<rect x="112.6" y="14.4" class="st0" width="21.1" height="11.7"/>
<rect x="30.6" y="14.4" class="st0" width="11.7" height="11.7"/>
<rect x="48.7" y="0" class="st1" width="11.7" height="26.1"/>
<rect x="48.7" y="33.2" class="st1" width="57.6" height="11.7"/>
<rect x="48.7" y="48" class="st1" width="57.6" height="11.7"/>
<rect x="79.2" y="0" class="st1" width="11.7" height="26.1"/>
<rect x="94.5" y="14.4" class="st1" width="11.7" height="11.7"/>
<rect x="94.5" y="0" class="st1" width="11.7" height="11.7"/>
<rect x="143.2" y="47.8" class="st1" width="11.7" height="11.9"/>
<rect x="143.2" y="33.2" class="st1" width="11.7" height="11.7"/>
<rect x="63.9" y="0" class="st1" width="11.7" height="26.1"/>
<rect x="112.6" y="33.2" class="st1" width="11.7" height="26.5"/>
<rect x="127.9" y="33.2" class="st1" width="11.7" height="26.5"/>
<rect x="30.6" y="33.2" class="st1" width="11.7" height="26.2"/>
<rect x="0" y="33.2" class="st1" width="11.7" height="26.2"/>
<rect x="15.3" y="33.2" class="st1" width="11.7" height="26.2"/>
<g>
	<ellipse class="st1" cx="21.1" cy="63.3" rx="2.2" ry="0.6"/>
	<path class="st2" d="M25.4,52.6L25.4,52.6c0-0.1,0-0.2,0-0.3c0-2.4-1.9-4.3-4.3-4.3s-4.3,1.9-4.3,4.3c0,0.1,0,0.2,0,0.3
		c0,0,0,0.1,0,0.3c0,0.3,0.1,0.6,0.2,0.8c0.4,1.3,1.4,4.1,4.1,9.5c2.7-5.4,3.7-8.2,4.1-9.5c0.1-0.3,0.2-0.5,0.2-0.8
		C25.4,52.7,25.4,52.6,25.4,52.6z"/>
	<circle class="st3" cx="21.1" cy="52.4" r="3.2"/>
	<path class="st4" d="M25.4,52.4c0-2.4-1.9-4.3-4.3-4.3v1.1c1.8,0,3.2,1.4,3.2,3.2c0,1.8-1.4,3.2-3.2,3.2v7.7
		c2.7-5.4,3.7-8.2,4.1-9.5c0.1-0.3,0.2-0.5,0.2-0.8c0-0.2,0-0.3,0-0.3C25.4,52.5,25.4,52.5,25.4,52.4z"/>
	<polygon class="st3" points="20.8,51.8 20.8,52.9 21.5,52.4 	"/>
</g>
<g>
	<ellipse class="st1" cx="133.8" cy="63.3" rx="2.2" ry="0.6"/>
	<path class="st2" d="M138,52.6L138,52.6c0-0.1,0-0.2,0-0.3c0-2.4-1.9-4.3-4.3-4.3c-2.4,0-4.3,1.9-4.3,4.3c0,0.1,0,0.2,0,0.3
		c0,0,0,0.1,0,0.3c0,0.3,0.1,0.6,0.2,0.8c0.4,1.3,1.4,4.1,4.1,9.5c2.7-5.4,3.7-8.2,4.1-9.5c0.1-0.3,0.2-0.5,0.2-0.8
		C138.1,52.7,138,52.6,138,52.6z"/>
	<circle class="st3" cx="133.8" cy="52.4" r="3.2"/>
	<path class="st4" d="M138.1,52.4c0-2.4-1.9-4.3-4.3-4.3v1.1c1.8,0,3.2,1.4,3.2,3.2c0,1.8-1.4,3.2-3.2,3.2v7.7
		c2.7-5.4,3.7-8.2,4.1-9.5c0.1-0.3,0.2-0.5,0.2-0.8c0-0.2,0-0.3,0-0.3C138,52.5,138.1,52.5,138.1,52.4z"/>
	<polygon class="st3" points="133.4,51.8 133.4,52.9 134.2,52.4 	"/>
</g>
<g>
	<ellipse class="st1" cx="85.1" cy="28.5" rx="2.2" ry="0.6"/>
	<path class="st2" d="M89.4,17.8L89.4,17.8c0-0.1,0-0.2,0-0.3c0-2.4-1.9-4.3-4.3-4.3c-2.4,0-4.3,1.9-4.3,4.3c0,0.1,0,0.2,0,0.3
		c0,0,0,0.1,0,0.3c0,0.3,0.1,0.6,0.2,0.8c0.4,1.3,1.4,4.1,4.1,9.5c2.7-5.4,3.7-8.2,4.1-9.5c0.1-0.3,0.2-0.5,0.2-0.8
		C89.4,17.9,89.4,17.8,89.4,17.8z"/>
	<circle class="st3" cx="85.1" cy="17.6" r="3.2"/>
	<path class="st4" d="M89.4,17.6c0-2.4-1.9-4.3-4.3-4.3v1.1c1.8,0,3.2,1.4,3.2,3.2c0,1.8-1.4,3.2-3.2,3.2v7.7
		c2.7-5.4,3.7-8.2,4.1-9.5c0.1-0.3,0.2-0.5,0.2-0.8c0-0.2,0-0.3,0-0.3C89.4,17.7,89.4,17.7,89.4,17.6z"/>
	<polygon class="st3" points="84.7,17 84.7,18.1 85.5,17.6 	"/>
</g>
<g>
	<ellipse class="st1" cx="69.8" cy="64.4" rx="2.2" ry="0.6"/>
	<path class="st2" d="M74.1,53.7L74.1,53.7c0-0.1,0-0.2,0-0.3c0-2.4-1.9-4.3-4.3-4.3s-4.3,1.9-4.3,4.3c0,0.1,0,0.2,0,0.3
		c0,0,0,0.1,0,0.3c0,0.3,0.1,0.6,0.2,0.8c0.4,1.3,1.4,4.1,4.1,9.5c2.7-5.4,3.7-8.2,4.1-9.5c0.1-0.3,0.2-0.5,0.2-0.8
		C74.1,53.8,74.1,53.7,74.1,53.7z"/>
	<circle class="st3" cx="69.8" cy="53.5" r="3.2"/>
	<path class="st4" d="M74.1,53.5c0-2.4-1.9-4.3-4.3-4.3v1.1c1.8,0,3.2,1.4,3.2,3.2c0,1.8-1.4,3.2-3.2,3.2v7.7
		c2.7-5.4,3.7-8.2,4.1-9.5c0.1-0.3,0.2-0.5,0.2-0.8c0-0.2,0-0.3,0-0.3C74.1,53.6,74.1,53.6,74.1,53.5z"/>
	<polygon class="st3" points="69.4,52.9 69.4,54 70.2,53.5 	"/>
</g>
<path class="st5" d="M130.7,22.9h-0.5v1c0,0.1-0.1,0.2-0.2,0.2s-0.2-0.1-0.2-0.2v-1h-0.6c-0.5,0-0.9-0.5-0.7-1l1.1-3.4
	c0.1-0.3,0.5-0.3,0.6,0l1.1,3.4C131.6,22.4,131.2,22.9,130.7,22.9z"/>
<path class="st5" d="M122.2,19.5l-1.1-3.4c-0.1-0.3-0.5-0.3-0.6,0l-1.1,3.4c-0.2,0.5,0.2,1,0.7,1h0.6v1c0,0.1,0.1,0.2,0.2,0.2
	c0.1,0,0.2-0.1,0.2-0.2v-1h0.5C122,20.5,122.3,20,122.2,19.5z"/>
<path class="st5" d="M117.7,19.5l-1.1-3.4c-0.1-0.3-0.5-0.3-0.6,0l-1.1,3.4c-0.2,0.5,0.2,1,0.7,1h0.6v1c0,0.1,0.1,0.2,0.2,0.2
	c0.1,0,0.2-0.1,0.2-0.2v-1h0.5C117.5,20.5,117.8,20,117.7,19.5z"/>
<path class="st5" d="M33.4,20.4H34v1c0,0.1,0.1,0.2,0.2,0.2c0.1,0,0.2-0.1,0.2-0.2v-1h0.6c0.5,0,0.9-0.5,0.7-1L34.5,16
	c-0.1-0.3-0.5-0.3-0.6,0l-1.1,3.4C32.6,19.9,32.9,20.4,33.4,20.4z"/>
<path class="st5" d="M38,20.4h0.5v1c0,0.1,0.1,0.2,0.2,0.2c0.1,0,0.2-0.1,0.2-0.2v-1h0.6c0.5,0,0.9-0.5,0.7-1L39,16
	c-0.1-0.3-0.5-0.3-0.6,0l-1.1,3.4C37.1,19.9,37.4,20.4,38,20.4z"/>
<text transform="matrix(4.489659e-11 -1 1 4.489659e-11 119.5343 56.3137)" class="st6 st7">Nationalt</text>
<text transform="matrix(4.489659e-11 -1 1 4.489659e-11 55.588 19.5876)" class="st6 st7">Lokalt</text>
<text transform="matrix(1 0 0 1 65.4414 40.1751)" class="st6 st7">Franchising</text>
</svg>
