<?xml version="1.0" encoding="utf-8"?>
<!-- Generator: Adobe Illustrator 19.1.0, SVG Export Plug-In . SVG Version: 6.00 Build 0)  -->
<svg version="1.1" id="Layer_3" xmlns="http://www.w3.org/2000/svg" xmlns:xlink="http://www.w3.org/1999/xlink" x="0px" y="0px"
	 viewBox="0 0 510.9 215.4" style="enable-background:new 0 0 510.9 215.4;" xml:space="preserve">
<style type="text/css">
	.st0{fill:#38B39B;}
	.st1{fill:#EAE6E0;}
	.st2{fill:#1A8975;}
	.st3{fill:#4C69A6;}
	.st4{fill:#FFFFFF;}
	.st5{opacity:0.1;}
	.st6{fill:#3BBDEE;}
	.st7{fill:#6790B2;}
	.st8{fill-rule:evenodd;clip-rule:evenodd;fill:#6790B2;}
	.st9{fill:#DD4F41;}
	.st10{fill:#E04F51;}
</style>
<g id="Layer_2">
	<path class="st0" d="M441.2,104.4h-69.7V65.7h69.7V104.4z"/>
	<path class="st1" d="M199.2,104.4h-38.7v-86h38.7V104.4z M160.5,128v38.7h189.9V128H160.5z M160.5,176.7v38.7h189.9v-38.7H160.5z
		 M300,18.4h-38.7v86H300V18.4z M350.4,65.7h-38.7v38.7h38.7V65.7z M350.4,18.4h-38.7V57h38.7V18.4z M510.9,128h-38.7v38.7h38.7V128
		z M249.6,18.4h-38.7v86h38.7V18.4z M410.1,128h-38.7v87.3h38.7V128z M460.5,128h-38.7v87.3h38.7V128z M139.5,128h-38.7v86.5h38.7
		V128z M38.7,128H0v86.5h38.7V128z M89.1,128H50.4v86.5h38.7V128z"/>
	<rect x="472.2" y="175.6" class="st0" width="38.7" height="39.3"/>
	<path class="st2" d="M496.4,197.6l-3.7-11.2c-0.3-1-1.8-1-2.1,0l-3.7,11.2c-0.5,1.6,0.7,3.3,2.4,3.3h1.8v3.4c0,0.3,0.3,0.6,0.6,0.6
		c0.3,0,0.6-0.3,0.6-0.6v-3.4h1.8C495.7,200.8,496.9,199.2,496.4,197.6z"/>
	<rect x="100.8" y="65.4" class="st0" width="38.7" height="39.3"/>
	<path class="st2" d="M124.9,87.4l-3.7-11.2c-0.3-1-1.8-1-2.1,0l-3.7,11.2c-0.5,1.6,0.7,3.3,2.4,3.3h1.8V94c0,0.3,0.3,0.6,0.6,0.6
		c0.3,0,0.6-0.3,0.6-0.6v-3.4h1.8C124.3,90.7,125.5,89,124.9,87.4z"/>
</g>
<g>
	<ellipse class="st1" cx="210.9" cy="150" rx="10" ry="2.8"/>
	<path class="st3" d="M230.1,102.3L230.1,102.3c0-0.4,0-0.8,0-1.2c0-10.6-8.6-19.2-19.2-19.2c-10.6,0-19.2,8.6-19.2,19.2
		c0,0.4,0,0.8,0,1.2c0,0,0,0.3,0.1,1.3c0.2,1.3,0.5,2.5,0.9,3.7c1.7,6,6.2,18.3,18.2,42.6c12.1-24.3,16.5-36.7,18.2-42.6
		c0.4-1.2,0.7-2.5,0.9-3.7C230.1,102.7,230.1,102.3,230.1,102.3z"/>
	<circle class="st4" cx="210.9" cy="101.2" r="14.3"/>
	<path class="st5" d="M230.1,101.2c0-10.6-8.6-19.2-19.2-19.2v4.9c7.9,0,14.3,6.4,14.3,14.3c0,7.9-6.4,14.3-14.3,14.3V150
		c12.1-24.3,16.5-36.7,18.2-42.6c0.4-1.2,0.7-2.5,0.9-3.7c0.1-0.9,0.1-1.3,0.1-1.3C230.1,101.9,230.1,101.5,230.1,101.2z"/>
	<path id="Facebook_2_" class="st3" d="M208.9,96.8c0,0.4,0,2.1,0,2.1h-1.5v2.6h1.5v7h3.1v-7h2.1c0,0,0.2-1.2,0.3-2.6
		c-0.3,0-2.4,0-2.4,0s0-1.5,0-1.7c0-0.3,0.3-0.6,0.7-0.6c0.3,0,1.1,0,1.7,0c0-0.3,0-1.6,0-2.7c-0.9,0-1.9,0-2.3,0
		C208.8,93.9,208.9,96.4,208.9,96.8z"/>
</g>
<g>
	<ellipse class="st1" cx="290.7" cy="203.4" rx="10" ry="2.8"/>
	<path class="st6" d="M309.9,155.7L309.9,155.7c0-0.4,0-0.8,0-1.2c0-10.6-8.6-19.2-19.2-19.2s-19.2,8.6-19.2,19.2c0,0.4,0,0.8,0,1.2
		c0,0,0,0.3,0.1,1.3c0.2,1.3,0.5,2.5,0.9,3.7c1.7,6,6.2,18.3,18.2,42.6c12.1-24.3,16.5-36.7,18.2-42.6c0.4-1.2,0.7-2.5,0.9-3.7
		C309.9,156.1,309.9,155.7,309.9,155.7z"/>
	<circle class="st4" cx="290.7" cy="154.6" r="14.3"/>
	<path class="st5" d="M309.9,154.6c0-10.6-8.6-19.2-19.2-19.2v4.9c7.9,0,14.3,6.4,14.3,14.3c0,7.9-6.4,14.3-14.3,14.3v34.5
		c12.1-24.3,16.5-36.7,18.2-42.6c0.4-1.2,0.7-2.5,0.9-3.7c0.1-0.9,0.1-1.3,0.1-1.3C309.9,155.4,309.9,155,309.9,154.6z"/>
	<path class="st6" d="M287.5,160.9c-0.1,0-0.1,0-0.2,0c0,0,0,0,0,0c-0.4,0-0.7-0.1-1.1-0.1c-1.2-0.2-2.2-0.6-3.2-1.2
		c0,0,0,0-0.1-0.1c1.7,0.2,3.3-0.3,4.7-1.3c0,0,0,0,0,0c-0.6,0-1.2-0.2-1.7-0.6c-0.6-0.4-1-0.9-1.2-1.6c0,0,0-0.1,0-0.1
		c0.3,0.1,0.7,0.1,1,0c0.1,0,0.2,0,0.3-0.1c-0.7-0.2-1.4-0.5-1.8-1.1c-0.4-0.6-0.8-1.6-0.7-2c0.4,0.2,0.9,0.4,1.4,0.4
		c0,0,0,0-0.1-0.1c-0.4-0.3-0.8-0.7-1-1.2c-0.3-0.5-0.4-1.1-0.3-1.7c0-0.4,0.2-0.8,0.4-1.2c0,0,0,0,0.1,0c0.4,0.5,0.8,0.9,1.2,1.2
		c0.9,0.8,2,1.3,3.2,1.7c0.7,0.2,1.3,0.3,2,0.4c0.1,0,0.1,0,0.1-0.1c-0.1-0.4-0.1-0.8,0-1.2c0.1-0.7,0.5-1.4,1-1.8
		c0.8-0.7,1.7-0.9,2.6-0.7c0.7,0.1,1.2,0.4,1.7,0.9c0,0,0.1,0,0.1,0c0.6-0.1,1.1-0.3,1.6-0.6c0.1-0.1,0.2-0.1,0.3-0.2
		c-0.2,0.7-0.7,1.3-1.3,1.7c0.4-0.1,0.9-0.2,1.3-0.3c0.2-0.1,0.3-0.1,0.5-0.2c0,0,0,0,0,0c0,0,0,0,0,0c-0.4,0.6-0.9,1.1-1.5,1.5
		c0,0-0.1,0.1-0.1,0.1c0,0.5,0,1-0.1,1.5c-0.1,0.7-0.2,1.3-0.5,1.9c-0.6,1.5-1.4,2.9-2.7,3.9c-1.5,1.2-3.2,1.9-5.1,2
		c-0.1,0-0.2,0-0.3,0c-0.1,0-0.1,0-0.2,0c0,0,0,0-0.1,0C287.9,160.9,287.7,160.9,287.5,160.9C287.6,160.9,287.5,160.9,287.5,160.9z"
		/>
</g>
<g>
	<ellipse class="st1" cx="387.1" cy="203.7" rx="10" ry="2.8"/>
	<path class="st7" d="M406.2,156L406.2,156c0-0.4,0-0.8,0-1.2c0-10.6-8.6-19.2-19.2-19.2s-19.2,8.6-19.2,19.2c0,0.4,0,0.8,0,1.2
		c0,0,0,0.3,0.1,1.3c0.2,1.3,0.5,2.5,0.9,3.7c1.7,6,6.2,18.3,18.2,42.6c12.1-24.3,16.5-36.7,18.2-42.6c0.4-1.2,0.7-2.5,0.9-3.7
		C406.3,156.4,406.2,156,406.2,156z"/>
	<circle class="st4" cx="387.1" cy="154.9" r="14.3"/>
	<path class="st5" d="M406.3,154.9c0-10.6-8.6-19.2-19.2-19.2v4.9c7.9,0,14.3,6.4,14.3,14.3c0,7.9-6.4,14.3-14.3,14.3v34.5
		c12.1-24.3,16.5-36.7,18.2-42.6c0.4-1.2,0.7-2.5,0.9-3.7c0.1-0.9,0.1-1.3,0.1-1.3C406.3,155.6,406.3,155.3,406.3,154.9z"/>
	<path class="st8" d="M381.8,147.8h10.5c1,0,1.8,0.8,1.8,1.8v10.5c0,1-0.8,1.8-1.8,1.8h-10.5c-1,0-1.8-0.8-1.8-1.8v-10.5
		C380,148.6,380.8,147.8,381.8,147.8L381.8,147.8z M390.3,149.4c-0.3,0-0.6,0.3-0.6,0.6v1.5c0,0.3,0.3,0.6,0.6,0.6h1.6
		c0.3,0,0.6-0.3,0.6-0.6V150c0-0.3-0.3-0.6-0.6-0.6H390.3L390.3,149.4z M392.5,153.8h-1.2c0.1,0.4,0.2,0.8,0.2,1.2
		c0,2.3-2,4.2-4.4,4.2s-4.4-1.9-4.4-4.2c0-0.4,0.1-0.8,0.2-1.2h-1.3v5.9c0,0.3,0.3,0.6,0.6,0.6h9.8c0.3,0,0.6-0.3,0.6-0.6V153.8
		L392.5,153.8z M387.1,152.1c-1.6,0-2.8,1.2-2.8,2.7c0,1.5,1.3,2.7,2.8,2.7c1.6,0,2.8-1.2,2.8-2.7
		C389.9,153.3,388.6,152.1,387.1,152.1z"/>
</g>
<g>
	<ellipse class="st1" cx="280.7" cy="68" rx="10" ry="2.8"/>
	<path class="st9" d="M299.9,20.4L299.9,20.4c0-0.4,0-0.8,0-1.2c0-10.6-8.6-19.2-19.2-19.2c-10.6,0-19.2,8.6-19.2,19.2
		c0,0.4,0,0.8,0,1.2c0,0,0,0.3,0.1,1.3c0.2,1.3,0.5,2.5,0.9,3.7c1.7,6,6.2,18.3,18.2,42.6c12.1-24.3,16.5-36.7,18.2-42.6
		c0.4-1.2,0.7-2.5,0.9-3.7C299.9,20.7,299.9,20.4,299.9,20.4z"/>
	<circle class="st4" cx="280.7" cy="19.2" r="14.3"/>
	<path class="st5" d="M299.9,19.2c0-10.6-8.6-19.2-19.2-19.2v4.9c7.9,0,14.3,6.4,14.3,14.3c0,7.9-6.4,14.3-14.3,14.3V68
		c12.1-24.3,16.5-36.7,18.2-42.6c0.4-1.2,0.7-2.5,0.9-3.7c0.1-0.9,0.1-1.3,0.1-1.3C299.9,20,299.9,19.6,299.9,19.2z"/>
	<g>
		<path class="st9" d="M272.4,18.3c0-2.7,2.5-5.1,5.2-5c1.3-0.1,2.5,0.5,3.5,1.3c-0.4,0.5-0.9,0.9-1.3,1.4c-1.2-0.8-2.9-1.1-4.1-0.1
			c-1.7,1.2-1.8,4-0.1,5.2c1.6,1.4,4.6,0.7,5-1.5c-1,0-2,0-3,0c0-0.6,0-1.2,0-1.8c1.7,0,3.3,0,5,0c0.1,1.4-0.1,2.9-0.9,4.1
			c-1.3,1.8-3.9,2.4-6,1.6C273.7,22.6,272.2,20.5,272.4,18.3z"/>
		<path class="st9" d="M285.9,16.3c0.5,0,1,0,1.5,0c0,0.5,0,1,0,1.5c0.5,0,1,0,1.5,0c0,0.5,0,1,0,1.5c-0.5,0-1,0-1.5,0
			c0,0.5,0,1,0,1.5c-0.5,0-1,0-1.5,0c0-0.5,0-1,0-1.5c-0.5,0-1,0-1.5,0c0-0.5,0-1,0-1.5c0.5,0,1,0,1.5,0
			C285.9,17.3,285.9,16.8,285.9,16.3z"/>
	</g>
</g>
<g>
	<ellipse class="st1" cx="73.7" cy="203.7" rx="10" ry="2.8"/>
	<path class="st10" d="M92.9,156L92.9,156c0-0.4,0-0.8,0-1.2c0-10.6-8.6-19.2-19.2-19.2s-19.2,8.6-19.2,19.2c0,0.4,0,0.8,0,1.2
		c0,0,0,0.3,0.1,1.3c0.2,1.3,0.5,2.5,0.9,3.7c1.7,6,6.2,18.3,18.2,42.6C85.8,179.4,90.3,167,92,161c0.4-1.2,0.7-2.5,0.9-3.7
		C93,156.4,92.9,156,92.9,156z"/>
	<circle class="st4" cx="73.7" cy="154.9" r="14.3"/>
	<path class="st5" d="M93,154.9c0-10.6-8.6-19.2-19.2-19.2v4.9c7.9,0,14.3,6.4,14.3,14.3c0,7.9-6.4,14.3-14.3,14.3v34.5
		C85.8,179.4,90.3,167,92,161c0.4-1.2,0.7-2.5,0.9-3.7c0.1-0.9,0.1-1.3,0.1-1.3C93,155.6,93,155.3,93,154.9z"/>
	<path class="st10" d="M81.1,157.2c0,1.4-1.1,2.5-2.5,2.5h-9.7c-1.4,0-2.5-1.1-2.5-2.5v-4.8c0-1.4,1.1-2.5,2.5-2.5h9.7
		c1.4,0,2.5,1.1,2.5,2.5V157.2z"/>
	<polygon class="st4" points="72,152.3 72,157.4 75.5,154.9 	"/>
</g>
<path class="st2" d="M431.1,93.9h-1.8v3.4c0,0.3-0.3,0.6-0.6,0.6s-0.6-0.3-0.6-0.6v-3.4h-1.8c-1.7,0-2.9-1.7-2.4-3.3l3.7-11.2
	c0.3-1,1.8-1,2.1,0l3.7,11.2C434,92.2,432.8,93.9,431.1,93.9z M403,82.9l-3.7-11.2c-0.3-1-1.8-1-2.1,0l-3.7,11.2
	c-0.5,1.6,0.7,3.3,2.4,3.3h1.8v3.4c0,0.3,0.3,0.6,0.6,0.6s0.6-0.3,0.6-0.6v-3.4h1.8C402.3,86.1,403.5,84.5,403,82.9z M388.1,82.9
	l-3.7-11.2c-0.3-1-1.8-1-2.1,0l-3.7,11.2c-0.5,1.6,0.7,3.3,2.4,3.3h1.8v3.4c0,0.3,0.3,0.6,0.6,0.6c0.3,0,0.6-0.3,0.6-0.6v-3.4h1.8
	C387.4,86.1,388.6,84.5,388.1,82.9z"/>
</svg>
