<?xml version="1.0" encoding="utf-8"?>
<!-- Generator: Adobe Illustrator 19.2.0, SVG Export Plug-In . SVG Version: 6.00 Build 0)  -->
<svg version="1.1" id="Layer_3" xmlns="http://www.w3.org/2000/svg" xmlns:xlink="http://www.w3.org/1999/xlink" x="0px" y="0px"
	 viewBox="0 0 510.9 367.5" style="enable-background:new 0 0 510.9 367.5;" xml:space="preserve">
<style type="text/css">
	.st0{fill:#38B39B;}
	.st1{fill:#EAE6E0;}
	.st2{fill:#4C69A6;}
	.st3{fill:#FFFFFF;}
	.st4{opacity:0.1;}
	.st5{fill:#3BBDEE;}
	.st6{fill:#CF3A3B;}
	.st7{fill:#6790B2;}
	.st8{fill-rule:evenodd;clip-rule:evenodd;fill:#6790B2;}
	.st9{fill:#DD4F41;}
	.st10{fill:#E04F51;}
	.st11{fill:#1A8975;}
</style>
<g id="Layer_2">
	<path class="st0" d="M441.2,86h-69.7V47.3h69.7V86z M139.5,219.3H50.4V258h89.1V219.3z M510.9,267.4h-38.7v39.3h38.7V267.4z"/>
	<path class="st1" d="M199.2,86h-38.7V0h38.7V86z M160.5,109.7v38.7h189.9v-38.7H160.5z M160.5,158.3V197h189.9v-38.7H160.5z M300,0
		h-38.7v86H300V0z M350.4,47.3h-38.7V86h38.7V47.3z M350.4,0h-38.7v38.7h38.7V0z M510.9,157.7h-38.7V197h38.7V157.7z M510.9,109.7
		h-38.7v38.7h38.7V109.7z M510.9,219.3h-38.7V258h38.7V219.3z M460.5,267.4h-87.7v39.3h87.7V267.4z M460.5,219.3h-87.7V258h87.7
		V219.3z M311.7,305.3h38.7v-86h-38.7V305.3z M261.3,258H300v-38.7h-38.7V258z M261.3,305.3H300v-38.7h-38.7V305.3z M261.3,367.5
		H300v-38.7h-38.7V367.5z M311.7,367.5h38.7v-38.7h-38.7V367.5z M160.5,367.5h38.7v-38.7h-38.7V367.5z M210.9,367.5h38.7v-38.7
		h-38.7V367.5z M249.6,0h-38.7v86h38.7V0z M410.1,109.7h-38.7V197h38.7V109.7z M460.5,109.7h-38.7V197h38.7V109.7z M139.5,109.7
		h-38.7v86.5h38.7V109.7z M38.7,109.7H0v86.5h38.7V109.7z M89.1,109.7H50.4v86.5h38.7V109.7z M199.2,219.3h-38.7v86h38.7V219.3z
		 M249.6,219.3h-38.7v86h38.7V219.3z"/>
</g>
<g>
	<ellipse class="st1" cx="210.9" cy="131.6" rx="10" ry="2.8"/>
	<path class="st2" d="M230.1,83.9L230.1,83.9c0-0.4,0-0.8,0-1.2c0-10.6-8.6-19.2-19.2-19.2c-10.6,0-19.2,8.6-19.2,19.2
		c0,0.4,0,0.8,0,1.2c0,0,0,0.3,0.1,1.3c0.2,1.3,0.5,2.5,0.9,3.7c1.7,6,6.2,18.3,18.2,42.6c12.1-24.3,16.5-36.7,18.2-42.6
		c0.4-1.2,0.7-2.5,0.9-3.7C230.1,84.3,230.1,83.9,230.1,83.9z"/>
	<circle class="st3" cx="210.9" cy="82.8" r="14.3"/>
	<path class="st4" d="M230.1,82.8c0-10.6-8.6-19.2-19.2-19.2v4.9c7.9,0,14.3,6.4,14.3,14.3c0,7.9-6.4,14.3-14.3,14.3v34.5
		c12.1-24.3,16.5-36.7,18.2-42.6c0.4-1.2,0.7-2.5,0.9-3.7c0.1-0.9,0.1-1.3,0.1-1.3C230.1,83.6,230.1,83.2,230.1,82.8z"/>
	<path id="Facebook_2_" class="st2" d="M208.9,78.4c0,0.4,0,2.1,0,2.1h-1.5v2.6h1.5v7h3.1v-7h2.1c0,0,0.2-1.2,0.3-2.6
		c-0.3,0-2.4,0-2.4,0s0-1.5,0-1.7c0-0.3,0.3-0.6,0.7-0.6c0.3,0,1.1,0,1.7,0c0-0.3,0-1.6,0-2.7c-0.9,0-1.9,0-2.3,0
		C208.8,75.5,208.9,78,208.9,78.4z"/>
</g>
<g>
	<ellipse class="st1" cx="280.7" cy="240" rx="10" ry="2.8"/>
	<path class="st5" d="M299.9,192.4L299.9,192.4c0-0.4,0-0.8,0-1.2c0-10.6-8.6-19.2-19.2-19.2s-19.2,8.6-19.2,19.2c0,0.4,0,0.8,0,1.2
		c0,0,0,0.3,0.1,1.3c0.2,1.3,0.5,2.5,0.9,3.7c1.7,6,6.2,18.3,18.2,42.6c12.1-24.3,16.5-36.7,18.2-42.6c0.4-1.2,0.7-2.5,0.9-3.7
		C299.9,192.7,299.9,192.4,299.9,192.4z"/>
	<circle class="st3" cx="280.7" cy="191.2" r="14.3"/>
	<path class="st4" d="M299.9,191.2c0-10.6-8.6-19.2-19.2-19.2v4.9c7.9,0,14.3,6.4,14.3,14.3c0,7.9-6.4,14.3-14.3,14.3V240
		c12.1-24.3,16.5-36.7,18.2-42.6c0.4-1.2,0.7-2.5,0.9-3.7c0.1-0.9,0.1-1.3,0.1-1.3C299.9,192,299.9,191.6,299.9,191.2z"/>
	<path class="st5" d="M277.5,197.5c-0.1,0-0.1,0-0.2,0c0,0,0,0,0,0c-0.4,0-0.7-0.1-1.1-0.1c-1.2-0.2-2.2-0.6-3.2-1.2
		c0,0,0,0-0.1-0.1c1.7,0.2,3.3-0.3,4.7-1.3c0,0,0,0,0,0c-0.6,0-1.2-0.2-1.7-0.6c-0.6-0.4-1-0.9-1.2-1.6c0,0,0-0.1,0-0.1
		c0.3,0.1,0.7,0.1,1,0c0.1,0,0.2,0,0.3-0.1c-0.7-0.2-1.4-0.5-1.8-1.1c-0.4-0.6-0.8-1.6-0.7-2c0.4,0.2,0.9,0.4,1.4,0.4
		c0,0,0,0-0.1-0.1c-0.4-0.3-0.8-0.7-1-1.2c-0.3-0.5-0.4-1.1-0.3-1.7c0-0.4,0.2-0.8,0.4-1.2c0,0,0,0,0.1,0c0.4,0.5,0.8,0.9,1.2,1.2
		c0.9,0.8,2,1.3,3.2,1.7c0.7,0.2,1.3,0.3,2,0.4c0.1,0,0.1,0,0.1-0.1c-0.1-0.4-0.1-0.8,0-1.2c0.1-0.7,0.5-1.4,1-1.8
		c0.8-0.7,1.7-0.9,2.6-0.7c0.7,0.1,1.2,0.4,1.7,0.9c0,0,0.1,0,0.1,0c0.6-0.1,1.1-0.3,1.6-0.6c0.1-0.1,0.2-0.1,0.3-0.2
		c-0.2,0.7-0.7,1.3-1.3,1.7c0.4-0.1,0.9-0.2,1.3-0.3c0.2-0.1,0.3-0.1,0.5-0.2c0,0,0,0,0,0c0,0,0,0,0,0c-0.4,0.6-0.9,1.1-1.5,1.5
		c0,0-0.1,0.1-0.1,0.1c0,0.5,0,1-0.1,1.5c-0.1,0.7-0.2,1.3-0.5,1.9c-0.6,1.5-1.4,2.9-2.7,3.9c-1.5,1.2-3.2,1.9-5.1,2
		c-0.1,0-0.2,0-0.3,0c-0.1,0-0.1,0-0.2,0c0,0,0,0,0,0C277.9,197.5,277.7,197.5,277.5,197.5C277.6,197.5,277.5,197.5,277.5,197.5z"/>
</g>
<g>
	<ellipse class="st1" cx="230.1" cy="350.1" rx="10" ry="2.8"/>
	<path class="st6" d="M249.3,302.4L249.3,302.4c0-0.4,0-0.8,0-1.2c0-10.6-8.6-19.2-19.2-19.2s-19.2,8.6-19.2,19.2c0,0.4,0,0.8,0,1.2
		c0,0,0,0.3,0.1,1.3c0.2,1.3,0.5,2.5,0.9,3.7c1.7,6,6.2,18.3,18.2,42.6c12.1-24.3,16.5-36.7,18.2-42.6c0.4-1.2,0.7-2.5,0.9-3.7
		C249.4,302.8,249.3,302.4,249.3,302.4z"/>
	<circle class="st3" cx="230.1" cy="301.3" r="14.3"/>
	<path class="st4" d="M249.4,301.3c0-10.6-8.6-19.2-19.2-19.2v4.9c7.9,0,14.3,6.4,14.3,14.3c0,7.9-6.4,14.3-14.3,14.3v34.5
		c12.1-24.3,16.5-36.7,18.2-42.6c0.4-1.2,0.7-2.5,0.9-3.7c0.1-0.9,0.1-1.3,0.1-1.3C249.4,302.1,249.4,301.7,249.4,301.3z"/>
	<path class="st6" d="M230.7,294.6c-3.6,0-5.5,2.6-5.5,4.8c0,1.3,0.5,2.5,1.6,2.9c0.2,0.1,0.3,0,0.4-0.2c0-0.1,0.1-0.5,0.2-0.6
		c0.1-0.2,0-0.3-0.1-0.4c-0.3-0.4-0.5-0.8-0.5-1.5c0-1.9,1.4-3.7,3.8-3.7c2.1,0,3.2,1.3,3.2,2.9c0,2.2-1,4.1-2.4,4.1
		c-0.8,0-1.4-0.7-1.2-1.5c0.2-1,0.7-2,0.7-2.7c0-0.6-0.3-1.1-1-1.1c-0.8,0-1.5,0.8-1.5,2c0,0.7,0.2,1.2,0.2,1.2s-0.8,3.5-1,4.2
		c-0.3,1.2,0,2.8,0,2.9c0,0.1,0.1,0.1,0.2,0c0.1-0.1,1-1.3,1.4-2.5c0.1-0.3,0.5-2.1,0.5-2.1c0.3,0.5,1,1,1.9,1
		c2.5,0,4.1-2.2,4.1-5.2C235.5,296.7,233.6,294.6,230.7,294.6z"/>
</g>
<g>
	<ellipse class="st1" cx="387.1" cy="185.3" rx="10" ry="2.8"/>
	<path class="st7" d="M406.2,137.7L406.2,137.7c0-0.4,0-0.8,0-1.2c0-10.6-8.6-19.2-19.2-19.2s-19.2,8.6-19.2,19.2c0,0.4,0,0.8,0,1.2
		c0,0,0,0.3,0.1,1.3c0.2,1.3,0.5,2.5,0.9,3.7c1.7,6,6.2,18.3,18.2,42.6c12.1-24.3,16.5-36.7,18.2-42.6c0.4-1.2,0.7-2.5,0.9-3.7
		C406.3,138,406.2,137.7,406.2,137.7z"/>
	<circle class="st3" cx="387.1" cy="136.5" r="14.3"/>
	<path class="st4" d="M406.3,136.5c0-10.6-8.6-19.2-19.2-19.2v4.9c7.9,0,14.3,6.4,14.3,14.3c0,7.9-6.4,14.3-14.3,14.3v34.5
		c12.1-24.3,16.5-36.7,18.2-42.6c0.4-1.2,0.7-2.5,0.9-3.7c0.1-0.9,0.1-1.3,0.1-1.3C406.3,137.3,406.3,136.9,406.3,136.5z"/>
	<path class="st8" d="M381.8,129.5h10.5c1,0,1.8,0.8,1.8,1.8v10.5c0,1-0.8,1.8-1.8,1.8h-10.5c-1,0-1.8-0.8-1.8-1.8v-10.5
		C380,130.3,380.8,129.5,381.8,129.5L381.8,129.5z M390.3,131c-0.3,0-0.6,0.3-0.6,0.6v1.5c0,0.3,0.3,0.6,0.6,0.6h1.6
		c0.3,0,0.6-0.3,0.6-0.6v-1.5c0-0.3-0.3-0.6-0.6-0.6H390.3L390.3,131z M392.5,135.4h-1.2c0.1,0.4,0.2,0.8,0.2,1.2
		c0,2.3-2,4.2-4.4,4.2s-4.4-1.9-4.4-4.2c0-0.4,0.1-0.8,0.2-1.2h-1.3v5.9c0,0.3,0.3,0.6,0.6,0.6h9.8c0.3,0,0.6-0.3,0.6-0.6V135.4
		L392.5,135.4z M387.1,133.7c-1.6,0-2.8,1.2-2.8,2.7c0,1.5,1.3,2.7,2.8,2.7c1.6,0,2.8-1.2,2.8-2.7
		C389.9,135,388.6,133.7,387.1,133.7z"/>
</g>
<g>
	<ellipse class="st1" cx="423.3" cy="295" rx="10" ry="2.8"/>
	<path class="st9" d="M442.5,247.3L442.5,247.3c0-0.4,0-0.8,0-1.2c0-10.6-8.6-19.2-19.2-19.2s-19.2,8.6-19.2,19.2c0,0.4,0,0.8,0,1.2
		c0,0,0,0.3,0.1,1.3c0.2,1.3,0.5,2.5,0.9,3.7c1.7,6,6.2,18.3,18.2,42.6c12.1-24.3,16.5-36.7,18.2-42.6c0.4-1.2,0.7-2.5,0.9-3.7
		C442.5,247.7,442.5,247.3,442.5,247.3z"/>
	<circle class="st3" cx="423.3" cy="246.2" r="14.3"/>
	<path class="st4" d="M442.5,246.2c0-10.6-8.6-19.2-19.2-19.2v4.9c7.9,0,14.3,6.4,14.3,14.3c0,7.9-6.4,14.3-14.3,14.3V295
		c12.1-24.3,16.5-36.7,18.2-42.6c0.4-1.2,0.7-2.5,0.9-3.7c0.1-0.9,0.1-1.3,0.1-1.3C442.5,246.9,442.5,246.5,442.5,246.2z"/>
	<g>
		<path class="st9" d="M415,245.2c0-2.7,2.5-5.1,5.2-5c1.3-0.1,2.5,0.5,3.5,1.3c-0.4,0.5-0.9,0.9-1.3,1.4c-1.2-0.8-2.9-1.1-4.1-0.1
			c-1.7,1.2-1.8,4-0.1,5.2c1.6,1.4,4.6,0.7,5-1.5c-1,0-2,0-3,0c0-0.6,0-1.2,0-1.8c1.7,0,3.3,0,5,0c0.1,1.4-0.1,2.9-0.9,4.1
			c-1.3,1.8-3.9,2.4-6,1.6C416.3,249.6,414.9,247.4,415,245.2z"/>
		<path class="st9" d="M428.5,243.2c0.5,0,1,0,1.5,0c0,0.5,0,1,0,1.5c0.5,0,1,0,1.5,0c0,0.5,0,1,0,1.5c-0.5,0-1,0-1.5,0
			c0,0.5,0,1,0,1.5c-0.5,0-1,0-1.5,0c0-0.5,0-1,0-1.5c-0.5,0-1,0-1.5,0c0-0.5,0-1,0-1.5c0.5,0,1,0,1.5,0
			C428.5,244.2,428.5,243.7,428.5,243.2z"/>
	</g>
</g>
<g>
	<ellipse class="st1" cx="73.7" cy="185.3" rx="10" ry="2.8"/>
	<path class="st10" d="M92.9,137.7L92.9,137.7c0-0.4,0-0.8,0-1.2c0-10.6-8.6-19.2-19.2-19.2s-19.2,8.6-19.2,19.2c0,0.4,0,0.8,0,1.2
		c0,0,0,0.3,0.1,1.3c0.2,1.3,0.5,2.5,0.9,3.7c1.7,6,6.2,18.3,18.2,42.6C85.8,161,90.3,148.6,92,142.7c0.4-1.2,0.7-2.5,0.9-3.7
		C93,138,92.9,137.7,92.9,137.7z"/>
	<circle class="st3" cx="73.7" cy="136.5" r="14.3"/>
	<path class="st4" d="M93,136.5c0-10.6-8.6-19.2-19.2-19.2v4.9c7.9,0,14.3,6.4,14.3,14.3c0,7.9-6.4,14.3-14.3,14.3v34.5
		C85.8,161,90.3,148.6,92,142.7c0.4-1.2,0.7-2.5,0.9-3.7c0.1-0.9,0.1-1.3,0.1-1.3C93,137.3,93,136.9,93,136.5z"/>
	<path class="st10" d="M81.1,138.9c0,1.4-1.1,2.5-2.5,2.5h-9.7c-1.4,0-2.5-1.1-2.5-2.5v-4.8c0-1.4,1.1-2.5,2.5-2.5h9.7
		c1.4,0,2.5,1.1,2.5,2.5V138.9z"/>
	<polygon class="st3" points="72,133.9 72,139.1 75.5,136.5 	"/>
</g>
<path class="st11" d="M431.1,75.5h-1.8v3.4c0,0.3-0.3,0.6-0.6,0.6s-0.6-0.3-0.6-0.6v-3.4h-1.8c-1.7,0-2.9-1.7-2.4-3.3l3.7-11.2
	c0.3-1,1.8-1,2.1,0l3.7,11.2C434,73.8,432.8,75.5,431.1,75.5z M496.4,289.4l-3.7-11.2c-0.3-1-1.8-1-2.1,0l-3.7,11.2
	c-0.5,1.6,0.7,3.3,2.4,3.3h1.8v3.4c0,0.3,0.3,0.6,0.6,0.6c0.3,0,0.6-0.3,0.6-0.6v-3.4h1.8C495.7,292.6,496.9,291,496.4,289.4z
	 M403,64.5l-3.7-11.2c-0.3-1-1.8-1-2.1,0l-3.7,11.2c-0.5,1.6,0.7,3.3,2.4,3.3h1.8v3.4c0,0.3,0.3,0.6,0.6,0.6s0.6-0.3,0.6-0.6v-3.4
	h1.8C402.3,67.8,403.5,66.1,403,64.5z M388.1,64.5l-3.7-11.2c-0.3-1-1.8-1-2.1,0l-3.7,11.2c-0.5,1.6,0.7,3.3,2.4,3.3h1.8v3.4
	c0,0.3,0.3,0.6,0.6,0.6c0.3,0,0.6-0.3,0.6-0.6v-3.4h1.8C387.4,67.8,388.6,66.1,388.1,64.5z M61.3,248.8h1.8v3.4
	c0,0.3,0.3,0.6,0.6,0.6c0.3,0,0.6-0.3,0.6-0.6v-3.4h1.8c1.7,0,2.9-1.7,2.4-3.3l-3.7-11.2c-0.3-1-1.8-1-2.1,0L59,245.6
	C58.4,247.2,59.6,248.8,61.3,248.8z M110.3,239.2h1.8v3.4c0,0.3,0.3,0.6,0.6,0.6c0.3,0,0.6-0.3,0.6-0.6v-3.4h1.8
	c1.7,0,2.9-1.7,2.4-3.3l-3.7-11.2c-0.3-1-1.8-1-2.1,0l-3.7,11.2C107.4,237.6,108.6,239.2,110.3,239.2z M125.2,239.2h1.8v3.4
	c0,0.3,0.3,0.6,0.6,0.6c0.3,0,0.6-0.3,0.6-0.6v-3.4h1.8c1.7,0,2.9-1.7,2.4-3.3l-3.7-11.2c-0.3-1-1.8-1-2.1,0l-3.7,11.2
	C122.3,237.6,123.5,239.2,125.2,239.2z"/>
</svg>
