<?xml version="1.0" encoding="utf-8"?>
<!-- Generator: Adobe Illustrator 19.2.0, SVG Export Plug-In . SVG Version: 6.00 Build 0)  -->
<svg version="1.1" id="Layer_1" xmlns="http://www.w3.org/2000/svg" xmlns:xlink="http://www.w3.org/1999/xlink" x="0px" y="0px"
	 viewBox="0 0 1417.3 1133.3" style="enable-background:new 0 0 1417.3 1133.3;" xml:space="preserve">
<style type="text/css">
	.st0{fill:#F5FAFD;}
	.st1{fill:#AAD7F1;}
	.st2{fill:#357DC0;}
	.st3{fill:#537CBE;}
	.st4{fill:#E94636;}
	.st5{fill:#F9BC15;}
	.st6{fill:#35AA52;}
	.st7{fill:#FFFFFF;}
	.st8{enable-background:new    ;}
	.st9{fill:#2860AB;}
	.st10{fill:#F2F1EF;}
	.st11{fill:#485865;}
	.st12{fill:#184276;}
	.st13{fill:#B5BBAE;}
	.st14{fill:#8EBF3F;}
	.st15{fill:#BFB79A;}
	.st16{fill:#E4DDD3;}
</style>
<g id="Layer_4">
	<path class="st0" d="M339.2,858c-29.6,0-53.3-23.7-53.3-53.3V66.2c0-29.6,23.7-53.3,53.3-53.3h738c29.6,0,53.3,23.7,53.3,53.3v738
		c0,29.6-23.7,53.3-53.3,53.3h-738V858z"/>
	<path class="st1" d="M1077.2,15.9c27.8,0,50.3,22.5,50.3,50.3l0,0v738c0,27.8-22.5,50.3-50.3,50.3l0,0h-738
		c-27.8,0-50.3-22.5-50.3-50.3l0,0v-738c0-27.8,22.5-50.3,50.3-50.3l0,0H1077.2 M1077.2,10h-738C308.4,10,283,35.4,283,66.2v738
		c0,30.8,25.4,56.2,56.2,56.2h738c30.8,0,56.2-25.4,56.2-56.2v-738C1133.4,35.4,1108.5,10,1077.2,10L1077.2,10z"/>
	<rect x="288.9" y="262.1" class="st2" width="838.6" height="167.5"/>
	<path class="st3" d="M564.7,92.9c-4.1,4.1-7.7,8.3-11.8,12.4c-1.2-1.2-2.4-1.8-3.6-3c-6.5-5.3-14.8-8.3-23.1-9.5
		c-23.7-3-45.6,12.4-50.3,36.1c-3.6,13.6,0,27.8,8.3,39.1c7.1,9.5,17.8,15.4,29.6,17.2s23.7-0.6,33.7-7.7c7.7-5.3,13-14.2,14.2-23.7
		c0-1.2,0-1.8,0.6-3c0-0.6,0-1.2-0.6-1.2h-39.1c-1.8,0-1.8,0-1.8-1.8v-13.6c0-0.6,0.6-1.8,1.2-1.8c0,0,0,0,0.6,0h55
		c0.6,0,1.8,0.6,1.8,1.2c0,0,0,0,0,0.6c1.8,13,0,26-5.9,37.3c-5.3,10.7-14.2,19.5-24.9,24.3c-22.5,10.7-48.5,7.7-68.1-7.1
		c-12.4-9.5-20.7-22.5-23.7-37.9c-3.6-14.8-1.2-30.8,7.1-43.8c7.7-14.2,21.3-24.9,36.7-29.6c6.5-2.4,13-3,19.5-3
		c14.2,0,28.4,4.1,39.6,13c1.2,1.2,2.4,2.4,4.1,3.6C564.7,91.7,565.3,92.3,564.7,92.9z"/>
	<path class="st3" d="M771.2,215.9c5.3-2.4,10.7-4.1,15.4-6.5c1.8,3,3.6,5.9,5.9,8.9c4.7,4.7,11.8,6.5,18.3,5.9
		c4.1-0.6,8.9-2.4,11.8-5.3c3.6-3.6,5.3-7.7,5.9-12.4c0.6-4.1,0.6-8.3,0.6-12.4h-0.6l-0.6,0.6c-4.7,5.3-11.2,8.3-18.3,8.9
		c-18.3,1.2-35.5-11.2-40.2-29c-1.2-4.1-1.8-8.9-1.8-13c0-18.3,12.4-34.9,30.8-39.1c9.5-3,18.9-0.6,26.6,5.3
		c1.2,1.2,2.4,2.4,4.1,3.6v-4.7c0-3-0.6-2.4,2.4-2.4h13c1.2,0,1.8,0,1.8,1.2v74c0.6,8.9-2.4,17.8-7.1,24.9
		c-5.3,8.3-14.2,13.6-23.7,14.8c-7.7,1.8-16,0.6-23.1-1.8c-7.7-3-13.6-8.3-18.3-14.8C773,220.1,772.4,217.7,771.2,215.9z
		 M808.5,186.9c6.5,0,13-3,17.2-8.3c3.6-4.1,5.3-9.5,5.3-14.8c0.6-5.3-0.6-11.2-3.6-16c-3.6-7.1-11.2-11.2-18.9-11.2
		c-7.7-0.6-15.4,3.6-18.9,10.7c-3.6,6.5-5.3,14.2-3.6,21.3C787.8,179.3,797.3,186.9,808.5,186.9z"/>
	<path class="st4" d="M628.6,120.7c21.9-0.6,40.2,16,41.4,37.9c0.6,8.3-1.2,17.2-5.3,24.3c-5.9,10.7-16.6,17.8-28.4,19.5
		c-10.7,1.8-21.3,0-30.2-5.9c-9.5-5.9-16-16-17.8-27.2c-3-14.2,2.4-28.4,13-37.9c5.3-5.3,12.4-8.3,20.1-9.5
		C623.3,121.3,626.2,121.3,628.6,120.7z M652.3,161.5c0-1.2-0.6-3-0.6-5.3c-1.8-10.1-10.1-18.3-20.1-19.5
		c-7.7-1.2-15.4,1.8-20.1,7.7c-5.9,7.1-8.3,16.6-5.3,25.4c4.1,12.4,17.2,18.9,29.6,15.4C645.8,181.6,652.3,172.1,652.3,161.5z"/>
	<path class="st5" d="M718,120.7c21.9-0.6,40.2,16,41.4,37.9c0.6,8.3-1.2,17.2-5.3,24.3c-5.9,10.7-16.6,17.8-28.4,19.5
		c-10.7,1.8-21.3,0-30.2-5.9c-9.5-5.9-16-16-17.8-27.2c-3-14.2,2.4-28.4,13-37.9c5.3-5.3,12.4-8.3,20.1-9.5
		C712.6,121.3,715,121.3,718,120.7z M741.6,161.5c0-1.2-0.6-3-0.6-5.3c-1.8-10.1-10.1-18.3-20.1-19.5c-7.7-1.2-15.4,1.8-20.1,7.7
		c-5.9,7.1-8.3,16.6-5.3,25.4c3,12.4,15.4,19.5,27.8,16.6c1.8-0.6,3.6-1.2,5.3-2.4C736.3,179.8,741.6,171,741.6,161.5z"/>
	<path class="st4" d="M960.6,151.4l-55,23.1c6.5,16.6,31.4,17.2,40.8,1.8c4.7,3,8.9,5.9,13.6,8.9c0,0.6,0,0.6-0.6,0.6l0,0
		c-6.5,8.9-16,14.8-26.6,16.6c-21.3,4.1-42-9.5-46.2-30.8c0,0,0,0,0-0.6c-2.4-11.2-0.6-22.5,5.3-32.5c5.3-10.1,15.4-16.6,26.6-17.2
		c14.8-2.4,29.6,5.3,36.7,18.3C957,143.2,957.6,147.3,960.6,151.4z M902.6,160.9c12.4-5.3,24.9-10.1,37.3-15.4
		c-0.6-0.6-0.6-1.2-1.2-1.8c-3.6-5.3-10.7-8.3-17.2-7.1c-9.5,1.8-16.6,8.9-18.9,17.8C901.4,156.8,901.4,158.5,902.6,160.9
		L902.6,160.9z"/>
	<path class="st6" d="M858.2,139.6V81c0-1.8,0-1.8,1.8-1.8h14.2c1.8,0,1.8,0,1.8,1.8v117.2c0,1.8,0,1.8-1.8,1.8H860
		c-0.6,0-1.8-0.6-1.8-1.2c0,0,0,0,0-0.6V139.6z"/>
	<path class="st7" d="M638.1,360.9h-26.6l-5.9,16.6h-8.9l24.3-63.3h7.1l24.3,63.3H644L638.1,360.9z M614.4,354.4h21.3l-10.7-29.6
		L614.4,354.4z"/>
	<path class="st7" d="M665.3,377.5v-63.3H683c5.3,0,10.1,1.2,14.8,3.6s8.3,5.9,10.1,10.7c2.4,4.7,3.6,10.1,3.6,15.4v4.1
		c0,5.3-1.2,10.7-3.6,15.4c-2.4,4.1-5.9,7.7-10.1,10.1c-4.7,2.4-9.5,3.6-14.8,3.6h-17.8C665.3,376.9,665.3,377.5,665.3,377.5z
		 M673.6,321.3V371h8.9c5.3,0.6,11.2-1.8,14.8-5.9c4.1-4.7,5.9-11.2,5.3-17.2v-4.1c0.6-5.9-1.2-11.8-5.3-16.6
		c-3.6-4.1-8.9-5.9-14.2-5.9H673.6z"/>
	<path class="st7" d="M741.6,357.4l1.2,8.3l1.8-7.7l12.4-43.8h7.1l12.4,43.8l1.8,7.7l1.2-8.3l10.1-43.2h8.3l-15.4,63.3h-7.7
		l-13-46.2l-1.2-4.7l-1.2,4.7l-13.6,46.2h-7.1l-15.4-63.3h8.3L741.6,357.4z"/>
	<path class="st7" d="M860,347.9c0,5.3-1.2,10.7-3,16c-1.8,4.1-4.7,8.3-8.9,10.7c-4.1,2.4-8.9,3.6-13.6,3.6s-8.9-1.2-13-3.6
		c-4.1-2.4-7.1-6.5-8.9-10.7c-2.4-5.3-3.6-10.7-3.6-16v-4.1c0-5.3,1.2-10.7,3-16c1.8-4.1,4.7-8.3,8.9-10.7s8.3-3.6,13-3.6
		c4.7,0,9.5,1.2,13.6,3.6c4.1,2.4,7.1,5.9,8.9,10.7c1.8,5.3,3,10.7,3,16v4.1H860z M851.7,343.8c0.6-5.9-1.2-11.8-4.7-17.2
		c-5.3-7.1-16-7.7-22.5-2.4c-0.6,0.6-1.8,1.2-2.4,2.4c-3.6,4.7-4.7,10.7-4.7,16.6v4.7c0,5.9,1.2,11.8,4.7,17.2
		c3,4.1,7.7,6.5,12.4,6.5c4.7,0.6,9.5-1.8,12.4-5.9c3.6-4.7,4.7-10.7,4.7-16.6C851.7,349.1,851.7,343.8,851.7,343.8z"/>
	<path class="st7" d="M900.8,352.1H886v25.4h-8.3v-63.3h20.7c5.9,0,11.8,1.2,16.6,4.7c4.1,3.6,5.9,8.9,5.9,14.2
		c0,3.6-1.2,7.1-3,10.1c-2.4,3-5.3,5.3-8.9,6.5l14.8,26.6v0.6H915L900.8,352.1z M886,345h13c3.6,0,7.1-1.2,10.1-3
		c2.4-2.4,3.6-5.3,3.6-8.9c0.6-3.6-1.2-6.5-3.6-8.9c-3-1.8-6.5-3-10.1-3h-13V345z"/>
	<path class="st7" d="M936.3,377.5v-63.3h17.8c5.3,0,10.1,1.2,14.8,3.6s8.3,5.9,10.1,10.7c2.4,4.7,3.6,10.1,3.6,15.4v4.1
		c0,5.3-1.2,10.7-3.6,15.4c-1.8,4.1-5.9,8.3-10.1,10.1c-4.7,2.4-9.5,3.6-14.8,3.6h-17.8C936.3,376.9,936.3,377.5,936.3,377.5z
		 M944.6,321.3V371h8.9c5.3,0.6,11.2-1.8,14.8-5.9c4.1-4.7,5.9-11.2,5.3-17.2v-4.1c0.6-5.9-1.2-11.8-5.3-16.6
		c-3.6-4.1-8.9-5.9-14.2-5.9H944.6z"/>
	<path class="st7" d="M1017.4,349.7c-5.9-1.2-11.2-3.6-15.4-7.7c-3-3-4.7-7.1-4.7-11.2c0-4.7,2.4-9.5,5.9-12.4
		c4.1-3.6,10.1-5.3,15.4-4.7c4.1,0,8.3,0.6,11.8,2.4c6.5,3,10.1,9.5,10.7,16.6h-8.3c0-3.6-1.2-6.5-3.6-8.9c-3-2.4-6.5-3.6-10.1-3.6
		c-3.6,0-6.5,1.2-9.5,3c-2.4,1.8-3.6,4.7-3.6,7.7c0,2.4,1.2,5.3,3.6,6.5c3.6,2.4,7.1,4.1,11.2,4.7c4.1,1.2,8.3,2.4,12.4,4.7
		c3,1.8,4.7,3.6,6.5,6.5c1.2,2.4,2.4,5.3,2.4,8.3c0.6,4.7-1.8,9.5-5.9,12.4c-4.7,3-10.1,4.7-16,4.7c-4.1,0-8.3-0.6-12.4-2.4
		c-3.6-1.8-6.5-4.1-8.9-7.1c-1.8-3-3-6.5-3-10.1h8.3c0,3.6,1.2,7.1,4.1,8.9c6.5,4.7,14.8,4.7,21.3,0.6c2.4-1.8,3.6-4.1,3.6-7.1
		s-1.2-5.3-3-7.1C1026.9,352.1,1022.1,350.3,1017.4,349.7z"/>
	<g>
		<g class="st8">
			<path class="st9" d="M427.4,592.3v37.9h-13v-97.1h35.5c10.7,0,18.9,3,24.9,8.3c5.9,5.3,8.9,12.4,8.9,21.3c0,9.5-3,16.6-8.9,21.9
				s-14.2,7.7-25.4,7.7H427.4z M427.4,581.7h23.1c7.1,0,11.8-1.8,16-4.7c3.6-3,5.3-7.7,5.3-14.2c0-5.9-1.8-10.7-5.3-13.6
				c-3.6-3-8.9-5.3-14.8-5.3H428v37.9H427.4z"/>
			<path class="st9" d="M536.3,591.1h-22.5v39.1h-13v-97.1h32c10.7,0,19.5,2.4,25.4,7.7c5.9,4.7,8.9,12.4,8.9,21.9
				c0,5.9-1.8,11.2-4.7,16s-7.7,7.7-13.6,10.1l22.5,40.8v0.6h-13.6L536.3,591.1z M513.2,580.5h19.5c6.5,0,11.2-1.8,15.4-4.7
				c3.6-3.6,5.3-7.7,5.3-13c0-5.9-1.8-10.7-5.3-13.6c-3.6-3-8.9-4.7-15.4-4.7h-19.5V580.5z"/>
			<path class="st9" d="M639.3,585.2h-42v34.3h48.5v10.7h-61.5v-97.1h61v10.7h-47.9v31.4h42V585.2z"/>
			<path class="st9" d="M678.3,533.1l31.4,78.7l31.4-78.7h16.6v97.1h-13v-37.9l1.2-40.8l-32,78.1h-10.1l-32-78.1l1.2,40.2v37.9
				h-11.2v-96.5H678.3z"/>
			<path class="st9" d="M794.3,630.2h-13v-97.1h13V630.2z"/>
			<path class="st9" d="M886,533.1v65.7c0,8.9-3,16.6-8.9,22.5s-13.6,8.9-23.1,10.1h-3.6c-10.7,0-18.9-3-25.4-8.3
				c-6.5-5.9-9.5-13.6-9.5-23.7v-66.3H828v65.7c0,7.1,1.8,12.4,5.9,16.6c4.1,4.1,9.5,5.9,16.6,5.9c7.1,0,13-1.8,16.6-5.9
				c3.6-4.1,5.9-9.5,5.9-16.6v-65.7H886z"/>
			<path class="st9" d="M922.1,533.1l31.4,78.7l31.4-78.7h16.6v97.1h-13v-37.9l1.2-40.8l-32,78.1h-10.1l-32-78.1l1.2,40.2v37.9h-13
				v-96.5H922.1z"/>
		</g>
		<g class="st8">
			<path class="st9" d="M497.8,728.4V758h-10.1v-75.7h27.8c8.3,0,14.8,2.4,19.5,6.5c4.7,4.1,7.1,10.1,7.1,16.6
				c0,7.1-2.4,13-7.1,17.2s-11.2,5.9-19.5,5.9H497.8z M497.8,720.1h17.8c5.3,0,9.5-1.2,12.4-3.6s4.1-5.9,4.1-10.7
				c0-4.7-1.2-8.3-4.1-10.7s-6.5-4.1-11.8-4.1h-18.3V720.1z"/>
		</g>
		<g class="st8">
			<path class="st9" d="M590.1,737.9h-32l-7.1,19.5H541l29-75.7h8.9l29,75.7h-10.1L590.1,737.9z M561.1,730.2h26l-13-35.5
				L561.1,730.2z"/>
		</g>
		<g class="st8">
			<path class="st9" d="M645.2,727.2h-17.8V758h-10.1v-75.7h24.9c8.3,0,15.4,1.8,19.5,5.9s7.1,9.5,7.1,17.2c0,4.7-1.2,8.9-3.6,12.4
				c-2.4,3.6-5.9,5.9-10.7,7.7l17.8,32v0.6h-10.7L645.2,727.2z M627.4,719h15.4c4.7,0,8.9-1.2,11.8-4.1c3-3,4.1-5.9,4.1-10.1
				c0-4.7-1.2-8.3-4.1-10.7c-3-2.4-7.1-3.6-11.8-3.6h-15.4V719z"/>
		</g>
		<g class="st8">
			<path class="st9" d="M731.6,690.6h-24.3V758h-10.1v-67.5H673v-8.3h58.6V690.6z"/>
			<path class="st9" d="M800.8,758h-10.1l-37.9-58.6V758h-10.1v-75.7h10.1l38.5,58.6v-58.6h10.1V758H800.8z"/>
			<path class="st9" d="M861.2,723.1h-32.5v26.6h37.9v8.3h-47.9v-75.7h47.3v8.3H828v24.3h32.5v8.3H861.2z"/>
			<path class="st9" d="M906.7,727.2H889V758h-10.1v-75.7h24.9c8.3,0,14.8,1.8,19.5,5.9s7.1,9.5,7.1,17.2c0,4.7-1.2,8.9-3.6,12.4
				c-2.4,3.6-5.9,5.9-10.7,7.7l17.8,32v0.6h-10.7L906.7,727.2z M889,719h15.4c4.7,0,8.9-1.2,11.8-4.1c3-3,4.1-5.9,4.1-10.1
				c0-4.7-1.2-8.3-4.1-10.7c-3-2.4-7.1-3.6-11.8-3.6H889V719z"/>
		</g>
	</g>
	<path class="st10" d="M410.8,434.3c-1.2,0-2.4-0.6-3.6-1.8c-11.8-14.2-23.1-29.6-33.1-45c-8.9-14.8-29.6-47.9-29.6-47.9
		c-0.6-1.2-0.6-2.4-0.6-3.6l3.6-14.2c0-1.2,1.2-2.4,2.4-3c0.6-0.6,84-45,152.7-61.5h1.2c1.2,0,3,0.6,3.6,1.8l46.8,70.4
		c0.6,1.2,0.6,1.8,0.6,3l-3,16c0,1.2-1.2,2.4-2.4,3c-0.6,0-49.1,24.9-74.6,40.8c-25.4,16-61,39.6-61,39.6
		C413.8,433.1,412.6,433.7,410.8,434.3z"/>
	<path class="st7" d="M503.1,262.1l46.8,70.4l-3,16c0,0-49.1,24.9-75.2,41.4c-26,16.6-61,39.6-61,39.6s-24.3-30.2-33.1-45
		c-8.9-14.8-29.6-47.9-29.6-47.9l3.6-14.2C351.6,323.1,433.9,278.7,503.1,262.1 M503.1,253.8H502c-69.2,16.6-150.3,59.8-153.3,61.5
		c-2.4,1.2-3.6,3-4.1,5.3l-3.6,14.2c-0.6,2.4,0,4.7,1.2,6.5c0,0.6,20.7,33.1,29.6,47.9c10.1,16,21.3,31.4,33.7,45.6
		c1.8,1.8,4.1,3,6.5,3c1.8,0,3.6-0.6,4.7-1.2c0.6,0,35.5-23.7,61-39.6c25.4-16,73.4-40.8,74-40.8c2.4-1.2,4.1-3.6,4.7-5.9l3-16
		c0.6-2.4,0-4.7-1.2-6.5l-46.8-70.4C509.7,255,506.7,253.8,503.1,253.8L503.1,253.8L503.1,253.8z"/>
	<path class="st10" d="M410.8,431.9c-0.6,0-1.2,0-1.8-0.6c-11.8-14.2-23.1-29.6-33.1-45c-8.9-14.8-29.6-47.9-29.6-47.9
		c-0.6-0.6-0.6-1.2,0-1.8l0,0l3.6-14.2c0-0.6,0.6-1.2,1.2-1.2c0.6-0.6,83.4-45,152.1-61h0.6c0.6,0,1.2,0.6,1.8,1.2l46.8,70.4
		c0.6,0.6,0.6,1.2,0.6,1.8l-3,16c0,0.6-0.6,1.2-1.2,1.8c-25.4,12.4-50.3,26.6-74.6,41.4c-25.4,16-61,39.6-61,39.6
		C412.6,431.9,412,431.9,410.8,431.9z"/>
	<path class="st11" d="M503.1,262.1l46.8,70.4l-3,16c0,0-49.1,24.9-75.2,41.4c-26,16.6-61,39.6-61,39.6s-24.3-30.2-33.1-45
		c-8.9-14.8-29.6-47.9-29.6-47.9l3.6-14.2C351.6,323.1,433.9,278.7,503.1,262.1 M503.1,258H502c-68.6,16.6-151.5,61-152.7,61.5
		c-1.2,0.6-1.8,1.8-2.4,3l-3.6,14.2c0,1.2,0,2.4,0.6,3.6c0,0.6,20.7,33.1,29.6,47.9c8.9,14.8,32.5,43.8,33.1,45
		c0.6,1.2,2.4,1.8,3.6,1.8c0.6,0,1.8,0,2.4-0.6c0.6,0,35.5-23.7,61-39.6c25.4-16,74-40.8,74.6-40.8c1.2-0.6,1.8-1.8,2.4-3l3-16
		c0-1.2,0-2.4-0.6-3l-46.8-70.4C505.5,258.5,504.3,258,503.1,258L503.1,258L503.1,258z"/>
	<path class="st10" d="M410.8,431.9c-0.6,0-1.2,0-1.8-0.6c-11.8-14.2-23.1-29.6-33.1-45c-8.9-14.8-29.6-47.9-29.6-47.9
		c-0.6-0.6-0.6-1.2,0-1.8l0,0l3.6-14.2c0-0.6,0.6-1.2,1.2-1.2c0.6-0.6,83.4-45,152.1-61h0.6c0.6,0,1.2,0.6,1.8,1.2l46.8,70.4
		c0.6,0.6,0.6,1.2,0.6,1.8l-3,16c0,0.6-0.6,1.2-1.2,1.8c-25.4,12.4-50.3,26.6-74.6,41.4c-25.4,16-61,39.6-61,39.6
		C412.6,431.9,412,431.9,410.8,431.9z"/>
	<path class="st11" d="M503.1,262.1l46.8,70.4l-3,16c0,0-49.1,24.9-75.2,41.4c-26,16.6-61,39.6-61,39.6s-24.3-30.2-33.1-45
		c-8.9-14.8-29.6-47.9-29.6-47.9l3.6-14.2C351.6,323.1,433.9,278.7,503.1,262.1 M503.1,258H502c-68.6,16.6-151.5,61-152.7,61.5
		c-1.2,0.6-1.8,1.8-2.4,3l-3.6,14.2c0,1.2,0,2.4,0.6,3.6c0,0.6,20.7,33.1,29.6,47.9c8.9,14.8,32.5,43.8,33.1,45
		c0.6,1.2,2.4,1.8,3.6,1.8c0.6,0,1.8,0,2.4-0.6c0.6,0,35.5-23.7,61-39.6c25.4-16,74-40.8,74.6-40.8c1.2-0.6,1.8-1.8,2.4-3l3-16
		c0-1.2,0-2.4-0.6-3l-46.8-70.4C505.5,258.5,504.3,258,503.1,258L503.1,258L503.1,258z"/>
	<path class="st12" d="M373,331.3c0,0,59.2-33.7,103-46.2l6.5,7.1l-104.7,47.3L373,331.3z"/>
	<polygon class="st13" points="384.8,350.3 389.5,357.4 508.5,301.2 504.9,295.8 	"/>
	<polygon class="st13" points="395.4,363.9 399,370.4 519.7,314.2 516.2,308.9 	"/>
	<polygon class="st14" points="406.1,378.1 408.5,387 472.4,353.8 469.4,348.5 	"/>
	<path class="st15" d="M410.8,413.6v16.6c0,0,52.7-35.5,76.9-49.7c24.3-14.2,59.2-31.4,59.2-31.4l3-16L410.8,413.6z"/>
	<polygon class="st16" points="351.6,323.1 410.8,413.6 410.8,429.6 384.8,395.8 374.7,380.5 348.1,337.3 	"/>
</g>
</svg>
