<svg id="Layer_1" data-name="Layer 1" xmlns="http://www.w3.org/2000/svg" viewBox="0 0 280.5 166"><title>mobile_browser</title><rect x="38.7" y="81" width="10.6" height="1" fill="#de4c36"/><path d="M278.6,34.1H2.1A1.69,1.69,0,0,0,.4,35.8v9.9H280.3V35.9A1.71,1.71,0,0,0,278.6,34.1Z" fill="#f9f9f9"/><rect x="0.3" y="45.8" width="279.9" height="20.9" fill="#f0f0f0"/><path d="M0.3,165.9V35.9A1.69,1.69,0,0,1,2,34.2H278.5a1.69,1.69,0,0,1,1.7,1.7V166" fill="none" stroke="#d9d9d9" stroke-miterlimit="10" stroke-width="0.6"/><line x1="0.3" y1="45.8" x2="280.3" y2="45.8" fill="none" stroke="#d9d9d9" stroke-miterlimit="10" stroke-width="0.6"/><line x1="0.3" y1="66.7" x2="280.3" y2="66.7" fill="none" stroke="#d9d9d9" stroke-miterlimit="10" stroke-width="0.6"/><line x1="0.3" y1="82" x2="280.3" y2="82" fill="none" stroke="#d9d9d9" stroke-miterlimit="10" stroke-width="0.6"/><rect x="40.2" y="72.9" width="7.1" height="2.4" fill="#f9dad6"/><rect x="57.1" y="72.9" width="10.9" height="2.4" fill="#f0f0f0"/><rect x="77.3" y="72.9" width="10.6" height="2.4" fill="#f0f0f0"/><rect x="97.2" y="72.9" width="14.2" height="2.4" fill="#f0f0f0"/><rect x="121" y="72.9" width="8.8" height="2.4" fill="#f0f0f0"/><rect x="139" y="72.9" width="8" height="2.4" fill="#f0f0f0"/><rect x="160" y="72.9" width="4.1" height="2.4" fill="#f0f0f0"/><polygon points="148.5 73.7 150.2 73.7 149.3 74.8 148.5 73.7" fill="#c6c6c5"/><rect x="37.5" y="93.5" width="97.5" height="4.4" fill="#e4ebf5"/><rect x="37.5" y="101" width="48.8" height="2.9" fill="#e5f1eb"/><rect x="37.5" y="129.2" width="97.5" height="4.4" fill="#e4ebf5"/><rect x="37.5" y="136.7" width="48.8" height="2.9" fill="#e5f1eb"/><rect x="37.5" y="107.2" width="140.3" height="2.9" fill="#edecec"/><rect x="37.5" y="113.3" width="144.4" height="2.9" fill="#edecec"/><rect x="37.5" y="143.9" width="73.8" height="2.9" fill="#e5f1eb"/><rect x="37.5" y="150" width="116.4" height="2.9" fill="#edecec"/><rect x="37.5" y="156.2" width="87.8" height="2.9" fill="#edecec"/><rect x="37.5" y="119.4" width="70.2" height="2.9" fill="#edecec"/><rect x="204.9" y="93.8" width="35.3" height="3.1" fill="#e5f1eb"/><rect x="204.9" y="99.5" width="45.4" height="3.1" fill="#edecec"/><rect x="204.9" y="105.2" width="35.3" height="3.1" fill="#edecec"/><rect x="204.9" y="128.1" width="35.3" height="3.1" fill="#e5f1eb"/><rect x="204.9" y="133.8" width="45.4" height="3.1" fill="#edecec"/><rect x="204.9" y="139.4" width="35.3" height="3.1" fill="#edecec"/><rect x="204.9" y="121.2" width="42.8" height="4.1" fill="#e4ebf5"/><rect x="37.4" y="52" width="163.7" height="8.5" fill="#fff" stroke="#d9d9d9" stroke-linecap="round" stroke-linejoin="round" stroke-width="0.6"/><path id="path2998" d="M12.5,55.4H9.2v1h2.4c-0.1,1.4-1.2,1.9-2.4,1.9a2.6,2.6,0,0,1,0-5.2,2.34,2.34,0,0,1,1.7.7l0.7-.7a3.43,3.43,0,0,0-2.4-1,3.6,3.6,0,1,0,.1,7.2,3.13,3.13,0,0,0,3.3-3.2,1.73,1.73,0,0,0-.1-0.7h0Z" fill="#537cbd"/><path id="path3000" d="M15.2,54.7A2.35,2.35,0,0,0,12.8,57a2.43,2.43,0,0,0,2.4,2.4,2.33,2.33,0,0,0,2.3-2.3,2.18,2.18,0,0,0-2.3-2.4h0Zm0.1,0.9a1.4,1.4,0,0,1,0,2.8A1.35,1.35,0,0,1,14,57a1.24,1.24,0,0,1,1.3-1.4h0Z" fill="#db3236"/><path id="path3005" d="M20.3,54.7A2.35,2.35,0,0,0,17.9,57a2.43,2.43,0,0,0,2.4,2.4,2.33,2.33,0,0,0,2.3-2.3,2.23,2.23,0,0,0-2.3-2.4h0Zm0,0.9a1.4,1.4,0,0,1,0,2.8,1.4,1.4,0,0,1,0-2.8h0Z" fill="#f3c10c"/><path id="path3007" d="M25.3,54.7a2.3,2.3,0,0,0,0,4.6,1.5,1.5,0,0,0,1.2-.5v0.4a1.18,1.18,0,0,1-1.2,1.3,1.4,1.4,0,0,1-1.2-.8l-0.9.3a2.25,2.25,0,0,0,2.1,1.4A2.16,2.16,0,0,0,27.5,59V54.8h-1v0.3a2.14,2.14,0,0,0-1.2-.4h0Zm0.1,0.9a1.42,1.42,0,0,1,0,2.8,1.4,1.4,0,0,1,0-2.8h0Z" fill="#537cbd"/><path id="path3011" d="M31.8,54.7a2.35,2.35,0,0,0,.1,4.7,2.11,2.11,0,0,0,1.9-1l-0.7-.5a1.22,1.22,0,0,1-1.1.6,1,1,0,0,1-1.1-.7L34,56.5l-0.2-.3a2.23,2.23,0,0,0-2-1.5h0Zm0,0.9a1.35,1.35,0,0,1,.9.5l-2.1.9a1.27,1.27,0,0,1,1.2-1.4h0Z" fill="#db3236"/><path id="path3015" d="M28.2,59.1h1V52.3h-1v6.8Z" fill="#4daf56"/><path d="M224.4,60.5H206.9a1.58,1.58,0,0,1-1.6-1.6V53.5a1.58,1.58,0,0,1,1.6-1.6h17.5a1.58,1.58,0,0,1,1.6,1.6v5.4A1.72,1.72,0,0,1,224.4,60.5Z" fill="#537cbd"/><circle cx="5.3" cy="40.2" r="1.7" fill="#fff" stroke="#d9d9d9" stroke-linecap="round" stroke-linejoin="round" stroke-width="0.6"/><circle cx="10.9" cy="40.2" r="1.7" fill="#fff" stroke="#d9d9d9" stroke-linecap="round" stroke-linejoin="round" stroke-width="0.6"/><circle cx="16.9" cy="40.2" r="1.7" fill="#fff" stroke="#d9d9d9" stroke-linecap="round" stroke-linejoin="round" stroke-width="0.6"/><circle cx="215.4" cy="55.8" r="1.3" fill="none" stroke="#fff" stroke-linecap="round" stroke-linejoin="round" stroke-width="0.6"/><line x1="216.9" y1="57.7" x2="216.1" y2="56.9" fill="none" stroke="#fff" stroke-linecap="round" stroke-linejoin="round" stroke-width="0.6"/><path d="M101.8,88.4a5.53,5.53,0,0,1-5.6-5.6V5.8A5.53,5.53,0,0,1,101.8.2h77a5.53,5.53,0,0,1,5.6,5.6v77a5.53,5.53,0,0,1-5.6,5.6h-77Z" fill="#f4f9fd"/><path d="M178.8,0.6A5.23,5.23,0,0,1,184,5.8v77a5.23,5.23,0,0,1-5.2,5.2h-77a5.23,5.23,0,0,1-5.2-5.2V5.8A5.23,5.23,0,0,1,101.8.6h77m0-.6h-77a5.91,5.91,0,0,0-5.9,5.9v77a5.91,5.91,0,0,0,5.9,5.9h77a5.91,5.91,0,0,0,5.9-5.9V5.9A5.91,5.91,0,0,0,178.8,0h0Z" fill="#a8d6f0"/><rect x="96.6" y="26.3" width="87.5" height="17.5" fill="#337cbf"/><path d="M125.3,8.6c-0.4.4-.8,0.9-1.2,1.3a0.85,0.85,0,0,1-.3-0.3,5.13,5.13,0,0,0-2.4-1,4.72,4.72,0,0,0-5.2,3.8,4.65,4.65,0,0,0,.9,4.1,4.35,4.35,0,0,0,3.1,1.8,4.73,4.73,0,0,0,3.6-.8,3.47,3.47,0,0,0,1.5-2.4V14.8c0-.1,0-0.1-0.1-0.1h-4.1c-0.2,0-.2,0-0.2-0.2V13.1a0.16,0.16,0,0,1,.2-0.2h5.8c0.2,0,.2,0,0.2.2a6.47,6.47,0,0,1-.6,3.9,5.5,5.5,0,0,1-2.5,2.5,7.94,7.94,0,0,1-2.2.6,7.42,7.42,0,0,1-5-1.3,7.15,7.15,0,0,1-2.5-3.9,6.39,6.39,0,0,1,.7-4.5,7.25,7.25,0,0,1,3.8-3.1,6.45,6.45,0,0,1,2-.3,6.19,6.19,0,0,1,4.1,1.4c0.2-.1.3,0,0.4,0.2h0Z" fill="#517bbc"/><path d="M146.9,21.4c0.5-.3,1-0.4,1.6-0.7a4.7,4.7,0,0,0,.6.9,2.21,2.21,0,0,0,1.9.6,4.33,4.33,0,0,0,1.2-.5,2,2,0,0,0,.6-1.3c0.1-.4,0-0.9.1-1.3h0a0.1,0.1,0,0,0-.1.1,2.75,2.75,0,0,1-1.9,1,4.06,4.06,0,0,1-4.2-3,5.85,5.85,0,0,1-.2-1.3,4.41,4.41,0,0,1,3.2-4.1,3.15,3.15,0,0,1,2.8.5,4,4,0,0,0,.4.3V12.2c0-.3,0-0.3.3-0.3h1.3a0.16,0.16,0,0,1,.2.2v7.7a4.62,4.62,0,0,1-.7,2.6,3.6,3.6,0,0,1-2.4,1.6,3.91,3.91,0,0,1-2.4-.2,4.21,4.21,0,0,1-1.9-1.6A1.52,1.52,0,0,1,146.9,21.4Zm3.8-2.9a1.85,1.85,0,0,0,1.7-.9,2.69,2.69,0,0,0,.5-1.5,3.42,3.42,0,0,0-.3-1.7,2,2,0,0,0-1.9-1.2,2.19,2.19,0,0,0-2,1.1,2.82,2.82,0,0,0-.3,2.2A2.49,2.49,0,0,0,150.7,18.5Z" fill="#517bbc"/><path d="M132,11.6a4.37,4.37,0,0,1,3.7,2,6,6,0,0,1,.6,1.9,4.34,4.34,0,0,1-.5,2.5,4.45,4.45,0,0,1-6.1,1.4,4,4,0,0,1-1.8-2.9,4,4,0,0,1,1.3-3.9,4.12,4.12,0,0,1,2.1-1H132Zm2.4,4.2a0.9,0.9,0,0,0-.1-0.5,2.42,2.42,0,0,0-4.2-1.2,2.52,2.52,0,0,0-.5,2.6A2.45,2.45,0,0,0,134.4,15.8Z" fill="#e74335"/><path d="M141.3,11.6a4.37,4.37,0,0,1,3.7,2,6,6,0,0,1,.6,1.9,4.34,4.34,0,0,1-.5,2.5,4.45,4.45,0,0,1-6.1,1.4,4,4,0,0,1-1.8-2.9,4,4,0,0,1,1.3-3.9,4.12,4.12,0,0,1,2.1-1h0.7Zm2.5,4.2a0.9,0.9,0,0,0-.1-0.5,2.42,2.42,0,0,0-4.2-1.2,2.52,2.52,0,0,0-.5,2.6,2.45,2.45,0,0,0,3.5,1.5A2.81,2.81,0,0,0,143.8,15.8Z" fill="#fabb09"/><path d="M166.5,14.7c-1.9.8-3.8,1.6-5.8,2.4a2.4,2.4,0,0,0,4.2.2,12.13,12.13,0,0,1,1.4,1v0.1a3.84,3.84,0,0,1-2.8,1.7,4.1,4.1,0,0,1-4.8-3.2,4.09,4.09,0,0,1,.6-3.4,3.29,3.29,0,0,1,2.8-1.7,3.62,3.62,0,0,1,3.8,1.9A1.7,1.7,0,0,1,166.5,14.7Zm-6,1.1a25.9,25.9,0,0,0,3.8-1.7,0.35,0.35,0,0,0-.1-0.2,1.53,1.53,0,0,0-1.7-.7,2.35,2.35,0,0,0-1.9,1.8A2.2,2.2,0,0,0,160.5,15.8Z" fill="#e74335"/><path d="M156,13.6V7.5c0-.2,0-0.2.2-0.2h1.5c0.2,0,.2,0,0.2.2V19.7c0,0.2,0,.2-0.2.2h-1.5a0.16,0.16,0,0,1-.2-0.2V13.6Z" fill="#33a853"/><path d="M133,36.6h-2.8l-0.6,1.7h-0.9l2.5-6.6H132l2.5,6.6h-0.9Zm-2.5-.7h2.3l-1.1-3.1Z" fill="#fff"/><path d="M135.9,38.3V31.7h1.8a3.65,3.65,0,0,1,1.5.3,3.18,3.18,0,0,1,1,1,3.81,3.81,0,0,1,.3,1.6V35a5.08,5.08,0,0,1-.3,1.7,3.18,3.18,0,0,1-1,1,2.71,2.71,0,0,1-1.6.3l-1.7.3h0Zm0.9-5.8v5.2h0.9a2.11,2.11,0,0,0,1.6-.6,2.86,2.86,0,0,0,.5-1.7V35.1a2.65,2.65,0,0,0-.5-1.7,1.89,1.89,0,0,0-1.5-.6l-1-.3h0Z" fill="#fff"/><path d="M143.9,36.2l0.1,0.9,0.2-.8,1.3-4.6h0.7l1.3,4.6,0.2,0.8,0.2-.9,1-4.5h0.9l-1.6,6.6h-0.8L146,33.5l-0.1-.5-0.1.5-1.4,4.8h-0.9l-1.6-6.6h0.9Z" fill="#fff"/><path d="M156.1,35.3a4.67,4.67,0,0,1-.3,1.7,2.13,2.13,0,0,1-1,1.1,3.53,3.53,0,0,1-1.4.3,3.19,3.19,0,0,1-1.4-.3,4.74,4.74,0,0,1-1-1,2.89,2.89,0,0,1-.3-1.7V35a4.67,4.67,0,0,1,.3-1.7,2.66,2.66,0,0,1,1-1.1,2.23,2.23,0,0,1,1.4-.3,3.19,3.19,0,0,1,1.4.3,3.57,3.57,0,0,1,1,1.1,4.31,4.31,0,0,1,.3,1.7v0.3Zm-0.7-.5A4,4,0,0,0,155,33a1.71,1.71,0,0,0-2.6,0,3.8,3.8,0,0,0-.5,1.7v0.5a3.53,3.53,0,0,0,.4,1.7,1.71,1.71,0,0,0,2.6,0,2.86,2.86,0,0,0,.4-1.7l0.1-.4h0Z" fill="#fff"/><path d="M160.3,35.7h-1.6v2.6h-0.9V31.7H160a2.86,2.86,0,0,1,1.7.5,1.75,1.75,0,0,1,.6,1.5,1.49,1.49,0,0,1-.3,1,2.55,2.55,0,0,1-1,.7l1.6,2.8v0.1h-1Zm-1.5-.8h1.3a1.49,1.49,0,0,0,1-.3,1.22,1.22,0,0,0,.3-0.9,1.69,1.69,0,0,0-.3-1,1.21,1.21,0,0,0-1-.3h-1.3v2.5Z" fill="#fff"/><path d="M164.1,38.3V31.7h1.8a3.65,3.65,0,0,1,1.5.3,2,2,0,0,1,1,1,3.81,3.81,0,0,1,.3,1.6V35a5.08,5.08,0,0,1-.3,1.7,3.18,3.18,0,0,1-1,1,3.81,3.81,0,0,1-1.6.3l-1.7.3h0Zm0.9-5.8v5.2h0.9a2.11,2.11,0,0,0,1.6-.6,2.86,2.86,0,0,0,.5-1.7V35.1a2.65,2.65,0,0,0-.5-1.7,1.89,1.89,0,0,0-1.5-.6l-1-.3h0Z" fill="#fff"/><path d="M172.6,35.4a3.38,3.38,0,0,1-1.7-.8,1.59,1.59,0,0,1,.1-2.4,2.77,2.77,0,0,1,1.6-.5,2.38,2.38,0,0,1,1.2.3,2.7,2.7,0,0,1,.8.7,1.69,1.69,0,0,1,.3,1H174a1.69,1.69,0,0,0-.3-1,1.21,1.21,0,0,0-1-.3,1.49,1.49,0,0,0-1,.3,0.76,0.76,0,0,0-.3.8,0.91,0.91,0,0,0,.3.7,5.82,5.82,0,0,0,1.1.5,8.93,8.93,0,0,1,1.3.5,4.35,4.35,0,0,1,.7.6,1.4,1.4,0,0,1,.3.9,1.61,1.61,0,0,1-.6,1.3,2.86,2.86,0,0,1-1.7.5,2.38,2.38,0,0,1-1.2-.3,3.11,3.11,0,0,1-.9-0.7,1.69,1.69,0,0,1-.3-1h0.9a1.78,1.78,0,0,0,.4,1,1.32,1.32,0,0,0,1.1.3,1.49,1.49,0,0,0,1-.3,1,1,0,0,0,.3-0.8,1.14,1.14,0,0,0-.3-0.8A2.7,2.7,0,0,0,172.6,35.4Z" fill="#fff"/><path d="M108.9,60.7v3.9h-1.3V54.5h3.8a3.57,3.57,0,0,1,2.6.9,2.93,2.93,0,0,1,1,2.3,3,3,0,0,1-.9,2.3,4,4,0,0,1-2.6.8l-2.6-.1h0Zm0-1.1h2.4a3.1,3.1,0,0,0,1.7-.5,2.07,2.07,0,0,0,.5-1.5,2.69,2.69,0,0,0-.5-1.5,2.35,2.35,0,0,0-1.6-.5H109C108.9,55.6,108.9,59.6,108.9,59.6Z" fill="#245ea8"/><path d="M121,60.5h-2.4v4.1h-1.3V54.5h3.3a4,4,0,0,1,2.6.8,2.87,2.87,0,0,1,.9,2.3,3.69,3.69,0,0,1-.5,1.7,2.43,2.43,0,0,1-1.4,1l2.4,4.3v0.1h-1.4Zm-2.4-1h2a2.54,2.54,0,0,0,1.6-.5,2,2,0,0,0,.6-1.4,2,2,0,0,0-.5-1.4,2.35,2.35,0,0,0-1.6-.5h-2l-0.1,3.8h0Z" fill="#245ea8"/><path d="M132.4,60H128v3.6h5.1v1h-6.4V54.5h6.4v1h-5v3.2h4.4L132.4,60h0Z" fill="#245ea8"/><path d="M137.2,54.6l3.3,8.2,3.3-8.2h1.7V64.7h-1.3V60.8l0.1-4.2L141,64.7h-1l-3.3-8.1,0.2,4.2v3.9h-1.3V54.6h1.6Z" fill="#245ea8"/><path d="M150,64.7h-1.3V54.6H150V64.7Z" fill="#245ea8"/><path d="M160.3,54.6v6.8a3.41,3.41,0,0,1-.9,2.4,3.31,3.31,0,0,1-2.4,1h-0.3a3.57,3.57,0,0,1-2.6-.9,3,3,0,0,1-1-2.4V54.6h1.3v6.8a2.09,2.09,0,0,0,2.3,2.3,2.2,2.2,0,0,0,1.7-.6,2.35,2.35,0,0,0,.6-1.7V54.6h1.3Z" fill="#245ea8"/><path d="M164.8,54.6l3.3,8.2,3.3-8.2h1.7V64.7h-1.3V60.8l0.1-4.2-3.3,8.1h-1l-3.3-8.1,0.2,4.2v3.9h-1.3V54.6h1.6Z" fill="#245ea8"/><path d="M116.9,74.9V78h-1V70.1h2.9a2.82,2.82,0,0,1,2,.7,2.06,2.06,0,0,1,.7,1.7,2.09,2.09,0,0,1-.7,1.7,2.93,2.93,0,0,1-2.1.6h-1.8v0.1Zm0-.9h1.8a2.5,2.5,0,0,0,1.3-.4,1.37,1.37,0,0,0,.4-1.1,1.82,1.82,0,0,0-.4-1.1,1.9,1.9,0,0,0-1.2-.4h-1.9v3h0Z" fill="#245ea8"/><path d="M126.9,75.9h-3.3L122.9,78h-1l3-7.9h0.9l3.1,7.9h-1Zm-3-.8h2.7l-1.3-3.7Z" fill="#245ea8"/><path d="M133.3,74.8h-1.8V78h-1V70.1H133a2.81,2.81,0,0,1,2,.6,2.41,2.41,0,0,1,.7,1.7,2.5,2.5,0,0,1-.4,1.3,3.13,3.13,0,0,1-1.1.8l1.8,3.3v0.1h-1.1Zm-1.8-.9H133a1.9,1.9,0,0,0,1.2-.4,1.28,1.28,0,0,0,.4-1,1.6,1.6,0,0,0-.4-1.1A2.78,2.78,0,0,0,133,71h-1.6v2.9h0.1Z" fill="#245ea8"/><path d="M142.8,71h-2.5v7.1h-1V71h-2.5V70.1h6.1l-0.1.9h0Z" fill="#245ea8"/><path d="M150.6,78h-1l-3.9-6.1V78h-1V70.1h1l4,6.1V70.1h1L150.6,78h0Z" fill="#245ea8"/><path d="M157.5,74.4H154v2.8h4v0.9h-5V70.2h5v0.9h-4v2.4h3.4v0.9h0.1Z" fill="#245ea8"/><path d="M162.8,74.8H161V78h-1V70.1h2.6a2.81,2.81,0,0,1,2,.6,2.41,2.41,0,0,1,.7,1.7,2.5,2.5,0,0,1-.4,1.3,3.13,3.13,0,0,1-1.1.8l1.8,3.3v0.1h-1Zm-1.9-.9h1.6a1.9,1.9,0,0,0,1.2-.4,1.28,1.28,0,0,0,.4-1,1.6,1.6,0,0,0-.4-1.1,2.78,2.78,0,0,0-1.2-.4h-1.6v2.9Z" fill="#245ea8"/><path d="M109.3,44.2A0.34,0.34,0,0,1,109,44c-0.1-.1-2.5-3.1-3.5-4.7s-3.1-5-3.1-5a0.49,0.49,0,0,1-.1-0.3l0.3-1.5a0.32,0.32,0,0,1,.3-0.3,82.31,82.31,0,0,1,15.9-6.4H119a0.25,0.25,0,0,1,.3.2l4.9,7.3a0.37,0.37,0,0,1,.1.3L124,35.4a0.27,0.27,0,0,1-.3.3,87.87,87.87,0,0,0-7.8,4.3c-2.7,1.7-6.4,4.2-6.4,4.2h-0.2Z" fill="#f0f0ee"/><path d="M119,26.3l4.9,7.3-0.3,1.7s-5.2,2.6-7.8,4.3l-6.4,4.2s-2.5-3.1-3.4-4.6-3.1-5-3.1-5l0.3-1.5A69.22,69.22,0,0,1,119,26.3m0-.9h-0.2a69.86,69.86,0,0,0-16,6.5,0.68,0.68,0,0,0-.4.6L102.1,34a0.82,0.82,0,0,0,.1.7s2.2,3.5,3.1,5,3.4,4.6,3.5,4.7a0.91,0.91,0,0,0,.7.3,1.06,1.06,0,0,0,.5-0.2s3.8-2.4,6.4-4.1,7.7-4.2,7.7-4.3a0.55,0.55,0,0,0,.4-0.6l0.3-1.7a0.64,0.64,0,0,0-.2-0.6l-4.9-7.3a1,1,0,0,0-.7-0.5h0Z" fill="#fff"/><path d="M109.3,44a0.2,0.2,0,0,1-.2-0.1c-0.1-.1-2.5-3.1-3.5-4.7s-3.1-5-3.1-5V34l0.3-1.5c0-.1.1-0.1,0.1-0.2a83.24,83.24,0,0,1,15.8-6.4h0.1c0.1,0,.2,0,0.2.1l4.9,7.3c0,0.1.1,0.1,0,.2l-0.1,1.8c0,0.1-.1.1-0.1,0.2a87.87,87.87,0,0,0-7.8,4.3c-2.7,1.7-6.4,4.2-6.4,4.2h-0.2Z" fill="#f0f0ee"/><path d="M119,26.3l4.9,7.3-0.3,1.7s-5.2,2.6-7.8,4.3l-6.4,4.2s-2.5-3.1-3.4-4.6-3.1-5-3.1-5l0.3-1.5A69.22,69.22,0,0,1,119,26.3m0-.5h0c-7.3,1.7-15.9,6.4-16,6.4l-0.3.3L102.4,34c0,0.1,0,.3.1,0.3s2.2,3.5,3.1,5,3.4,4.5,3.5,4.7a0.53,0.53,0,0,0,.3.2,0.37,0.37,0,0,0,.3-0.1s3.8-2.4,6.4-4.2a87.87,87.87,0,0,1,7.8-4.3l0.3-.3,0.3-1.7c0-.1,0-0.3-0.1-0.3L119.5,26a4.71,4.71,0,0,0-.5-0.2h0Z" fill="#475663"/><path d="M109.3,44a0.2,0.2,0,0,1-.2-0.1c-0.1-.1-2.5-3.1-3.5-4.7s-3.1-5-3.1-5V34l0.3-1.5c0-.1.1-0.1,0.1-0.2a83.24,83.24,0,0,1,15.8-6.4h0.1c0.1,0,.2,0,0.2.1l4.9,7.3c0,0.1.1,0.1,0,.2l-0.1,1.8c0,0.1-.1.1-0.1,0.2a87.87,87.87,0,0,0-7.8,4.3c-2.7,1.7-6.4,4.2-6.4,4.2h-0.2Z" fill="#f0f0ee"/><path d="M119,26.3l4.9,7.3-0.3,1.7s-5.2,2.6-7.8,4.3l-6.4,4.2s-2.5-3.1-3.4-4.6-3.1-5-3.1-5l0.3-1.5A69.22,69.22,0,0,1,119,26.3m0-.5h0c-7.3,1.7-15.9,6.4-16,6.4l-0.3.3L102.4,34c0,0.1,0,.3.1,0.3s2.2,3.5,3.1,5,3.4,4.5,3.5,4.7a0.53,0.53,0,0,0,.3.2,0.37,0.37,0,0,0,.3-0.1s3.8-2.4,6.4-4.2a87.87,87.87,0,0,1,7.8-4.3l0.3-.3,0.3-1.7c0-.1,0-0.3-0.1-0.3L119.5,26a4.71,4.71,0,0,0-.5-0.2h0Z" fill="#475663"/><path d="M105.4,33.5a58.7,58.7,0,0,1,10.8-4.8l0.7,0.8-10.9,5Z" fill="#154176"/><polygon points="106.6 35.5 107.1 36.2 119.6 30.4 119.1 29.8 106.6 35.5" fill="#b2baac"/><polygon points="107.7 36.8 108.1 37.5 120.7 31.8 120.3 31.2 107.7 36.8" fill="#b2baac"/><polygon points="108.7 38.4 109.1 39.3 115.7 35.9 115.4 35.4 108.7 38.4" fill="#8dbe2d"/><path d="M109.3,42.1v1.7s5.5-3.7,8-5.2,6.1-3.3,6.1-3.3l0.3-1.7Z" fill="#beb598"/><polygon points="103.1 32.6 109.3 42.1 109.3 43.7 106.6 40.2 105.6 38.6 102.8 34.1 103.1 32.6" fill="#e3dbd2"/></svg>