<?xml version="1.0" encoding="utf-8"?>
<!-- Generator: Adobe Illustrator 19.1.0, SVG Export Plug-In . SVG Version: 6.00 Build 0)  -->
<svg version="1.1" id="Layer_1" xmlns="http://www.w3.org/2000/svg" xmlns:xlink="http://www.w3.org/1999/xlink" x="0px" y="0px"
	 viewBox="0 0 240.8 130" style="enable-background:new 0 0 240.8 130;" xml:space="preserve">
<style type="text/css">
	.st0{fill:#464B5C;}
	.st1{fill:#FFFFFF;}
	.st2{fill:#547DBE;}
	.st3{fill:#4EB056;}
	.st4{fill:#999999;}
	.st5{fill:#E5EBF5;}
	.st6{fill:#E6F2EC;}
	.st7{fill:#EEEDED;}
	.st8{fill:#FFFFFF;stroke:#DADADA;stroke-width:0.3739;stroke-linecap:round;stroke-linejoin:round;stroke-miterlimit:10;}
	.st9{fill:#F0F0F0;}
	.st10{fill:#FADBD7;}
	.st11{fill:#C6C6C6;}
	.st12{fill:#DC3336;}
	.st13{fill:#F4C30F;}
	.st14{fill:none;stroke:#F0F0F0;stroke-width:0.6771;stroke-miterlimit:10;}
	.st15{opacity:0.6;}
	.st16{fill:#C8C9D2;}
	.st17{fill:#ABADB4;}
</style>
<g id="Macbook">
	<g>
		<g>
			<path class="st0" d="M216.2,124.1c0,2.6-2.1,4.6-4.7,4.6H28.9c-2.6,0-4.7-2.1-4.7-4.6V4.7c0-2.6,2.1-4.7,4.7-4.7h182.6
				c2.6,0,4.7,2.1,4.7,4.7V124.1z"/>
			<rect x="32.6" y="7.9" class="st1" width="175.3" height="110.5"/>
			<g>
				<g>
					<rect x="57.5" y="46.6" class="st2" width="61.1" height="2.7"/>
					<rect x="57.5" y="51.3" class="st3" width="30.5" height="1.8"/>
					<rect x="57.5" y="55.1" class="st4" width="87.8" height="1.8"/>
					<rect x="57.5" y="59" class="st4" width="90.4" height="1.8"/>
					<rect x="57.5" y="62.8" class="st4" width="43.9" height="1.8"/>
				</g>
				<g>
					<rect x="57.5" y="73.4" class="st5" width="61.1" height="2.7"/>
					<rect x="57.5" y="78.1" class="st6" width="30.5" height="1.8"/>
					<rect x="57.5" y="81.9" class="st7" width="87.8" height="1.8"/>
					<rect x="57.5" y="85.7" class="st7" width="90.4" height="1.8"/>
					<rect x="57.5" y="89.6" class="st7" width="43.9" height="1.8"/>
				</g>
				<g>
					<rect x="57.5" y="97.5" class="st5" width="61.1" height="2.7"/>
					<rect x="57.5" y="102.2" class="st6" width="30.5" height="1.8"/>
					<rect x="57.5" y="106" class="st7" width="87.8" height="1.8"/>
					<rect x="57.5" y="109.8" class="st7" width="68.5" height="1.8"/>
				</g>
				<g>
					<rect x="160.7" y="44.6" class="st6" width="22.1" height="2"/>
					<rect x="160.7" y="48.2" class="st7" width="28.4" height="2"/>
					<rect x="160.7" y="51.8" class="st7" width="22.1" height="2"/>
				</g>
				<g>
					<rect x="160.7" y="66.1" class="st6" width="22.1" height="2"/>
					<rect x="160.7" y="69.6" class="st7" width="28.4" height="2"/>
					<rect x="160.7" y="73.2" class="st7" width="22.1" height="2"/>
					<rect x="160.7" y="61.7" class="st5" width="26.8" height="2.6"/>
				</g>
				<g>
					<g>
						<circle class="st8" cx="35.7" cy="11.7" r="1"/>
						<circle class="st8" cx="39.2" cy="11.7" r="1"/>
						<circle class="st8" cx="42.9" cy="11.7" r="1"/>
					</g>
					<g>
						<rect x="32.6" y="15.2" class="st9" width="175.3" height="13.1"/>
						<g>
							<rect x="57.5" y="32.2" class="st10" width="4.4" height="1.5"/>
							<rect x="68.1" y="32.2" class="st9" width="6.8" height="1.5"/>
							<rect x="80.8" y="32.2" class="st9" width="6.6" height="1.5"/>
							<rect x="93.2" y="32.2" class="st9" width="8.9" height="1.5"/>
							<rect x="108.1" y="32.2" class="st9" width="5.5" height="1.5"/>
							<rect x="119.4" y="32.2" class="st9" width="5" height="1.5"/>
							<rect x="132.5" y="32.2" class="st9" width="2.6" height="1.5"/>
							<polygon class="st11" points="125.4,32.7 126.4,32.7 125.9,33.3 							"/>
						</g>
						<g>
							<path id="path2998" class="st2" d="M40.2,21.2h-2.1v0.6h1.5c-0.1,0.9-0.8,1.2-1.5,1.2c-0.9,0-1.6-0.7-1.6-1.6
								c0-0.9,0.7-1.6,1.6-1.6c0.7,0,1.1,0.4,1.1,0.4l0.4-0.4c0,0-0.6-0.6-1.6-0.6c-1.3,0-2.3,1.1-2.3,2.2c0,1.1,0.9,2.3,2.3,2.3
								c1.2,0,2.1-0.8,2.1-2C40.3,21.3,40.2,21.2,40.2,21.2L40.2,21.2z"/>
							<path id="path3000" class="st12" d="M41.9,20.7c-0.8,0-1.5,0.7-1.5,1.4c0,0.8,0.6,1.5,1.5,1.5c0.8,0,1.4-0.6,1.4-1.4
								C43.4,21.2,42.6,20.7,41.9,20.7L41.9,20.7z M41.9,21.3c0.4,0,0.8,0.3,0.8,0.9c0,0.5-0.4,0.9-0.8,0.9c-0.5,0-0.8-0.4-0.8-0.9
								C41.1,21.7,41.5,21.3,41.9,21.3L41.9,21.3z"/>
							<path id="path3005" class="st13" d="M45.1,20.7c-0.8,0-1.5,0.7-1.5,1.4c0,0.8,0.6,1.5,1.5,1.5c0.8,0,1.4-0.6,1.4-1.4
								C46.5,21.2,45.8,20.7,45.1,20.7L45.1,20.7z M45.1,21.3c0.4,0,0.8,0.3,0.8,0.9c0,0.5-0.4,0.9-0.8,0.9c-0.5,0-0.8-0.4-0.8-0.9
								C44.3,21.7,44.6,21.3,45.1,21.3L45.1,21.3z"/>
							<path id="path3007" class="st2" d="M48.2,20.7c-0.8,0-1.4,0.7-1.4,1.4c0,0.9,0.7,1.4,1.4,1.4c0.4,0,0.6-0.2,0.8-0.4v0.3
								c0,0.5-0.3,0.8-0.8,0.8c-0.4,0-0.7-0.3-0.7-0.5l-0.6,0.2c0.2,0.4,0.6,0.9,1.3,0.9c0.8,0,1.4-0.5,1.4-1.5v-2.6H49v0.2
								C48.8,20.9,48.5,20.7,48.2,20.7L48.2,20.7z M48.2,21.3c0.4,0,0.8,0.3,0.8,0.9c0,0.6-0.4,0.9-0.8,0.9c-0.4,0-0.8-0.3-0.8-0.9
								C47.4,21.6,47.8,21.3,48.2,21.3L48.2,21.3z"/>
							<path id="path3011" class="st12" d="M52.3,20.7c-0.7,0-1.4,0.6-1.4,1.4c0,0.9,0.7,1.5,1.4,1.5c0.6,0,1-0.3,1.2-0.6l-0.5-0.3
								c-0.1,0.2-0.3,0.4-0.7,0.4c-0.4,0-0.6-0.2-0.7-0.4l1.9-0.8l-0.1-0.2C53.3,21.1,52.9,20.7,52.3,20.7L52.3,20.7z M52.3,21.3
								c0.3,0,0.5,0.1,0.5,0.3l-1.3,0.5C51.5,21.7,51.9,21.3,52.3,21.3L52.3,21.3z"/>
							<path id="path3015" class="st3" d="M50,23.5h0.6v-4.3H50V23.5z"/>
						</g>
						<path class="st1" d="M154.5,24.3H60.1c-1.4,0-2.5-1.1-2.5-2.5v0c0-1.4,1.1-2.5,2.5-2.5h94.4c1.4,0,2.5,1.1,2.5,2.5v0
							C157,23.2,155.9,24.3,154.5,24.3z"/>
						<path class="st2" d="M163.5,19.3h7.5c1.4,0,2.5,1.1,2.5,2.5v0c0,1.4-1.1,2.5-2.5,2.5h-7.5c-1.4,0-2.5-1.1-2.5-2.5v0
							C160.9,20.4,162.1,19.3,163.5,19.3z"/>
						<line class="st14" x1="32.6" y1="36.8" x2="207.6" y2="36.8"/>
					</g>
				</g>
			</g>
			<g class="st15">
				<defs>
					<path id="SVGID_1_" class="st15" d="M216.2,124.1c0,2.6-2.1,4.6-4.7,4.6H28.9c-2.6,0-4.7-2.1-4.7-4.6V4.7
						c0-2.6,2.1-4.7,4.7-4.7h182.6c2.6,0,4.7,2.1,4.7,4.7V124.1z"/>
				</defs>
				<clipPath id="SVGID_2_">
					<use xlink:href="#SVGID_1_"  style="overflow:visible;"/>
				</clipPath>
			</g>
			<path class="st16" d="M0,125.1h240.8c0,0-2.5,4.9-12.3,4.9h-218C10.5,130,0,129.2,0,125.1"/>
			<path class="st17" d="M98.3,127.5h45c1.4,0,2.5-1.1,2.5-2.5h-50C95.8,126.4,96.9,127.5,98.3,127.5"/>
		</g>
	</g>
</g>
</svg>
