<?xml version="1.0" encoding="utf-8"?>
<!-- Generator: Adobe Illustrator 19.1.0, SVG Export Plug-In . SVG Version: 6.00 Build 0)  -->
<svg version="1.1" id="Layer_1" xmlns="http://www.w3.org/2000/svg" xmlns:xlink="http://www.w3.org/1999/xlink" x="0px" y="0px"
	 viewBox="0 0 396.8 219.5" style="enable-background:new 0 0 396.8 219.5;" xml:space="preserve">
<style type="text/css">
	.st0{fill:#EFF1F5;}
	.st1{fill:#4C4F5E;}
	.st2{fill:#FFFFFF;}
	.st3{fill:#547DBE;}
	.st4{fill:#4EB056;}
	.st5{fill:#EEEDED;}
	.st6{opacity:0.6;}
	.st7{fill:#464B5C;}
	.st8{fill:#C8C9D2;}
	.st9{fill:#ABADB4;}
	.st10{fill:#494B5C;}
	.st11{opacity:0.3;fill:#494B5C;}
	.st12{opacity:0.3;}
	.st13{fill:#B1B5C5;}
</style>
<g id="iMac">
	<polygon class="st0" points="159.2,154.9 151.3,181.1 141.9,182.8 141.9,185 226.5,185 226.5,182.7 217.3,181.7 209.5,154.2 	"/>
	<polygon class="st0" points="157.2,161.4 211.6,161.4 209.5,154.2 159.2,154.9 	"/>
	<path class="st1" d="M312.8,150.3c0,2.6-2.1,4.7-4.8,4.7H60.9c-2.6,0-4.8-2.1-4.8-4.7V4.8c0-2.6,2.1-4.8,4.8-4.8h247.2
		c2.6,0,4.8,2.1,4.8,4.8V150.3z"/>
	<rect x="66" y="10.6" class="st2" width="236.6" height="134.9"/>
	<circle class="st0" cx="184.4" cy="150.4" r="2.4"/>
	<g>
		<rect x="115.1" y="26.4" class="st3" width="89" height="27.2"/>
		<rect x="209.8" y="26.4" class="st4" width="41.5" height="27.2"/>
		<g>
			<rect x="115.1" y="68.4" class="st5" width="41.9" height="2.5"/>
			<rect x="115.1" y="73.3" class="st5" width="41.9" height="2.5"/>
			<rect x="115.1" y="78.2" class="st5" width="41.9" height="2.5"/>
			<rect x="115.1" y="83.1" class="st5" width="41.9" height="2.5"/>
			<rect x="115.1" y="87.9" class="st5" width="41.9" height="2.5"/>
			<rect x="115.1" y="92.8" class="st5" width="41.9" height="2.5"/>
			<rect x="115.1" y="97.7" class="st5" width="41.9" height="2.5"/>
		</g>
		<g>
			<rect x="164.2" y="68.4" class="st5" width="39.4" height="2.5"/>
			<rect x="164.2" y="73.3" class="st5" width="39.4" height="2.5"/>
			<rect x="164.2" y="78.2" class="st5" width="39.4" height="2.5"/>
			<rect x="164.2" y="83.1" class="st5" width="39.4" height="2.5"/>
			<rect x="164.2" y="87.9" class="st5" width="39.4" height="2.5"/>
			<rect x="164.2" y="92.8" class="st5" width="39.4" height="2.5"/>
			<rect x="164.2" y="97.7" class="st5" width="39.4" height="2.5"/>
		</g>
		<g>
			<rect x="209.8" y="68.4" class="st5" width="41.5" height="2.5"/>
			<rect x="209.8" y="73.3" class="st5" width="41.5" height="2.5"/>
			<rect x="209.8" y="78.2" class="st5" width="41.5" height="2.5"/>
			<rect x="209.8" y="83.1" class="st5" width="41.5" height="2.5"/>
			<rect x="209.8" y="87.9" class="st5" width="41.5" height="2.5"/>
			<rect x="209.8" y="92.8" class="st5" width="41.5" height="2.5"/>
			<rect x="209.8" y="97.7" class="st5" width="41.5" height="2.5"/>
		</g>
	</g>
	<g class="st6">
		<defs>
			<path id="SVGID_1_" class="st6" d="M312.8,150.3c0,2.6-2.1,4.7-4.8,4.7H60.9c-2.6,0-4.8-2.1-4.8-4.7V4.8c0-2.6,2.1-4.8,4.8-4.8
				h247.2c2.6,0,4.8,2.1,4.8,4.8V150.3z"/>
		</defs>
		<clipPath id="SVGID_2_">
			<use xlink:href="#SVGID_1_"  style="overflow:visible;"/>
		</clipPath>
	</g>
</g>
<g id="Macbook">
	<g>
		<g>
			<path class="st7" d="M378.7,194.3c0,1.9-1.5,3.4-3.4,3.4H240.4c-1.9,0-3.4-1.5-3.4-3.4v-88.2c0-1.9,1.5-3.4,3.4-3.4h134.9
				c1.9,0,3.4,1.5,3.4,3.4V194.3z"/>
			<rect x="243.1" y="108.5" class="st2" width="129.4" height="81.6"/>
			<g>
				<rect x="253.3" y="124.2" class="st3" width="70.6" height="21.6"/>
				<rect x="328.5" y="124.2" class="st4" width="32.9" height="21.6"/>
				<g>
					<rect x="253.3" y="157.5" class="st5" width="33.2" height="2"/>
					<rect x="253.3" y="161.4" class="st5" width="33.2" height="2"/>
					<rect x="253.3" y="165.3" class="st5" width="33.2" height="2"/>
					<rect x="253.3" y="169.1" class="st5" width="33.2" height="2"/>
					<rect x="253.3" y="173" class="st5" width="33.2" height="2"/>
				</g>
				<g>
					<rect x="292.3" y="157.5" class="st5" width="31.2" height="2"/>
					<rect x="292.3" y="161.4" class="st5" width="31.2" height="2"/>
					<rect x="292.3" y="165.3" class="st5" width="31.2" height="2"/>
					<rect x="292.3" y="169.1" class="st5" width="31.2" height="2"/>
					<rect x="292.3" y="173" class="st5" width="31.2" height="2"/>
				</g>
				<g>
					<rect x="328.5" y="157.5" class="st5" width="32.9" height="2"/>
					<rect x="328.5" y="161.4" class="st5" width="32.9" height="2"/>
					<rect x="328.5" y="165.3" class="st5" width="32.9" height="2"/>
					<rect x="328.5" y="169.1" class="st5" width="32.9" height="2"/>
					<rect x="328.5" y="173" class="st5" width="32.9" height="2"/>
				</g>
			</g>
			<g class="st6">
				<defs>
					<path id="SVGID_3_" class="st6" d="M378.7,194.3c0,1.9-1.5,3.4-3.4,3.4H240.4c-1.9,0-3.4-1.5-3.4-3.4v-88.2
						c0-1.9,1.5-3.4,3.4-3.4h134.9c1.9,0,3.4,1.5,3.4,3.4V194.3z"/>
				</defs>
				<clipPath id="SVGID_4_">
					<use xlink:href="#SVGID_3_"  style="overflow:visible;"/>
				</clipPath>
			</g>
			<path class="st8" d="M219,195h177.8c0,0-1.8,3.6-9.1,3.6h-161C226.8,198.7,219,198.1,219,195"/>
			<path class="st9" d="M291.6,196.8h33.2c1,0,1.9-0.8,1.9-1.9h-37C289.8,196,290.6,196.8,291.6,196.8"/>
		</g>
	</g>
</g>
<g id="iPad">
	<g id="base_xA0_Clipping_Path_6_">
		<g>
			<path class="st10" d="M133.4,110.8H6.2c-3.4,0-6.2,2.8-6.2,6.2v77.8c0,3.4,2.8,6.2,6.2,6.2h127.2c3.4,0,6.2-2.8,6.2-6.2v-77.8
				C139.5,113.5,136.8,110.8,133.4,110.8z"/>
		</g>
	</g>
	<g id="your_app_here__x28_portrait_x29__6_">
		<g>
			<rect x="15.6" y="115.9" class="st2" width="106.7" height="80"/>
		</g>
	</g>
	<g>
		<rect x="27.8" y="129.3" class="st3" width="82" height="24.3"/>
		<g>
			<rect x="27.8" y="166" class="st5" width="38.6" height="2.3"/>
			<rect x="27.8" y="170.6" class="st5" width="38.6" height="2.3"/>
			<rect x="27.8" y="175.1" class="st5" width="38.6" height="2.3"/>
			<rect x="27.8" y="179.6" class="st5" width="38.6" height="2.3"/>
		</g>
		<g>
			<rect x="73" y="166" class="st5" width="36.3" height="2.3"/>
			<rect x="73" y="170.6" class="st5" width="36.3" height="2.3"/>
			<rect x="73" y="175.1" class="st5" width="36.3" height="2.3"/>
			<rect x="73" y="179.6" class="st5" width="36.3" height="2.3"/>
		</g>
	</g>
	<g class="st6">
		<defs>
			<path id="SVGID_5_" class="st6" d="M0,194.7l0-77.8c0-3.4,2.8-6.2,6.2-6.2h127.2c3.4,0,6.2,2.8,6.2,6.2v77.8
				c0,3.4-2.8,6.2-6.2,6.2H6.2C2.8,200.9,0,198.1,0,194.7z"/>
		</defs>
		<clipPath id="SVGID_6_">
			<use xlink:href="#SVGID_5_"  style="overflow:visible;"/>
		</clipPath>
	</g>
	<circle class="st11" cx="131.3" cy="155.9" r="4.3"/>
</g>
<g id="iPhone">
	<g id="iPhone_5_base">
		<g>
			<path class="st1" d="M153.4,129.9h-27.5c-4,0-7.2,3.2-7.2,7.2v75.2c0,4,3.2,7.2,7.2,7.2h27.5c4,0,7.2-3.2,7.2-7.2v-75.2
				C160.6,133.1,157.4,129.9,153.4,129.9z"/>
		</g>
	</g>
	<g id="screen">
		<g>
			<rect x="121.6" y="142.9" class="st2" width="36.1" height="63.6"/>
		</g>
	</g>
	<g id="Homebutton_2_" class="st12">
		<g>
			<circle class="st10" cx="139.7" cy="212.9" r="3"/>
		</g>
	</g>
	<g>
		<rect x="127" y="151.7" class="st3" width="26.5" height="17.2"/>
		<g>
			<rect x="127" y="178.2" class="st5" width="26.5" height="1.6"/>
			<rect x="127" y="181.3" class="st5" width="26.5" height="1.6"/>
			<rect x="127" y="184.4" class="st5" width="26.5" height="1.6"/>
			<rect x="127" y="187.5" class="st5" width="26.5" height="1.6"/>
			<rect x="127" y="190.6" class="st5" width="26.5" height="1.6"/>
			<rect x="127" y="193.7" class="st5" width="26.5" height="1.6"/>
			<rect x="127" y="196.7" class="st5" width="26.5" height="1.6"/>
		</g>
	</g>
	<g class="st6">
		<defs>
			<path id="SVGID_7_" class="st6" d="M153.4,129.9h-27.5c-4,0-7.2,3.2-7.2,7.2v75.2c0,4,3.2,7.2,7.2,7.2h27.5c4,0,7.2-3.2,7.2-7.2
				v-75.2C160.6,133.1,157.4,129.9,153.4,129.9z"/>
		</defs>
		<clipPath id="SVGID_8_">
			<use xlink:href="#SVGID_7_"  style="overflow:visible;"/>
		</clipPath>
	</g>
	<g id="Speaker__x2B__cam_2_">
		<g>
			<path class="st13" d="M133.9,136.4c-0.4,0-0.7,0.3-0.7,0.7c0,0.4,0.3,0.7,0.7,0.7c0.4,0,0.7-0.3,0.7-0.7
				C134.6,136.7,134.3,136.4,133.9,136.4z M144.7,136.4h-7.2c-0.4,0-0.7,0.3-0.7,0.7c0,0.4,0.3,0.7,0.7,0.7h7.2
				c0.4,0,0.7-0.3,0.7-0.7C145.5,136.7,145.1,136.4,144.7,136.4z"/>
		</g>
	</g>
</g>
</svg>
