<?xml version="1.0" encoding="utf-8"?>
<!-- Generator: Adobe Illustrator 19.2.0, SVG Export Plug-In . SVG Version: 6.00 Build 0)  -->
<svg version="1.1" id="Layer_1" xmlns="http://www.w3.org/2000/svg" xmlns:xlink="http://www.w3.org/1999/xlink" x="0px" y="0px"
	 viewBox="0 0 460 179.7" style="enable-background:new 0 0 460 179.7;" xml:space="preserve">
<style type="text/css">
	.st0{fill:#343433;}
</style>
<path class="st0" d="M53.3,46.5l18.3,39.7l27,12.2L1.2,149.7l39.9-35.6V12.6L0,0v150.9l40.9,28.7l102.8-61.2V74.2L53.3,46.5z
	 M229.3,65.2c-11.6,0-20.5,5.1-26.5,15.3h-0.3V33.8l-12.3-3.7v113.5h12.3v-11.1h0.3c5.2,8.6,12.9,12.9,23,12.9
	c10.8,0,19.4-3.9,25.6-11.6c6.2-7.7,9.4-18,9.4-30.8c0-11.5-2.8-20.7-8.3-27.6C246.9,68.6,239.2,65.2,229.3,65.2z M241.9,126.6
	c-4.2,5.7-10,8.5-17.5,8.5c-6.3,0-11.6-2.2-15.7-6.6c-4.1-4.4-6.2-9.8-6.2-16.1v-10.7c0-7.5,2.2-13.7,6.5-18.7
	c4.3-5,10.1-7.5,17.2-7.5c6.7,0,12.1,2.4,16,7.3c3.9,4.8,5.9,11.5,5.9,20.1C248.2,113,246.1,120.9,241.9,126.6z M276.8,143.6h12.3
	V67h-12.3V143.6z M283.1,33.5c-2.2,0-4.1,0.8-5.6,2.3c-1.5,1.5-2.3,3.4-2.3,5.7s0.8,4.2,2.3,5.7s3.4,2.2,5.6,2.2
	c2.2,0,4.2-0.8,5.7-2.3c1.6-1.5,2.4-3.4,2.4-5.6c0-2.3-0.8-4.2-2.4-5.7C287.3,34.3,285.4,33.5,283.1,33.5z M347.2,65.2
	c-11,0-19.4,4.8-25.2,14.5h-0.3V67h-12.3v76.7h12.3V99.9c0-7,2-12.9,6-17.5c4-4.6,9.1-6.9,15.2-6.9c11.9,0,17.8,8.1,17.8,24.4v43.7
	h12.3V96.8c0-10.2-2.2-18.1-6.7-23.5S355.6,65.2,347.2,65.2z M447.7,67v10h-0.3c-5-8.3-12.5-12-22.8-12c-10.9,0-19.6,4.1-25.9,11.8
	c-6.3,7.7-9.6,17.9-9.6,30.9c0,11.5,3.2,20.8,9,27.6c5.8,6.8,13.5,10.2,23,10.2c11.7,0,20.5-4.9,26.4-14.7h0.3v8.4
	c0,20.1-10.1,30-28.3,30c-6.9,0-13.8-2.1-21.3-5.8l-3.4,11c7.1,3.6,15.4,5.4,24.9,5.4c27,0,40.4-14.1,40.4-42.2V67L447.7,67
	L447.7,67z M447.7,109c-0.2,13.6-8.1,25.6-23.3,25.6c-15.1,0-22.5-13-22.5-27.6c0.1-15.3,6.5-31.4,24.3-31.4
	c11.7,0,21.6,10.1,21.6,22.2L447.7,109L447.7,109z"/>
</svg>
