<svg id="Layer_1" data-name="Layer 1" xmlns="http://www.w3.org/2000/svg" viewBox="0 0 571 112.02"><title>facebook</title><path d="M313.8,69c-8.6-1-15.9,1.6-22.2,9.2V75.8h0V31.9l-22.7,2.9v107h22.7v-6.2c3.1,2.1,6,4.7,9.7,6,13.3,4.7,30.8.7,36.9-16.8a55.75,55.75,0,0,0,.7-34.5C335.5,77.3,327.2,70.2,313.8,69Zm3.5,46.4c-1,7.1-6.6,10.7-13.3,10.2a21.12,21.12,0,0,1-4.5-1,15.49,15.49,0,0,1-7.6-11.5h0c-0.2-5-.7-15.6,1.6-20.6,2.1-4,5.7-6,10.4-6,6.8-.2,12,3.1,13,10.2A49,49,0,0,1,317.3,115.4Zm77.2-45.2a45.37,45.37,0,0,0-23.7,0c-11.8,3.1-19.6,10.7-22.2,22.5a84.35,84.35,0,0,0-1.4,20.1c0.7,15.1,10.2,26.1,24.8,29.5,0.2,0,.5,0,0.5.2h0c0.5,0,1,.2,1.6.2h0.5a9.35,9.35,0,0,0,2.4.2,59.29,59.29,0,0,0,9.4.2h0.5c15.1-.7,26.3-10.2,29.8-24.8a51.24,51.24,0,0,0,0-24C414.6,81.7,407,73.6,394.5,70.2Zm1.1,43.8c0,0.5-.2,1-0.2,1.4-1.6,6.8-6.2,10.4-12.8,9.9-7.1-.2-11.8-4.5-12.5-11.5a79.24,79.24,0,0,1,0-15.4c0.7-8.1,5.7-12.5,13.3-12.3,6.2,0,10.7,3.6,12.3,9.7C396.6,102.1,395.6,112.8,395.6,114ZM53.3,70H37.1V59.3c1.4-10.2,18-8.3,18-8.3V50.3h0V33.1h0c-0.5-.2-33.4-7.8-40,17.3h0v0.2c-1,3.1-1,17.5-1,19.4H0V89.1H14.9v52.3H36.6V89.1H53.4L55.2,70H53.3Zm52,9.1-0.7-.7h0l-0.5-.5h0c-5.2-5.2-7.1-6.6-10.9-7.6-15.4-4.5-30.5,3.6-35.3,19.1-2.9,9.7-2.9,19.4-1.4,28.9,3.6,20.9,19.4,27.9,35.7,24.6,5-1,8.9-4.2,12.3-8.6a6.74,6.74,0,0,0,.7-1v9.2h21.1V70H105.2v9.1h0.1Zm-1.9,36c-0.7,6.6-6,10.7-12.5,10.4s-10.7-3.6-12.3-9.9c-1.6-8.9.2-19.6,0.5-20.4,1.9-6,6-8.9,12.5-8.9,6.2,0.2,10.9,4,11.8,10.4A113,113,0,0,1,103.4,115.1Zm87.8,21.4c-1-3.6-2.1-7.1-3.1-10.7l-1-4s-26.7,12.8-30.8-11.5a79.92,79.92,0,0,1,.2-12c1-7.6,5.5-11.5,12.8-12a44.23,44.23,0,0,1,7.3.2c3.4,0.5,6.6,1.6,10.2,2.4,1.4-4,2.6-7.6,3.6-11.5a14.24,14.24,0,0,1,.5-1.6h0l0.5-2.4-1-1h0a9.66,9.66,0,0,0-3.4-1.6,6.69,6.69,0,0,0-1.9-.5,3,3,0,0,0-1-.2h0C177,68,169.9,68,162.7,68.7c-15.4,1.6-25.8,10.7-28.7,25.6a55.71,55.71,0,0,0,.2,23.7c2.6,11.8,9.7,19.6,21.4,23,7.6,2.4,15.4,2.4,23.2,1a67.37,67.37,0,0,0,11.2-3.4l1.4-.5-0.2-1.6h0ZM261,108.6a106.2,106.2,0,0,0-.7-14.9c-1.9-13.3-10.2-22-23.2-24a66.12,66.12,0,0,0-15.4-.2c-14.2,1.4-24.6,10.2-26.9,23.2a81.14,81.14,0,0,0-.5,24.6c1.6,12,7.6,19.6,17.5,23.5H212c4.7,1.4,27.2,7.3,47.3-2.6l-0.7-3.4h0c-1-4-2.1-7.8-3.1-11.8v-0.2a3.1,3.1,0,0,1-1,.2h0c-0.7.2-1.9,0.5-2.6,0.7a0.65,0.65,0,0,0-.5.2c-3.1.7-7.3,1.9-12,2.6a63.11,63.11,0,0,1-11.5,0c-6.2-1-11.2-4.5-10.9-12.5h44.6v-0.7Zm-20.3-10H216.1c0-5,.7-9.4,5-12.3a13.62,13.62,0,0,1,14.4-.5C240.4,88.7,240.7,93.4,240.7,98.6ZM571,70.7H546.9l-20.8,32.6V31.8l-22.8,2.9v107h22.8V109.1l20.8,32.6H571l-22.7-35.5Zm-98.9-.5a45.37,45.37,0,0,0-23.7,0c-11.8,3.1-19.6,10.7-22.2,22.5a84.35,84.35,0,0,0-1.4,20.1c0.7,15.1,10.2,26.1,24.8,29.5,0.2,0,.5,0,0.5.2h0c0.5,0,1,.2,1.6.2h0.5a9.35,9.35,0,0,0,2.4.2,59.29,59.29,0,0,0,9.4.2h0.5c15.1-.7,26.3-10.2,29.8-24.8a51.24,51.24,0,0,0,0-24C492.2,81.7,484.6,73.6,472.1,70.2Zm1,43.8c0,0.5-.2,1-0.2,1.4-1.6,6.8-6.2,10.4-12.8,9.9-7.1-.2-11.8-4.5-12.5-11.5a79.24,79.24,0,0,1,0-15.4c0.7-8.1,5.7-12.5,13.3-12.3,6.2,0,10.7,3.6,12.3,9.7C474.2,102.1,473.1,112.8,473.1,114Z" transform="translate(0 -31.8)" fill="none"/></svg>