<?xml version="1.0" encoding="utf-8"?>
<!-- Generator: Adobe Illustrator 19.2.0, SVG Export Plug-In . SVG Version: 6.00 Build 0)  -->
<svg version="1.1" id="Layer_1" xmlns="http://www.w3.org/2000/svg" xmlns:xlink="http://www.w3.org/1999/xlink" x="0px" y="0px"
	 viewBox="0 0 460 179.7" style="enable-background:new 0 0 460 179.7;" xml:space="preserve">
<style type="text/css">
	.st0{fill:#343433;}
</style>
<path class="st0" d="M446.5,118.9l12.8,8.6c-4.1,6.1-14.1,16.6-31.3,16.6c-21.4,0-37.2-16.5-37.2-37.5c0-22.4,16-37.5,35.4-37.5
	c19.5,0,29,15.5,32.1,23.9l1.7,4.2l-50.2,20.7c3.8,7.5,9.7,11.4,18.2,11.4S442.2,125.1,446.5,118.9L446.5,118.9z M407.1,105.4
	l33.5-13.9c-1.9-4.7-7.4-7.9-13.9-7.9C418.3,83.4,406.6,90.8,407.1,105.4L407.1,105.4z M366.5,30.7h16.1v109.8h-16.1V30.7
	L366.5,30.7z M341,71.9h15.6v66.7c0,27.7-16.3,39.1-35.7,39.1c-18.2,0-29.1-12.3-33.3-22.2l14.3-6c2.6,6.1,8.8,13.3,18.9,13.3
	c12.4,0,20-7.7,20-22.1v-5.4h-0.5c-3.7,4.5-10.8,8.6-19.7,8.6c-18.8,0-36-16.3-36-37.4c0-21.2,17.2-37.7,36-37.7
	c8.9,0,16,4,19.7,8.4h0.5L341,71.9L341,71.9z M342.2,106.6c0-13.3-8.8-22.9-20-22.9c-11.4,0-20.9,9.6-20.9,22.9
	c0,13.1,9.6,22.5,20.9,22.5C333.3,129.2,342.2,119.7,342.2,106.6L342.2,106.6z M195.9,106.3c0,21.6-16.9,37.5-37.5,37.5
	s-37.5-16-37.5-37.5c0-21.7,16.9-37.6,37.5-37.6S195.9,84.6,195.9,106.3L195.9,106.3z M179.5,106.3c0-13.5-9.7-22.7-21.1-22.7
	c-11.4,0-21.1,9.3-21.1,22.7c0,13.3,9.7,22.7,21.1,22.7C169.8,129.1,179.5,119.7,179.5,106.3L179.5,106.3z M277.9,106.5
	c0,21.6-16.9,37.5-37.5,37.5s-37.5-15.9-37.5-37.5c0-21.7,16.9-37.5,37.5-37.5S277.9,84.7,277.9,106.5L277.9,106.5z M261.5,106.5
	c0-13.5-9.7-22.7-21.1-22.7c-11.5-0.1-21.2,9.2-21.2,22.7c0,13.3,9.7,22.7,21.1,22.7C251.7,129.2,261.5,119.8,261.5,106.5
	L261.5,106.5z M59.2,127.5c-23.5,0-41.9-19-41.9-42.6s18.4-42.5,41.9-42.5c12.7,0,22,5,28.9,11.4l11.3-11.3
	c-9.6-9.1-22.4-16-40.1-16C27,26.5-0.1,52.7-0.1,85s27.1,58.5,59.3,58.5c17.4,0,30.6-5.8,40.8-16.4c10.5-10.5,13.8-25.4,13.8-37.4
	c0-3.8-0.5-7.7-1-10.5H59.2v15.6h38.2c-1.1,9.7-4.2,16.5-8.7,21C83.2,121.4,74.5,127.5,59.2,127.5L59.2,127.5L59.2,127.5z"/>
</svg>
