<svg id="Layer_1" data-name="Layer 1" xmlns="http://www.w3.org/2000/svg" viewBox="0 0 528.14 149.7"><title>instagram</title><path d="M29,31.1C18.2,35.6,6.3,48.4,2.5,64.5c-4.7,20.3,15,28.9,16.8,26,2-3.3-3.6-4.5-4.7-15C13,61.8,19.5,46.7,27.4,39.9c1.5-1.3,1.4.5,1.4,3.7,0,5.7-.3,57-0.3,67.7,0,14.5-.6,19-1.7,23.6s-2.9,7.7-1.5,8.8c1.5,1.4,7.8-1.8,11.5-7,4.4-6.1,6-13.5,6.2-21.5,0.5-9.5.5-24.8,0.5-33.5,0-8,.1-31.4-0.1-45.5-0.3-3.4-9.9-7.1-14.4-5.1" transform="translate(-1.78 -29.85)" fill="#343433"/><path d="M412.9,98.9a44.66,44.66,0,0,1-4.1,17.6c-4,8-12.3,10.6-15.8-1-2-6.3-2.1-16.9-.6-25.6,1.4-8.9,5.4-15.7,11.8-15.1s9.5,8.8,8.7,24.1h0ZM304.7,145.6c-0.1,12.5-2.1,23.5-6.3,26.6-6,4.5-14,1.1-12.4-8,1.5-8,8.5-16.3,18.7-26.4,0,0.1.1,2.4,0,7.8h0Zm-1.6-46.8a49.09,49.09,0,0,1-4.1,17.7c-4,8-12.4,10.6-15.8-1-2.4-7.9-1.8-18.1-.6-24.6,1.5-8.4,5.2-16.2,11.8-16.2,6.4,0,9.6,7.1,8.7,24.1h0Zm-62.7-.1c-0.3,7.2-1.8,13.3-4.1,17.8-4.1,8-12.3,10.6-15.8-1-2.6-8.4-1.7-19.6-.6-25.8,1.6-9.1,5.6-15.5,11.8-14.9,6.5,0.6,9.6,8.8,8.7,23.9h0Zm287.2,8.5c-1.6,0-2.3,1.6-2.9,4.4-2.1,9.4-4.2,11.6-7,11.6-3.1,0-5.9-4.7-6.7-14.1-0.6-7.3-.5-21,0.2-34.4,0.1-2.8-.6-5.5-8-8.3-3.2-1.1-7.8-2.9-10.2,2.8-6.5,15.8-9.1,28.3-9.8,33.5,0,0.2-.3.3-0.5-0.3-0.3-4.1-1.3-11.5-1.4-27.1,0-3.1-.7-5.6-4-7.8-2.2-1.4-8.8-3.8-11.1-.9-2.1,2.4-4.5,8.7-6.9,16.3C457.4,88.8,456,93,456,93V70.2a3.14,3.14,0,0,0-2.1-3.3,39.14,39.14,0,0,0-8.4-1.7c-2.3,0-2.9,1.3-2.9,3.1,0,0.2-.3,21.8-0.3,36.8v2.2c-1.3,6.9-5.4,16.3-9.8,16.3s-6.5-3.9-6.5-21.9c0-10.4.3-15,.5-22.6,0.1-4.4.2-7.7,0.2-8.5,0-2.3-4-3.6-6-3.9a18.38,18.38,0,0,0-4.8-.6,3,3,0,0,0-3.1,3v2.5a17.49,17.49,0,0,0-8.6-7c-6.8-2-13.8-.2-19,7.2-4.2,5.9-6.8,12.5-7.7,22.1a66.48,66.48,0,0,0,.8,20.1c-1.6,6.8-4.5,9.5-7.7,9.5-4.6,0-8-7.6-7.6-20.7,0.2-8.6,2-14.6,3.9-23.3,0.8-3.7.1-5.6-1.5-7.6-1.5-1.7-4.7-2.6-9.3-1.5-3.2.8-7.9,1.6-12.2,2.2,0,0,.2-1,0.5-2.9,1.1-9.5-9.2-8.7-12.5-5.7-2,1.8-3.3,3.9-3.8,7.8a9,9,0,0,0,4.1,8.9,89.82,89.82,0,0,1-9.8,24.3,98.18,98.18,0,0,1-6.1,9.5v-3.3c0-15.7.1-28.1,0.2-32.6s0.2-7.7.2-8.4c0-1.7-1-2.3-3.1-3.2a20.11,20.11,0,0,0-6.2-1.4c-2.9-.2-4.6,1.3-4.5,3.1v2.4a17.49,17.49,0,0,0-8.6-7c-6.8-2-13.8-.2-19,7.2-4.2,5.9-7,14.1-7.7,22a72.74,72.74,0,0,0,.3,18.9c-1,5.3-4.1,10.8-7.6,10.8-4.5,0-7-3.9-7-21.9,0-10.4.3-15,.5-22.6,0.1-4.4.2-7.7,0.2-8.5,0-2.3-4-3.6-6-3.9a20.09,20.09,0,0,0-4.9-.6,3.3,3.3,0,0,0-3,2.9V71a17.49,17.49,0,0,0-8.6-7c-6.8-2-13.7-.2-19,7.2-3.4,4.8-6.3,10.1-7.7,21.9a65.9,65.9,0,0,0-.6,9.6c-1.4,8.5-7.5,18.2-12.5,18.2-3,0-5.7-5.7-5.7-17.8,0-16.2,1-39.1,1.1-41.3,0,0,6.3-.1,7.6-0.1,3.2,0,6,0,10.2-.2,2.1-.1,4.1-7.7,2-8.6-1-.5-7.9-0.8-10.8-0.8-2.3,0-8.8-.6-8.8-0.6s0.6-15.3.7-16.9c0.1-1.4-1.6-2.1-2.6-2.4a44.44,44.44,0,0,0-7.1-2.1c-3.6-.7-5.2,0-5.5,3-0.5,4.6-.7,17.9-0.7,17.9-2.6,0-11.5-.5-14.1-0.5-2.4,0-5,10.4-1.7,10.6,3.9,0.1,10.6.2,15,.5,0,0-.2,23.4-0.2,30.6v2.2A34.91,34.91,0,0,1,160,114c1.8-8.5-2-14.8-8.7-20.2-2.5-2-7.5-5.7-13-9.9a35.18,35.18,0,0,0,6.1-9.5c2.1-4.5,2.1-9.6-2.9-10.8-8.1-1.8-14.9,4.1-17,10.6-1.6,4.9-.7,8.7,2.3,12.5,0.2,0.2.5,0.6,0.7,0.8-1.8,3.6-4.4,8.4-6.5,12-6,10.3-10.4,18.5-13.9,18.5-2.8,0-2.6-8.3-2.6-16.1,0-6.7.5-16.8,0.9-27.2,0.1-3.4-1.6-5.4-4.5-7.2-1.7-1-5.5-3.2-7.7-3.2-3.2,0-12.6.5-21.5,26-1.1,3.2-3.3,9.1-3.3,9.1l0.2-30.7a2.25,2.25,0,0,0-1.3-2,22.33,22.33,0,0,0-9.1-2.4c-1.7,0-2.5.8-2.5,2.3l-0.3,48.2a64.23,64.23,0,0,0,.5,9.8,8.71,8.71,0,0,0,1.7,4.2,4.42,4.42,0,0,0,3,1.8c1.3,0.2,8.3,1.1,8.7-1.5,0.5-3.2.5-6.7,4.1-19.6,5.9-19.7,13.3-29.6,16.9-33.2,0.6-.6,1.3-0.7,1.3.3-0.1,4.5-.7,15.5-1,24.9-0.9,25.1,3.7,29.8,10.2,29.8,5,0,12-4.9,19.6-17.6,4.7-7.8,9.3-15.5,12.6-21.1q3.45,3.15,7.5,6.9c6,5.6,7.9,11,6.7,16.2-1,3.9-4.7,7.9-11.4,4-2-1.1-2.8-2.1-4.7-3.3a3.52,3.52,0,0,0-3.7-.2,12.24,12.24,0,0,0-4.7,7.2c-0.8,2.9,2.1,4.4,5,5.7a39.81,39.81,0,0,0,11.7,2.3c13.8,0.5,24.8-6.7,32.5-25,1.4,15.8,7.2,24.8,17.4,24.8,6.8,0,13.7-8.8,16.6-17.4a28.28,28.28,0,0,0,3.8,9.2c7.8,12.4,23.1,9.8,30.6-.8a18.52,18.52,0,0,0,2.8-4.5c1.1,10,9.2,13.4,13.8,13.4,5.2,0,10.4-2.4,14.1-10.8,0.5,0.9.9,1.7,1.4,2.6,7.8,12.4,23.1,9.8,30.6-.8a11,11,0,0,0,.9-1.4l0.2,6.5s-4.4,4-7,6.4c-11.8,10.8-20.8,18.9-21.3,28.6-0.8,12.2,9.1,16.6,16.5,17.3,7.9,0.6,14.7-3.8,18.8-9.9,3.7-5.4,6.1-17,5.9-28.5-0.1-4.6-.2-10.4-0.2-16.6a134,134,0,0,0,25.4-44.3s4.4,0,8.9-.2c1.5-.1,2,0.2,1.6,1.3-0.3,1.3-5.9,22.7-.8,36.9,3.4,9.8,11.2,12.9,15.8,12.9,5.4,0,10.6-4.1,13.3-10.2,0.3,0.7.7,1.4,1,2,7.8,12.4,22.9,9.8,30.6-.8a44.19,44.19,0,0,0,2.8-4.5C417,127.9,425,131,429.6,131c4.8,0,9.3-2,13-10.7,0.1,3.8.3,7,.8,7.9,0.2,0.6,1.6,1.4,2.5,1.7,4.4,1.6,8.8.8,10.4,0.6,1.1-.2,2.1-1.1,2.2-3.6,0.3-6.2.1-16.6,2-24.4,3.2-13.1,6.1-18.1,7.5-20.5,0.8-1.4,1.7-1.6,1.7-.1,0.1,3,.2,11.8,1.5,23.6,0.9,8.7,2.1,13.9,3,15.5,2.6,4.7,5.9,4.9,8.5,4.9,1.7,0,5.2-.5,4.9-3.4-0.1-1.5.1-10.3,3.2-23.2a111,111,0,0,1,6.7-18.7c0.5-1,.7-0.2.7-0.1-0.2,5.7-.8,24.7,1.5,35,3.2,14,12.4,15.6,15.6,15.6,6.9,0,12.5-5.2,14.3-18.9,0.8-2.4.1-5-2-5h0Z" transform="translate(-1.78 -29.85)" fill="#343433"/></svg>