<?xml version="1.0" encoding="utf-8"?>
<!-- Generator: Adobe Illustrator 19.1.0, SVG Export Plug-In . SVG Version: 6.00 Build 0)  -->
<svg version="1.1" id="Layer_1" xmlns="http://www.w3.org/2000/svg" xmlns:xlink="http://www.w3.org/1999/xlink" x="0px" y="0px"
	 viewBox="0 0 800 500" style="enable-background:new 0 0 800 500;" xml:space="preserve">
<style type="text/css">
	.st0{clip-path:url(#SVGID_2_);}
	.st1{fill:#E4392F;}
	.st2{opacity:0.1;}
	.st3{fill:#010202;}
	.st4{fill:#DADCDC;}
	.st5{fill:#CFCECE;}
	.st6{fill:#E9463B;}
	.st7{fill:#CB3B31;}
</style>
<g>
	<defs>
		<rect id="SVGID_1_" width="800" height="500"/>
	</defs>
	<clipPath id="SVGID_2_">
		<use xlink:href="#SVGID_1_"  style="overflow:visible;"/>
	</clipPath>
	<g class="st0">
		<g>
			<path class="st1" d="M499.2,139.1v33.1h99.2v-33.1c0-109.6-88.8-198.4-198.4-198.4S201.6,29.5,201.6,139.1v33.1h99.2v-33.1
				c0-54.8,44.4-99.2,99.2-99.2S499.2,84.3,499.2,139.1z"/>
			<g>
				<rect x="201.6" y="172.1" class="st1" width="99.2" height="128.6"/>
				<rect x="499.2" y="172.1" class="st1" width="99.2" height="128.6"/>
			</g>
			<g class="st2">
				<rect x="201.6" y="172.1" class="st3" width="99.2" height="128.6"/>
				<rect x="499.2" y="172.1" class="st3" width="99.2" height="128.6"/>
			</g>
			<rect x="499.2" y="300.8" class="st4" width="99.2" height="66.1"/>
			<rect x="201.6" y="300.8" class="st4" width="99.2" height="66.1"/>
			<rect x="499.2" y="333.8" class="st5" width="99.2" height="33.1"/>
			<rect x="201.6" y="333.8" class="st5" width="99.2" height="33.1"/>
		</g>
		<g>
			<path class="st6" d="M453.4,426c16,0,29-13,29-29c0-16-13-29-29-29h-2.2c-6.3,0.4-12.2,2.9-16.9,7.1c-7,6-12.7,13.3-16.6,21.6
				h6.9c-0.2,15.9,12.6,29,28.5,29.2C453.2,426,453.3,426,453.4,426z M440.8,388.7c2.3,0,4.1,1.8,4.1,4.1c0,2.3-1.8,4.1-4.1,4.1
				s-4.1-1.8-4.1-4.1c-0.1-2.2,1.6-4,3.8-4.1C440.7,388.7,440.8,388.7,440.8,388.7z"/>
			<path class="st6" d="M561,429.2c0-16-13-29-29-29h-2.2c-6.3,0.4-12.2,2.9-16.9,7.1c-7,6-12.7,13.3-16.6,21.6h6.9
				c0,2,0.2,3.9,0.6,5.8c-0.4,0-0.7,0-1.1-0.2h-2.2c-16,0-29,13-29,29c0,16,13,29,29,29l0,0c16,0,29-13,29-29h6.9
				c-0.9-1.9-1.9-3.8-3-5.6C548.9,457.3,561,444.6,561,429.2z M519.5,420.8c2.3,0,4.1,1.8,4.1,4.1s-1.8,4.1-4.1,4.1
				c-2.3,0-4.1-1.8-4.1-4.1c0,0,0,0,0,0c-0.1-2.2,1.6-4,3.8-4.1C519.4,420.8,519.5,420.8,519.5,420.8z M513.1,463.8
				c-2.3,0-4.1-1.8-4.1-4.1s1.8-4.1,4.1-4.1c2.3,0,4.1,1.8,4.1,4.1c0,0,0,0,0,0c0.1,2.2-1.6,4-3.8,4.1
				C513.2,463.8,513.1,463.8,513.1,463.8z"/>
			<path class="st6" d="M273.3,543.7h-2.2c-6.3,0.4-12.2,2.9-16.9,7.1c-7,6-12.7,13.3-16.6,21.6h6.9c-0.1,16,12.7,29,28.7,29.2
				s29-12.7,29.2-28.7c0.1-16-12.7-29-28.7-29.2C273.6,543.7,273.4,543.7,273.3,543.7z M260.5,572.4c-2.3,0-4.1-1.8-4.1-4.1
				c0.1-2.2,1.9-4,4.1-4.1c2.3,0,4.1,1.8,4.1,4.1S262.8,572.4,260.5,572.4C260.6,572.4,260.6,572.4,260.5,572.4z"/>
			<path class="st6" d="M390.2,411.3H388c-6.3,0.4-12.2,2.9-16.9,7.1c-7,6-12.7,13.3-16.6,21.6h6.9c-0.1,16,12.7,29,28.7,29.2
				c16,0.1,29-12.7,29.2-28.7c0.1-16-12.7-29-28.7-29.2C390.5,411.3,390.3,411.3,390.2,411.3z M377.7,440.3c-2.3,0-4.1-1.8-4.1-4.1
				s1.8-4.1,4.1-4.1c2.3,0,4.1,1.8,4.1,4.1S379.9,440.3,377.7,440.3L377.7,440.3z"/>
			<path class="st6" d="M607.6,432h-2.2c-6.3,0.4-12.2,2.9-16.9,7.1c-7,6-12.7,13.3-16.6,21.6h6.9c-0.1,16,12.7,29,28.7,29.2
				c16,0.1,29-12.7,29.2-28.7c0.1-16-12.7-29-28.7-29.2C607.9,432,607.7,432,607.6,432z M595.1,461c-2.3,0-4.1-1.8-4.1-4.1
				c0-2.3,1.8-4.1,4.1-4.1c2.3,0,4.1,1.8,4.1,4.1C599.2,459.2,597.3,461,595.1,461L595.1,461z"/>
			<path class="st6" d="M521.1,519.5H519c-6.3,0.4-12.2,2.9-16.9,7.1c-7,6-12.7,13.3-16.6,21.6h6.9c-0.1,16,12.7,29,28.7,29.2
				c16,0.1,29-12.7,29.2-28.7s-12.7-29-28.7-29.2C521.4,519.5,521.3,519.5,521.1,519.5z M508.6,548.4c-2.3,0-4.1-1.8-4.1-4.1
				c0-2.3,1.8-4.1,4.1-4.1c2.3,0,4.1,1.8,4.1,4.1S510.9,548.4,508.6,548.4L508.6,548.4z"/>
			<path class="st6" d="M273.3,543.7h-2.2c-6.3,0.4-12.2,2.9-16.9,7.1c-7,6-12.7,13.3-16.6,21.6h6.9c-0.1,16,12.7,29,28.7,29.2
				c16,0.1,29-12.7,29.2-28.7c0.1-16-12.7-29-28.7-29.2C273.6,543.7,273.4,543.7,273.3,543.7z M260.8,572.6c-2.3,0-4.1-1.8-4.1-4.1
				c0-2.3,1.8-4.1,4.1-4.1c2.3,0,4.1,1.8,4.1,4.1S263,572.6,260.8,572.6L260.8,572.6z"/>
			<path class="st6" d="M218.9,430h-2.2c-6.3,0.4-12.2,2.9-16.9,7.1c-7,6-12.7,13.3-16.6,21.6h6.9c-0.1,16,12.7,29,28.7,29.2
				c16,0.1,29-12.7,29.2-28.7c0.1-16-12.7-29-28.7-29.2C219.2,430,219,430,218.9,430z M206.3,459c-2.3,0-4.1-1.8-4.1-4.1
				c0-2.3,1.8-4.1,4.1-4.1c2.3,0,4.1,1.8,4.1,4.1S208.6,459,206.3,459L206.3,459z"/>
			<path class="st6" d="M361,508.2c-4-3.5-9-5.9-14.3-6.7c1-2.9,1.5-6,1.5-9.1h6.9c-3.9-8.3-9.6-15.7-16.6-21.6
				c-4.6-4.2-10.6-6.7-16.9-7.1h-2.2c-16,0-28.9,13-28.9,29c0,14.1,10.1,26.1,24,28.5c-1,2.9-1.5,6-1.5,9.1c0,16,13,29,29,29h0h0.2
				c15.9-0.2,28.7-13.1,28.7-29h6.9C373.9,521.7,368.1,514.2,361,508.2z M332.1,484c2.3,0,4.1,1.8,4.1,4.1c0,2.3-1.8,4.1-4.1,4.1
				c-2.3,0-4.1-1.8-4.1-4.1l0,0c-0.1-2.2,1.6-4,3.8-4.1C331.9,484,332,484,332.1,484z M354.5,529.8c-2.3,0-4.1-1.8-4.1-4.1
				s1.8-4.1,4.1-4.1c2.2,0.1,4,1.9,4.1,4.1c0.1,2.2-1.6,4-3.8,4.1C354.7,529.8,354.6,529.8,354.5,529.8z"/>
			<path class="st6" d="M471.7,290.8h-1.9c-16,0-29,13-29,29c0,16,13,29,29,29h0.2c2.9,0,5.8-0.4,8.6-1.3c1,15.9,14.7,28,30.6,27
				c15.9-1,28-14.7,27-30.6c-1-15.2-13.6-27.1-28.9-27.1h-2.2c-0.4,0-0.7,0-1.1,0.2c-3.8-7.2-9.1-13.6-15.3-18.8
				C484.1,293.9,478.1,291.3,471.7,290.8L471.7,290.8L471.7,290.8z M494.7,345.4c-2.3,0-4.1-1.8-4.1-4.1c0-1.1,0.5-2.2,1.3-3l0,0
				c0.8-0.8,1.9-1.2,3-1.3c2.3,0,4.1,1.8,4.1,4.1C499,343.5,497,345.4,494.7,345.4L494.7,345.4L494.7,345.4z M482.3,311.3
				c2.3,0,4.1,1.8,4.1,4.1c0,2.3-1.8,4.1-4.1,4.1c-2.2-0.1-4-1.9-4.1-4.1c-0.1-2.1,1.4-4,3.6-4.1C482,311.3,482.2,311.3,482.3,311.3
				L482.3,311.3z"/>
			<path class="st6" d="M469.9,565.7c-4.6-4.2-10.6-6.7-16.9-7.1h-2.2c-16,0-29,13-29,29c0,16,13,29,29,29c16,0,29-13,29-29
				c0,0,0,0,0,0h6.9C486.5,587.5,480.7,574.4,469.9,565.7z M463.4,587.5c-2.3,0-4.1-1.8-4.1-4.1s1.8-4.1,4.1-4.1s4.1,1.8,4.1,4.1
				l0,0c0.1,2.2-1.6,4-3.8,4.1C463.6,587.5,463.5,587.5,463.4,587.5L463.4,587.5z"/>
			<path class="st6" d="M357.6,379.3c0-16-13-29-29-29c0,0-0.1,0-0.1,0H326c-6.3,0.4-12.3,2.9-17.1,7.1c-7,6-12.8,13.3-16.9,21.6
				h6.9c0,2.2,0.3,4.4,0.9,6.5c-15.9,0.3-28.6,13.5-28.3,29.4s13.5,28.6,29.4,28.3c15.8-0.3,28.4-13.2,28.3-28.9h6.9
				c0,0-1.3-2.8-3.7-6.9C346.8,405.8,357.6,393.7,357.6,379.3z M315.6,370.8c2.3,0,4.2,1.8,4.3,4.1c0,2.3-1.9,4.1-4.2,4.1
				c0,0-0.1,0-0.1,0c-2.3,0-4.2-1.8-4.3-4.1C311.6,372.7,313.4,371,315.6,370.8z M313.3,414.7c-2.3,0-4.1-1.8-4.1-4.1
				s1.8-4.1,4.1-4.1c2.3,0,4.1,1.8,4.1,4.1C317.3,412.8,315.5,414.6,313.3,414.7z"/>
			<path class="st7" d="M519.5,442c-4.4-3.9-9.9-6.3-15.8-6.9c2.8,13.4,14.6,23,28.3,22.9h1.1C529.6,451.9,525,446.5,519.5,442z"/>
			<path class="st6" d="M431.6,297.3c0-16-13-29-29-29h-2.2c-6.3,0.4-12.2,2.9-16.9,7.1c-7,6-12.7,13.3-16.6,21.6h6.9
				c0,2,0.2,3.9,0.6,5.8c-0.4,0-0.7,0-1.1-0.2h-2.2c-16,0-29,13-29,29c0,16,13,29,29,29l0,0c16,0,29-13,29-29h6.9
				c-0.9-1.9-1.9-3.8-3-5.6C419.5,325.3,431.6,312.6,431.6,297.3z M390.1,288.8c2.3,0,4.1,1.8,4.1,4.1s-1.8,4.1-4.1,4.1
				c-2.3,0-4.1-1.8-4.1-4.1c0,0,0,0,0,0c-0.1-2.2,1.6-4,3.8-4.1C389.9,288.8,390,288.8,390.1,288.8z M383.6,331.8
				c-2.3,0-4.1-1.8-4.1-4.1s1.8-4.1,4.1-4.1c2.3,0,4.1,1.8,4.1,4.1c0,0,0,0,0,0c0.1,2.2-1.6,4-3.8,4.1
				C383.8,331.8,383.7,331.8,383.6,331.8z"/>
			<path class="st7" d="M390.1,310c-4.4-3.9-9.9-6.3-15.8-6.9c2.8,13.4,14.6,23,28.3,22.9h1.1C400.1,319.9,395.5,314.5,390.1,310z"
				/>
			<path class="st7" d="M471.5,345.4h6.9v1.7c5.1-1.7,9.7-4.7,13.2-8.9l0,0c4.5-5.1,6.9-11.8,6.9-18.6h6.9c-0.4-1-0.9-1.9-1.5-2.8
				c-5.8,0.7-11.3,3.1-15.8,6.9C481.2,329.8,475.5,337.1,471.5,345.4z"/>
			<path class="st7" d="M319.5,521.3c12.4-0.1,23.4-8.1,27.2-19.9c-0.9-0.2-1.7-0.2-2.6-0.4H342c-12.5,0.1-23.5,8.1-27.4,19.9
				c1.6,0.3,3.2,0.4,4.8,0.4H319.5z"/>
			<path class="st7" d="M319.7,393.1c-4.6-4.2-10.6-6.7-16.9-7.1h-2.6c3.1,13,14.7,22.2,28.1,22.3h0.2c1.5,0,2.8-0.2,4.1-0.2
				C329.2,402.4,324.8,397.4,319.7,393.1z"/>
			<path class="st6" d="M349.8,287.2c0-16-13-29-29-29c0,0-0.1,0-0.1,0h-2.4c-6.3,0.4-12.3,2.9-17.1,7.1c-7,6-12.8,13.3-16.9,21.6
				h6.9c0,2.2,0.3,4.4,0.9,6.5c-15.9,0.3-28.6,13.5-28.3,29.4c0.3,15.9,13.5,28.6,29.4,28.3c15.8-0.3,28.4-13.2,28.3-28.9h6.9
				c0,0-1.3-2.8-3.7-6.9C339.1,313.8,349.9,301.6,349.8,287.2z M307.9,278.8c2.3,0,4.2,1.8,4.3,4.1c0,2.3-1.9,4.1-4.2,4.1
				c0,0-0.1,0-0.1,0c-2.3,0-4.2-1.8-4.3-4.1C303.8,280.7,305.7,278.9,307.9,278.8z M305.5,322.7c-2.3,0-4.1-1.8-4.1-4.1
				c0-2.3,1.8-4.1,4.1-4.1c2.3,0,4.1,1.8,4.1,4.1C309.5,320.8,307.8,322.5,305.5,322.7z"/>
			<path class="st7" d="M312,301c-4.6-4.2-10.6-6.7-16.9-7.1h-2.6c3.1,13,14.7,22.2,28.1,22.3h0.2c1.5,0,2.8-0.2,4.1-0.2
				C321.4,310.4,317.1,305.3,312,301z"/>
		</g>
	</g>
</g>
</svg>
