<?xml version="1.0" encoding="utf-8"?>
<!-- Generator: Adobe Illustrator 20.1.0, SVG Export Plug-In . SVG Version: 6.00 Build 0)  -->
<svg version="1.1" id="Layer_1" xmlns="http://www.w3.org/2000/svg" xmlns:xlink="http://www.w3.org/1999/xlink" x="0px" y="0px"
	 viewBox="0 0 800 72.2" style="enable-background:new 0 0 800 72.2;" xml:space="preserve">
<style type="text/css">
	.st0{fill:#848E9A;}
	.st1{fill:#E8453A;}
	.st2{fill:#626C77;}
</style>
<polygon class="st0" points="794,30.1 786.5,30.1 210,30.1 216,36.1 210,42.1 786.5,42.1 794,42.1 800,36.1 "/>
<polygon class="st1" points="194,30.1 186.5,30.1 0,30.1 6,36.1 0,42.1 186.5,42.1 194,42.1 200,36.1 "/>
<g>
	<path class="st0" d="M20.4,7.5c0-0.4-0.2-0.8-0.5-1S19,6,18.2,5.8S16.8,5.3,16.3,5C15.4,4.4,15,3.7,15,2.8c0-0.8,0.3-1.5,1-2
		S17.4,0,18.5,0c0.7,0,1.3,0.1,1.9,0.4s1,0.6,1.3,1.1s0.5,1,0.5,1.6h-1.7c0-0.5-0.2-0.9-0.5-1.2s-0.8-0.4-1.4-0.4
		c-0.6,0-1,0.1-1.3,0.4s-0.5,0.6-0.5,1c0,0.4,0.2,0.7,0.5,0.9s0.9,0.5,1.7,0.7s1.4,0.5,1.9,0.8s0.8,0.6,1,1s0.3,0.8,0.3,1.3
		c0,0.8-0.3,1.5-1,2s-1.5,0.7-2.6,0.7c-0.7,0-1.4-0.1-2-0.4s-1.1-0.6-1.4-1.1s-0.5-1-0.5-1.6h1.7c0,0.6,0.2,1,0.6,1.3
		s0.9,0.5,1.6,0.5c0.6,0,1.1-0.1,1.4-0.4S20.4,7.9,20.4,7.5z"/>
	<path class="st0" d="M33.6,5.6h-4.1v3.1h4.8v1.4h-6.5v-10h6.5v1.4h-4.7v2.7h4.1V5.6z"/>
	<path class="st0" d="M47.9,5.4c0,1-0.2,1.8-0.5,2.6s-0.8,1.3-1.4,1.7s-1.3,0.6-2.2,0.6c-0.8,0-1.5-0.2-2.2-0.6s-1.1-1-1.5-1.7
		s-0.5-1.6-0.5-2.5V4.9c0-1,0.2-1.8,0.5-2.6S41,1,41.6,0.6S42.9,0,43.7,0s1.5,0.2,2.2,0.6s1.1,1,1.5,1.7s0.5,1.6,0.5,2.6V5.4z
		 M46.1,4.9c0-1.1-0.2-1.9-0.6-2.5s-1-0.9-1.8-0.9c-0.7,0-1.3,0.3-1.8,0.9s-0.6,1.4-0.6,2.5v0.6c0,1.1,0.2,1.9,0.6,2.5
		s1,0.9,1.8,0.9c0.8,0,1.4-0.3,1.8-0.9s0.6-1.4,0.6-2.6V4.9z"/>
	<path class="st0" d="M69.4,5.4c0,1-0.2,1.8-0.5,2.6s-0.8,1.3-1.4,1.7s-1.3,0.6-2.2,0.6c-0.8,0-1.5-0.2-2.2-0.6S62,8.7,61.7,8
		s-0.5-1.6-0.5-2.5V4.9c0-1,0.2-1.8,0.5-2.6s0.8-1.3,1.5-1.7S64.5,0,65.3,0s1.5,0.2,2.2,0.6s1.1,1,1.5,1.7s0.5,1.6,0.5,2.6V5.4z
		 M67.7,4.9c0-1.1-0.2-1.9-0.6-2.5s-1-0.9-1.8-0.9c-0.7,0-1.3,0.3-1.8,0.9s-0.6,1.4-0.6,2.5v0.6c0,1.1,0.2,1.9,0.6,2.5
		s1,0.9,1.8,0.9c0.8,0,1.4-0.3,1.8-0.9s0.6-1.4,0.6-2.6V4.9z"/>
	<path class="st0" d="M77.1,6.4v3.7h-1.7v-10h3.8c1.1,0,2,0.3,2.6,0.9s1,1.3,1,2.3c0,1-0.3,1.7-1,2.3s-1.5,0.8-2.7,0.8H77.1z
		 M77.1,5h2.1c0.6,0,1.1-0.1,1.4-0.4S81,3.9,81,3.3c0-0.5-0.2-1-0.5-1.3s-0.8-0.5-1.4-0.5h-2.1V5z"/>
	<path class="st0" d="M95.7,1.5h-3.1v8.6h-1.7V1.5h-3.1V0.1h7.9V1.5z"/>
	<path class="st0" d="M103,10.1h-1.7v-10h1.7V10.1z"/>
	<path class="st0" d="M111.6,0.1l2.9,7.6l2.9-7.6h2.2v10h-1.7V6.8l0.2-4.4l-2.9,7.7h-1.2l-2.9-7.7l0.2,4.4v3.3h-1.7v-10H111.6z"/>
	<path class="st0" d="M131.6,5.6h-4.1v3.1h4.8v1.4h-6.5v-10h6.5v1.4h-4.7v2.7h4.1V5.6z"/>
	<path class="st0" d="M141.6,6.3h-1.9v3.8h-1.7v-10h3.5c1.1,0,2,0.3,2.7,0.8c0.6,0.5,0.9,1.3,0.9,2.2c0,0.7-0.2,1.2-0.5,1.7
		s-0.8,0.8-1.3,1l2.2,4.1v0.1h-1.9L141.6,6.3z M139.6,4.9h1.8c0.6,0,1-0.1,1.4-0.4s0.5-0.7,0.5-1.2c0-0.5-0.2-0.9-0.5-1.2
		s-0.8-0.4-1.4-0.5h-1.8V4.9z"/>
	<path class="st0" d="M152.7,10.1h-1.7v-10h1.7V10.1z"/>
	<path class="st0" d="M166.9,10.1h-1.7L160.7,3v7.1H159v-10h1.7l4.5,7.1V0.1h1.7V10.1z"/>
	<path class="st0" d="M180.8,8.8c-0.4,0.5-0.9,0.8-1.5,1.1s-1.4,0.4-2.2,0.4c-0.8,0-1.6-0.2-2.2-0.6s-1.1-0.9-1.5-1.6
		s-0.5-1.5-0.5-2.5V4.8c0-1.5,0.4-2.7,1.1-3.5s1.7-1.3,3-1.3c1.1,0,2,0.3,2.6,0.8s1,1.3,1.2,2.4h-1.7c-0.2-1.2-0.9-1.8-2.1-1.8
		c-0.8,0-1.4,0.3-1.8,0.8c-0.4,0.6-0.6,1.4-0.6,2.5v0.8c0,1.1,0.2,1.9,0.7,2.5s1.1,0.9,1.9,0.9c0.9,0,1.5-0.2,1.9-0.6V6.3H177V5h3.8
		V8.8z"/>
</g>
<g>
	<path class="st0" d="M67.3,66.4h1c0.5,0,0.9-0.1,1.2-0.4s0.4-0.6,0.4-1.1c0-0.5-0.1-0.8-0.4-1.1c-0.2-0.3-0.6-0.4-1.1-0.4
		c-0.4,0-0.8,0.1-1.1,0.4c-0.3,0.3-0.4,0.6-0.4,1h-1.7c0-0.5,0.1-1,0.4-1.4c0.3-0.4,0.6-0.7,1.1-1c0.5-0.2,1-0.4,1.6-0.4
		c1,0,1.8,0.2,2.3,0.7s0.9,1.2,0.9,2.1c0,0.4-0.1,0.9-0.4,1.3c-0.3,0.4-0.7,0.7-1.1,0.9c0.5,0.2,1,0.5,1.2,0.9
		c0.3,0.4,0.4,0.9,0.4,1.4c0,0.9-0.3,1.6-0.9,2.1c-0.6,0.5-1.4,0.8-2.4,0.8c-1,0-1.7-0.3-2.4-0.8c-0.6-0.5-0.9-1.2-0.9-2h1.7
		c0,0.4,0.1,0.8,0.4,1.1s0.7,0.4,1.2,0.4c0.5,0,0.9-0.1,1.2-0.4s0.4-0.7,0.4-1.2c0-0.5-0.2-0.9-0.5-1.2c-0.3-0.3-0.8-0.4-1.4-0.4h-1
		V66.4z"/>
	<path class="st0" d="M87.8,62.1l2.9,7.6l2.9-7.6h2.2v10H94v-3.3l0.2-4.4l-2.9,7.7H90l-2.9-7.7l0.2,4.4v3.3h-1.7v-10H87.8z"/>
	<path class="st0" d="M102,72.1v-10h2.9c0.9,0,1.7,0.2,2.3,0.6c0.7,0.4,1.2,0.9,1.6,1.7c0.4,0.7,0.6,1.5,0.6,2.5v0.5
		c0,0.9-0.2,1.8-0.6,2.5c-0.4,0.7-0.9,1.3-1.6,1.7c-0.7,0.4-1.5,0.6-2.4,0.6H102z M103.7,63.5v7.2h1.1c0.9,0,1.6-0.3,2.1-0.9
		s0.7-1.4,0.7-2.4v-0.6c0-1.1-0.2-1.9-0.7-2.5c-0.5-0.6-1.2-0.9-2-0.9H103.7z"/>
	<path class="st0" d="M119,68.3H117v3.8h-1.7v-10h3.5c1.1,0,2,0.3,2.7,0.8s0.9,1.3,0.9,2.2c0,0.7-0.2,1.2-0.5,1.7s-0.8,0.8-1.3,1
		l2.2,4.1v0.1H121L119,68.3z M117,66.9h1.8c0.6,0,1-0.1,1.4-0.4s0.5-0.7,0.5-1.2c0-0.5-0.2-0.9-0.5-1.2c-0.3-0.3-0.8-0.4-1.4-0.5
		H117V66.9z"/>
	<path class="st0" d="M129.1,70.3c0.3,0,0.5,0.1,0.7,0.3c0.2,0.2,0.3,0.4,0.3,0.7c0,0.3-0.1,0.5-0.3,0.6s-0.4,0.3-0.7,0.3
		c-0.3,0-0.5-0.1-0.7-0.3c-0.2-0.2-0.3-0.4-0.3-0.6c0-0.3,0.1-0.5,0.3-0.7C128.6,70.4,128.8,70.3,129.1,70.3z"/>
</g>
<g>
	<g>
		<g>
			<path class="st2" d="M416.4,7.9l2.5-7.8h1.9l-3.6,10h-1.7l-3.6-10h1.9L416.4,7.9z"/>
			<path class="st2" d="M431.9,5.6h-4.1v3.1h4.8v1.4h-6.5v-10h6.5v1.4h-4.7v2.7h4.1V5.6z"/>
			<path class="st2" d="M438.2,10.1v-10h2.9c0.9,0,1.7,0.2,2.3,0.6c0.7,0.4,1.2,0.9,1.6,1.7c0.4,0.7,0.6,1.5,0.6,2.5v0.5
				c0,0.9-0.2,1.8-0.6,2.5s-0.9,1.3-1.6,1.7c-0.7,0.4-1.5,0.6-2.4,0.6H438.2z M440,1.5v7.2h1.1c0.9,0,1.6-0.3,2.1-0.9
				s0.7-1.4,0.7-2.4V4.9c0-1.1-0.2-1.9-0.7-2.5c-0.5-0.6-1.2-0.9-2-0.9H440z"/>
			<path class="st2" d="M453.3,8.7h4.5v1.4h-6.2v-10h1.7V8.7z"/>
			<path class="st2" d="M465.2,10.1h-1.7v-10h1.7V10.1z"/>
			<path class="st2" d="M479.1,8.8c-0.4,0.5-0.9,0.8-1.5,1.1c-0.6,0.2-1.4,0.4-2.2,0.4c-0.8,0-1.6-0.2-2.2-0.6s-1.1-0.9-1.5-1.6
				s-0.5-1.5-0.5-2.5V4.8c0-1.5,0.4-2.7,1.1-3.5c0.7-0.8,1.7-1.3,3-1.3c1.1,0,2,0.3,2.6,0.8c0.7,0.5,1,1.3,1.2,2.4h-1.7
				c-0.2-1.2-0.9-1.8-2.1-1.8c-0.8,0-1.4,0.3-1.8,0.8c-0.4,0.6-0.6,1.4-0.6,2.5v0.8c0,1.1,0.2,1.9,0.7,2.5c0.5,0.6,1.1,0.9,1.9,0.9
				c0.9,0,1.5-0.2,1.9-0.6V6.3h-2.1V5h3.8V8.8z"/>
			<path class="st2" d="M491.1,5.6H487v3.1h4.8v1.4h-6.5v-10h6.5v1.4H487v2.7h4.1V5.6z"/>
			<path class="st2" d="M505.3,10.1h-1.7V5.7h-4.5v4.4h-1.7v-10h1.7v4.1h4.5V0.1h1.7V10.1z"/>
			<path class="st2" d="M519.5,5.4c0,1-0.2,1.8-0.5,2.6c-0.3,0.7-0.8,1.3-1.4,1.7c-0.6,0.4-1.3,0.6-2.2,0.6c-0.8,0-1.5-0.2-2.2-0.6
				c-0.6-0.4-1.1-1-1.5-1.7c-0.3-0.7-0.5-1.6-0.5-2.5V4.9c0-1,0.2-1.8,0.5-2.6c0.3-0.7,0.8-1.3,1.5-1.7c0.6-0.4,1.3-0.6,2.2-0.6
				c0.8,0,1.5,0.2,2.2,0.6c0.6,0.4,1.1,1,1.5,1.7s0.5,1.6,0.5,2.6V5.4z M517.7,4.9c0-1.1-0.2-1.9-0.6-2.5s-1-0.9-1.8-0.9
				c-0.7,0-1.3,0.3-1.8,0.9c-0.4,0.6-0.6,1.4-0.6,2.5v0.6c0,1.1,0.2,1.9,0.6,2.5c0.4,0.6,1,0.9,1.8,0.9c0.8,0,1.4-0.3,1.8-0.9
				c0.4-0.6,0.6-1.4,0.6-2.6V4.9z"/>
			<path class="st2" d="M527.1,8.7h4.5v1.4h-6.2v-10h1.7V8.7z"/>
			<path class="st2" d="M537.1,10.1v-10h2.9c0.9,0,1.7,0.2,2.3,0.6c0.7,0.4,1.2,0.9,1.6,1.7c0.4,0.7,0.6,1.5,0.6,2.5v0.5
				c0,0.9-0.2,1.8-0.6,2.5s-0.9,1.3-1.6,1.7c-0.7,0.4-1.5,0.6-2.4,0.6H537.1z M538.9,1.5v7.2h1.1c0.9,0,1.6-0.3,2.1-0.9
				s0.7-1.4,0.7-2.4V4.9c0-1.1-0.2-1.9-0.7-2.5c-0.5-0.6-1.2-0.9-2-0.9H538.9z"/>
			<path class="st2" d="M556.3,5.6h-4.1v3.1h4.8v1.4h-6.5v-10h6.5v1.4h-4.7v2.7h4.1V5.6z"/>
			<path class="st2" d="M564.3,8.7h4.5v1.4h-6.2v-10h1.7V8.7z"/>
			<path class="st2" d="M579.6,7.5c0-0.4-0.2-0.8-0.5-1s-0.9-0.5-1.7-0.7c-0.8-0.2-1.4-0.5-1.9-0.8c-0.9-0.6-1.4-1.3-1.4-2.2
				c0-0.8,0.3-1.5,1-2c0.7-0.5,1.5-0.8,2.5-0.8c0.7,0,1.3,0.1,1.9,0.4c0.5,0.3,1,0.6,1.3,1.1c0.3,0.5,0.5,1,0.5,1.6h-1.7
				c0-0.5-0.2-0.9-0.5-1.2c-0.3-0.3-0.8-0.4-1.4-0.4c-0.6,0-1,0.1-1.3,0.4c-0.3,0.2-0.5,0.6-0.5,1c0,0.4,0.2,0.7,0.5,0.9
				c0.3,0.2,0.9,0.5,1.7,0.7c0.8,0.2,1.4,0.5,1.9,0.8c0.5,0.3,0.8,0.6,1,1s0.3,0.8,0.3,1.3c0,0.8-0.3,1.5-1,2s-1.5,0.7-2.6,0.7
				c-0.7,0-1.4-0.1-2-0.4c-0.6-0.3-1.1-0.6-1.4-1.1s-0.5-1-0.5-1.6h1.7c0,0.6,0.2,1,0.6,1.3c0.4,0.3,0.9,0.5,1.6,0.5
				c0.6,0,1.1-0.1,1.4-0.4C579.4,8.2,579.6,7.9,579.6,7.5z"/>
			<path class="st2" d="M592.9,5.6h-4.1v3.1h4.8v1.4H587v-10h6.5v1.4h-4.7v2.7h4.1V5.6z"/>
		</g>
		<g>
			<path class="st2" d="M475.1,67.9c-0.6,0.6-1.2,0.9-1.9,0.9c-0.9,0-1.6-0.3-2.1-0.9c-0.5-0.6-0.8-1.4-0.8-2.4
				c0-0.7,0.1-1.3,0.4-1.8c0.3-0.5,0.6-0.9,1.1-1.2c0.5-0.3,1.1-0.4,1.7-0.4c1,0,1.8,0.4,2.4,1.1c0.6,0.7,0.9,1.7,0.9,3v0.5
				c0,1.8-0.4,3.2-1.2,4.1c-0.8,0.9-2,1.4-3.6,1.4h-0.2v-1.4h0.2c1,0,1.7-0.2,2.3-0.7C474.8,69.6,475,68.9,475.1,67.9z M473.5,67.5
				c0.3,0,0.6-0.1,0.9-0.3c0.3-0.2,0.5-0.5,0.7-0.8v-0.6c0-0.7-0.2-1.3-0.5-1.8c-0.3-0.4-0.7-0.7-1.2-0.7s-0.9,0.2-1.1,0.6
				c-0.3,0.4-0.4,0.9-0.4,1.5c0,0.6,0.1,1.1,0.4,1.5S473,67.5,473.5,67.5z"/>
			<path class="st2" d="M492.8,62.1l2.9,7.6l2.9-7.6h2.2v10H499v-3.3l0.2-4.4l-2.9,7.7H495l-2.9-7.7l0.2,4.4v3.3h-1.7v-10H492.8z"/>
			<path class="st2" d="M507,72.1v-10h2.9c0.9,0,1.7,0.2,2.3,0.6c0.7,0.4,1.2,0.9,1.6,1.7c0.4,0.7,0.6,1.5,0.6,2.5v0.5
				c0,0.9-0.2,1.8-0.6,2.5c-0.4,0.7-0.9,1.3-1.6,1.7c-0.7,0.4-1.5,0.6-2.4,0.6H507z M508.7,63.5v7.2h1.1c0.9,0,1.6-0.3,2.1-0.9
				s0.7-1.4,0.7-2.4v-0.6c0-1.1-0.2-1.9-0.7-2.5c-0.5-0.6-1.2-0.9-2-0.9H508.7z"/>
			<path class="st2" d="M524,68.3H522v3.8h-1.7v-10h3.5c1.1,0,2,0.3,2.7,0.8c0.6,0.5,0.9,1.3,0.9,2.2c0,0.7-0.2,1.2-0.5,1.7
				s-0.8,0.8-1.3,1l2.2,4.1v0.1H526L524,68.3z M522,66.9h1.8c0.6,0,1-0.1,1.4-0.4s0.5-0.7,0.5-1.2c0-0.5-0.2-0.9-0.5-1.2
				c-0.3-0.3-0.8-0.4-1.4-0.5H522V66.9z"/>
			<path class="st2" d="M534.1,70.3c0.3,0,0.5,0.1,0.7,0.3c0.2,0.2,0.3,0.4,0.3,0.7c0,0.3-0.1,0.5-0.3,0.6c-0.2,0.2-0.4,0.3-0.7,0.3
				c-0.3,0-0.5-0.1-0.7-0.3c-0.2-0.2-0.3-0.4-0.3-0.6c0-0.3,0.1-0.5,0.3-0.7C533.6,70.4,533.8,70.3,534.1,70.3z"/>
		</g>
	</g>
</g>
</svg>
