<?xml version="1.0" encoding="utf-8"?>
<!-- Generator: Adobe Illustrator 19.2.0, SVG Export Plug-In . SVG Version: 6.00 Build 0)  -->
<svg version="1.1" id="Layer_1" xmlns="http://www.w3.org/2000/svg" xmlns:xlink="http://www.w3.org/1999/xlink" x="0px" y="0px"
	 viewBox="0 0 704.6 331.7" style="enable-background:new 0 0 704.6 331.7;" xml:space="preserve">
<style type="text/css">
	.st0{display:none;}
	.st1{display:inline;}
	.st2{fill:#DF4C36;}
	.st3{fill:#FAFAFA;}
	.st4{fill:#F0F0F0;}
	.st5{fill:none;stroke:#DADADA;stroke-width:1.5;stroke-miterlimit:10;}
	.st6{fill:#FADBD7;}
	.st7{fill:#C6C6C6;}
	.st8{fill:#E5EBF5;}
	.st9{fill:#E6F2EC;}
	.st10{fill:#EEEDED;}
	.st11{fill:#FFFFFF;stroke:#DADADA;stroke-width:1.5;stroke-linecap:round;stroke-linejoin:round;stroke-miterlimit:10;}
	.st12{fill:#547DBE;}
	.st13{fill:#DC3336;}
	.st14{fill:#F4C30F;}
	.st15{fill:#4EB056;}
	.st16{fill:none;stroke:#FFFFFF;stroke-width:1.5;stroke-linecap:round;stroke-linejoin:round;stroke-miterlimit:10;}
</style>
<g id="Layer_1_1_" class="st0">
	<g id="n0Ad0Z.tif" class="st1">
		
			<image style="overflow:visible;enable-background:new    ;" width="721" height="356" id="Layer_1_2_" xlink:href="E371AABD3DF5C45F.png"  transform="matrix(0.9986 0 0 0.9972 0.75 -23.3032)">
		</image>
	</g>
</g>
<g>
	<g id="Layer_2">
		<rect x="96.8" y="118.5" class="st2" width="26.6" height="2.5"/>
		<path class="st3" d="M699.5,0.7H5c-2.3,0-4.2,2-4.2,4.3v24.9h703.1V5C703.8,2.7,701.9,0.7,699.5,0.7z"/>
		<rect x="0.8" y="29.9" class="st4" width="703.1" height="52.5"/>
		<path class="st5" d="M0.8,331.7V5c0-2.4,1.9-4.3,4.3-4.3h694.5c2.4,0,4.3,1.9,4.3,4.3v326.7"/>
		<line class="st5" x1="0.8" y1="29.9" x2="703.8" y2="29.9"/>
		<line class="st5" x1="0.8" y1="82.4" x2="703.8" y2="82.4"/>
		<line class="st5" x1="0.8" y1="120.9" x2="703.8" y2="120.9"/>
		<rect x="100.8" y="98.1" class="st6" width="17.8" height="6.2"/>
		<rect x="143.2" y="98.1" class="st4" width="27.4" height="6.2"/>
		<rect x="193.9" y="98.1" class="st4" width="26.5" height="6.2"/>
		<rect x="243.9" y="98.1" class="st4" width="35.7" height="6.2"/>
		<rect x="303.7" y="98.1" class="st4" width="22.1" height="6.2"/>
		<rect x="348.9" y="98.1" class="st4" width="19.9" height="6.2"/>
		<rect x="401.6" y="98.1" class="st4" width="10.3" height="6.2"/>
		<polygon class="st7" points="372.8,100.1 377,100.1 374.9,102.9 		"/>
		<g>
			<rect x="94.1" y="150.9" class="st8" width="245" height="11"/>
			<rect x="94.1" y="169.9" class="st9" width="122.5" height="7.3"/>
			<rect x="94.1" y="240.5" class="st8" width="245" height="11"/>
			<rect x="94.1" y="259.5" class="st9" width="122.5" height="7.3"/>
			<rect x="94.1" y="185.3" class="st10" width="352.3" height="7.3"/>
			<rect x="94.1" y="200.6" class="st10" width="362.8" height="7.3"/>
			<rect x="94.1" y="215.9" class="st10" width="176.2" height="7.3"/>
		</g>
		<g>
			<rect x="514.5" y="150.9" class="st9" width="88.7" height="8"/>
			<rect x="514.5" y="165.3" class="st10" width="114.1" height="8"/>
			<rect x="514.5" y="179.6" class="st10" width="88.7" height="8"/>
			<rect x="514.5" y="236.9" class="st9" width="88.7" height="8"/>
			<rect x="514.5" y="251.3" class="st10" width="114.1" height="8"/>
			<rect x="514.5" y="265.6" class="st10" width="88.7" height="8"/>
			<rect x="514.5" y="219.6" class="st8" width="107.3" height="10.3"/>
		</g>
	</g>
	<g id="Layer_3">
		<rect x="93.8" y="45.4" class="st11" width="411.3" height="21.3"/>
		<g>
			<path id="path2998" class="st12" d="M31.3,54H23v2.5h5.9c-0.3,3.4-3.2,4.9-5.9,4.9c-3.5,0-6.5-2.7-6.5-6.5c0-3.7,2.9-6.6,6.5-6.6
				c2.8,0,4.4,1.8,4.4,1.8l1.7-1.8c0,0-2.2-2.5-6.2-2.5c-5.1,0-9.1,4.3-9.1,9c0,4.6,3.7,9.1,9.2,9.1c4.8,0,8.4-3.3,8.4-8.2
				C31.4,54.6,31.3,54,31.3,54L31.3,54z"/>
			<path id="path3000" class="st13" d="M38.1,52.2c-3.4,0-5.8,2.7-5.8,5.8s2.4,5.9,5.9,5.9c3.2,0,5.8-2.4,5.8-5.8
				C43.9,54.2,40.9,52.2,38.1,52.2L38.1,52.2z M38.1,54.5c1.7,0,3.3,1.4,3.3,3.5s-1.6,3.5-3.3,3.5c-1.9,0-3.3-1.5-3.3-3.5
				S36.2,54.5,38.1,54.5L38.1,54.5z"/>
			<path id="path3005" class="st14" d="M50.8,52.2c-3.4,0-5.8,2.7-5.8,5.8s2.4,5.9,5.9,5.9c3.2,0,5.8-2.4,5.8-5.8
				C56.6,54.2,53.6,52.2,50.8,52.2L50.8,52.2z M50.8,54.5c1.7,0,3.3,1.4,3.3,3.5s-1.6,3.5-3.3,3.5c-1.9,0-3.3-1.5-3.3-3.5
				S48.9,54.5,50.8,54.5L50.8,54.5z"/>
			<path id="path3007" class="st12" d="M63.2,52.2c-3.1,0-5.6,2.7-5.6,5.8c0,3.5,2.8,5.8,5.5,5.8c1.7,0,2.5-0.7,3.2-1.4v1.1
				c0,2-1.2,3.2-3.1,3.2c-1.8,0-2.7-1.3-3-2.1L58,65.5c0.8,1.7,2.4,3.4,5.2,3.4c3.1,0,5.5-2,5.5-6.1V52.6h-2.4v1
				C65.6,52.8,64.6,52.2,63.2,52.2L63.2,52.2z M63.5,54.5c1.5,0,3.1,1.3,3.1,3.5c0,2.3-1.6,3.5-3.1,3.5c-1.7,0-3.2-1.4-3.2-3.5
				C60.2,55.8,61.8,54.5,63.5,54.5L63.5,54.5z"/>
			<path id="path3011" class="st13" d="M79.6,52.2c-2.9,0-5.4,2.3-5.4,5.8c0,3.7,2.8,5.8,5.7,5.8c2.5,0,4-1.3,4.9-2.5l-2-1.3
				c-0.5,0.8-1.4,1.6-2.8,1.6c-1.6,0-2.4-0.9-2.8-1.8l7.8-3.2l-0.4-0.9C83.7,53.8,82,52.2,79.6,52.2L79.6,52.2z M79.7,54.5
				c1.1,0,1.8,0.6,2.1,1.2l-5.2,2.2C76.5,56.2,78.1,54.5,79.7,54.5L79.7,54.5z"/>
			<path id="path3015" class="st15" d="M70.5,63.5h2.6V46.4h-2.6V63.5z"/>
		</g>
		<path class="st12" d="M565.4,66.8h-48.1c-1,0-1.8-0.8-1.8-1.8V47.2c0-1,0.8-1.8,1.8-1.8h48.1c1,0,1.8,0.8,1.8,1.8V65
			C567.1,66,566.3,66.8,565.4,66.8z"/>
		<circle class="st11" cx="13.1" cy="16.1" r="4.1"/>
		<circle class="st11" cx="27.3" cy="16.1" r="4.1"/>
		<circle class="st11" cx="42.2" cy="16.1" r="4.1"/>
	</g>
	<g id="Layer_4">
		<circle class="st16" cx="540.7" cy="55.2" r="3.2"/>
		<line class="st16" x1="544.7" y1="59.9" x2="542.6" y2="57.8"/>
	</g>
</g>
<path class="st12" d="M372.4,199.5V74.8c0-2.4-2-4.4-4.4-4.4h-31.4c-2.4,0-4.4,2-4.4,4.4v124.7c0,2.4-2,4.4-4.4,4.4h-13.8
	c-3.6,0-5.7,4.2-3.4,7l38.2,49.4c1.7,2.3,5.2,2.3,6.9,0l38.2-49.4c2.2-2.9,0.2-7-3.4-7h-13.8C374.3,203.9,372.4,201.9,372.4,199.5z"
	/>
</svg>
