<?xml version="1.0" encoding="utf-8"?>
<!-- Generator: Adobe Illustrator 19.2.0, SVG Export Plug-In . SVG Version: 6.00 Build 0)  -->
<svg version="1.1" id="Layer_1" xmlns="http://www.w3.org/2000/svg" xmlns:xlink="http://www.w3.org/1999/xlink" x="0px" y="0px"
	 viewBox="0 0 735.8 223.2" style="enable-background:new 0 0 735.8 223.2;" xml:space="preserve">
<style type="text/css">
	.st0{fill:#252C63;}
	.st1{fill:#FFFFFF;}
</style>
<g id="yNZUDg_1_">
	<g>
		<path class="st0" d="M110.3,0c61-0.1,110.2,49.7,110.4,111.5c0.1,61.3-49.6,111.6-110.4,111.7C49.7,223.2,0.1,173,0,111.5
			C-0.1,49.9,49.3,0.1,110.3,0z M57.9,144.4c0.1,5.3,2.4,7.8,7.4,7.9c1.9,0.1,3.9,0.7,5.8,1.4c9.3,3.5,18.5,3.5,27.7-0.1
			c7.6-2.9,15.3-3,22.9,0c9.3,3.6,18.5,3.7,27.7,0.1c2-0.8,4.2-1.5,6.3-1.5c5.2-0.1,6.7-3.2,7-7.8c-1.6-0.3-3-0.5-4.2-0.7
			c0-11.9-0.2-23.5,0.1-35.1c0.1-2.7,1-6,2.7-7.8c5.2-5.3,3-11.3,3.4-17.4c-3.7,0-6.8,0-10.1,0c-0.3,2-0.5,3.7-0.8,5.6
			c-3,0-5.8,0-8.6,0c-0.3-2.1-0.5-3.9-0.7-5.5c-3.5,0-6.6,0-9.6,0c-0.3,2.1-0.5,3.9-0.7,5.5c-3.1,0-5.8,0-8.5,0
			c-0.3-2.1-0.6-3.9-0.9-5.5c-3.5,0-6.6,0-9.7,0c-0.3,2.1-0.5,3.8-0.8,5.5c-3.1,0-5.8,0-8.4,0c-0.2-2-0.3-3.7-0.5-5.5
			c-3.4,0-6.7,0-10.1,0c-0.2,2-0.4,3.8-0.6,5.6c-3,0-5.8,0-8.5,0c-0.3-2.1-0.5-3.8-0.8-5.6c-3.4,0-6.5,0-9.6,0
			c-0.3,2.1-0.5,3.8-0.8,5.5c-3,0-5.7,0-8.5,0c-0.2-2-0.4-3.7-0.7-5.5c-3.3,0-6.5,0-10.9,0c0.8,5.2,1.2,10.1,2.4,14.7
			c1.3,5,4.5,9.8,4.9,14.8c0.8,9.6,0.3,19.3,0.2,28.9c0,0.6-0.4,1.2-0.5,1.8C60.7,144,59.4,144.2,57.9,144.4z M126.1,79.4
			c13.3,0,26.3,0,40,0c-5.8-8.9-11.2-17.3-17.3-26.9c-1.1,0.9-2.8,2.4-5.2,4.4c-1.3,0-3.7,0-6.2,0c-0.3-1.5-0.6-2.7-1.1-5.4
			c-3,1.6-5.4,2.9-7.8,4.1c0.2,0.4,0.4,0.8,0.7,1.2c-1.6,0.2-3.2,0.5-5,0.8C124.8,65,125.4,72.1,126.1,79.4z M71.8,52.6
			c-6.2,9.7-11.5,18-17.3,27.1c13.2,0,25.3,0,37.4-0.1c1,0,2.7-1.2,2.8-2c0.8-6.7,1.2-13.4,1.8-20.2c-2.1-0.2-3.5-0.3-4.9-0.5
			c-1.4-4-6.6-6.1-7.2-3.4c-1.4,5.7-5.2,2.9-8.8,3.7C75.8,53.4,74.2,51.7,71.8,52.6z M156.9,157.2c-3.1,0.8-5.5,1.3-7.8,2.1
			c-8.8,3.2-17.5,3.4-26.3,0c-8.4-3.2-16.9-3.1-25.3,0.1c-8.3,3.2-16.5,3.2-24.8,0.2c-2.6-1-5.5-1.4-9-2.3
			c4.6,7.6,10.3,11.9,18.2,11.9c4.7,0,9.8-0.3,14.2-1.8c9.7-3.4,19.1-3.6,28.7,0.2c1.5,0.6,3.2,1.1,4.8,1.3
			C141.5,170.6,150.4,168.8,156.9,157.2z M109.9,51.3c2.2,0,4.3,0,6.5,0c6,0,9.5-4.5,7.3-10.1c-1.1-2.6-4-4.5-6.1-6.7
			c-1.3-1.4-2.7-2.7-4.2-4c-0.9-0.8-2-2.1-3-2.1c-1,0-2.1,1.1-3.1,2c-1.4,1.3-2.6,2.8-4.1,4.1c-1.6,1.4-3.6,2.4-5,4
			c-2.4,2.9-2.4,6.3-0.9,9.8c1.5,3.3,4.2,3.2,7.1,3.1C106.3,51.2,108.1,51.3,109.9,51.3z M181.7,128.1c1.7-3.9,2.9-6.7,4.1-9.6
			c3.3,0.4,6.3,0.8,10.4,1.4c-2.5-3.4-4.4-5.9-6.3-8.5c1.9-2.6,3.7-5.1,5.6-7.6c-7.9,2.2-12.2-0.9-14-9.4c-0.9,9.3-6,10.9-13.9,8.9
			c7.1,5.6,5.7,10.8-0.8,16.5c4.7-0.6,7.7-0.9,10.8-1.3C178.8,121.5,180.1,124.3,181.7,128.1z M43.2,98.1c-9.6-2.3-17.1,2.4-19,11.1
			c-1.7,8,4.1,16.1,12.5,17.3c7.7,1.2,14.6-3.8,15.6-11.3c-6.6,4.5-12.6,4-16-1.4C32.8,108.3,35.2,102.5,43.2,98.1z M104.1,79.5
			c0.3-5.2,0.6-10.4,1-15.5c0.3-3.1,1.9-6,5.2-5.4c2,0.4,4,2.9,5,5c0.9,1.8,0.5,4.2,0.6,6.4c0.3,3.2,0.5,6.5,0.8,9.9
			c2.3-0.1,4-0.2,6.1-0.3c-0.7-8.6-1.4-16.7-2.1-24.9c-7.2,0-14,0-20.9,0c-0.6,7.8-1.3,15.2-1.8,22.7c0,0.6,0.1,1.3,0.2,2.2
			C100.1,79.5,101.8,79.5,104.1,79.5z M131.6,175c-22.9-6.4-26.6-6.3-42,0.3C99.4,180,120.8,180.1,131.6,175z M133.4,51.9
			c2.1-2,3.4-3.3,4.7-4.5c-1.6-1.4-3.1-3.8-4.9-4c-1.3-0.2-2.9,2.5-4.4,3.9C130.1,48.6,131.4,49.9,133.4,51.9z M86.6,52
			c2.3-2,3.7-3.2,5.2-4.5c-1.5-1.4-3-4.1-4.3-4c-1.8,0.2-3.3,2.5-4.9,3.9C83.6,48.6,84.7,49.8,86.6,52z M68.4,48.9
			c0.6,0.7,1.2,1.4,1.8,2.1c1.9-0.9,3.9-1.8,5.8-2.7c-1.3-1.2-2.6-2.4-3.8-3.6C70.9,46.1,69.6,47.5,68.4,48.9z M148.3,51.5
			c1.6-1.5,2.7-2.4,3.7-3.3c-1.2-1.2-2.3-3.3-3.5-3.3c-1.1,0-2.4,2-3.6,3.2C145.8,49,146.8,50,148.3,51.5z"/>
		<path class="st0" d="M486.4,191.2c-6.8,0-12.6,0-18.8,0c0-18.6,0-37,0-55.7c5.9,0,11.7,0,17.8,0c0.4,1.2,0.8,2.5,1.3,3.8
			c16.4-7.7,21.2-7.5,28.8,0.6c5.4-2.1,10.4-4.8,15.8-5.9c9.2-1.9,17.6,3.3,18.2,12.5c1,14.7,0.3,29.5,0.3,44.6
			c-5.8,0-11.8,0-18.3,0c-0.1-1.8-0.3-3.5-0.3-5.3c0-10.5,0-21,0-31.5c0-3.4-0.4-6.6-4.9-6.6c-3.9-0.1-7.6,3.3-7.6,6.9
			c-0.1,10.2,0,20.3,0,30.5c0,1.8,0,3.6,0,5.8c-6.5,0-12.5,0-19.4,0c0-3.7,0-7.5,0-11.2c0-8.3,0-16.7,0-25c0-3.5,0-7-4.9-7
			c-4.2,0-7.7,3.4-7.7,7.5c-0.1,10.2,0,20.3,0,30.5C486.6,187.5,486.5,189.3,486.4,191.2z"/>
		<path class="st0" d="M375.3,135.2c5.3,0,10.3-0.3,15.3,0.2c1.5,0.1,2.9,2.1,4.2,3.1c4.5-1.5,9.5-3.9,14.7-4.6
			c5.6-0.8,10.7,1.7,13.6,6.2c5-2.1,9.4-4.8,14.1-5.8c11.2-2.4,19.4,2.9,20.2,14.1c1,14,0.2,28.2,0.2,42.7c-6.1,0-12.1,0-18.6,0
			c-0.1-1.8-0.2-3.5-0.2-5.3c0-9.7,0.1-19.3-0.1-29c-0.1-3.8,1.3-8.7-5-9c-4.7-0.2-7.8,3.7-7.8,9.3c0,11.1,0,22.3,0,33.9
			c-6.4,0-12.4,0-19.1,0c0-7.5,0-15,0-22.4c0-4.7,0-9.3,0-14c0-3.3-0.2-6.6-4.7-6.8c-4-0.2-8.1,3.3-8.1,7.1
			c-0.1,10.2,0,20.3-0.1,30.5c0,1.8,0,3.6,0,5.7c-6.5,0-12.4,0-18.7,0C375.3,172.6,375.3,154.3,375.3,135.2z"/>
		<path class="st0" d="M584.9,99.4c-3.7-8.7-3.2-11.5,3-17.9c-5-4.1-7.7-9.5-7.4-16c0.5-10.1,8.1-17.8,19-19.2
			c6.9-0.8,13.6-0.5,20,2.8c1.3,0.7,3.3,0.2,4.9-0.2c4.3-1,8.5-2.2,13.3-3.5c0,4.6,0,8,0,11.6c-2.9,0.5-5.8,1-8,1.4
			c0,4.1,0.5,7.8-0.1,11.3c-2,11-12.8,17.9-25.8,17c-1.5-0.1-3-0.6-4.5-0.4c-1.1,0.1-2.1,1.1-3.1,1.6c0.8,0.9,1.5,2.4,2.4,2.6
			c2.9,0.6,5.9,0.6,8.9,1c6.1,0.8,12.3,1.2,18.1,2.8c7.2,2,10.4,6.7,10.5,13.4c0.1,7.2-2.8,11.9-10,14.4
			c-12.3,4.4-24.8,4.1-37.3,0.6c-5.1-1.4-9.4-4.3-10.6-10.2C577.3,107.9,579.1,104.2,584.9,99.4z M611.9,66.2c0-5.1-2.6-8.2-6.6-8.2
			c-4.3,0-6.8,3.3-6.7,8.6c0.1,5,2.7,8,6.9,7.9C609.5,74.5,612,71.3,611.9,66.2z M606.7,114.6c3.1-0.3,5.8-0.2,8.3-0.9
			c1.5-0.4,2.6-2.1,3.8-3.1c-1.4-1.1-2.8-2.9-4.3-3.1c-4.7-0.7-9.6-1.1-14.3-1.1c-1.5,0-2.9,1.6-4.4,2.4c1,1.6,1.7,4,3.1,4.6
			C601.4,114.4,604.4,114.3,606.7,114.6z"/>
		<path class="st0" d="M272.5,145.1c5.4-7.5,10.6-15.2,16.2-22.5c1.3-1.7,3.9-3,5.9-3.2c5.4-0.4,10.8-0.1,17.4-0.1
			c-5,7.1-9.3,13.3-13.6,19.5c-3.5,5-9.4,10.1-9.4,15.3c-0.1,4.9,6,9.9,9.4,14.8c5,7.2,10.1,14.3,15.8,22.5c-8,0-14.9,0.2-21.8-0.1
			c-1.2-0.1-2.6-1.8-3.5-3.1c-5.5-7.9-10.9-15.9-17.3-23.7c0,8.8,0,17.6,0,26.7c-6.9,0-13,0-19.4,0c0-23.8,0-47.5,0-71.6
			c6.2,0,12.3,0,19.2,0c0,8.3,0,16.8,0,25.3C271.7,145,272.1,145,272.5,145.1z"/>
		<path class="st0" d="M249.5,103.5c3.3-9.7,6.4-18.8,9.5-27.9c4.6-13.3,9.3-26.6,13.8-40c1.1-3.2,2.4-4.7,5.9-4.4
			c4.5,0.3,9,0.2,13.5,0c2.9-0.1,4.4,0.8,5.4,3.7c7.4,22,15,44,22.6,66c0.2,0.6,0.3,1.2,0.7,2.6c-6.6,0-12.8,0.2-19-0.2
			c-1.1-0.1-2.7-2.4-2.9-3.8c-0.8-5.7-3.9-7.4-9.2-6.6c-2,0.3-4,0.2-6,0c-6.4-0.6-12-0.3-12.6,8.2c-0.1,0.9-2,2.3-3.1,2.3
			C262.2,103.6,256.2,103.5,249.5,103.5z M285.8,56.1c-0.3-0.1-0.6-0.2-1-0.2c-2.1,7.2-4.3,14.5-6.5,22.1c4.9,0,9.2,0,13.5,0
			c-0.1-1,0-1.6-0.2-2.3C289.8,69.1,287.8,62.6,285.8,56.1z"/>
		<path class="st0" d="M413.3,104.2c0-26.8,0-52.3,0-78.5c5.8,0,11.5-0.1,17.3,0.2c0.7,0,1.8,2.4,1.8,3.8c0.2,7.1,0.1,14.3,0.1,21
			c5-1.6,9.6-3.9,14.4-4.3c8.5-0.8,14.8,3.4,18,11.4c4.7,11.8,4.6,23.9-0.3,35.5c-4.8,11.4-17.5,14.9-28.1,8.4c-1.5-1-3-2.1-4.6-3.3
			C428.2,108.5,419.9,101.2,413.3,104.2z M432.5,75.4c0,2.3,0.2,4.7,0,7c-0.5,4.6,1.8,6.9,5.8,7.8c4.3,1,8.3-0.5,9-4.8
			c0.9-6.4,1.1-13.1,0.4-19.5c-0.4-4.3-4.3-6.3-8.7-5.3c-4,0.9-7.1,2.8-6.5,7.8C432.7,70.7,432.5,73,432.5,75.4z"/>
		<path class="st0" d="M673.6,191.3c-6.4,0-12.2,0-18.6,0c-0.1-1.9-0.3-3.6-0.3-5.4c0-10.2,0-20.3,0-30.5c0-3.9-0.5-7.6-5.6-7.7
			c-4.7-0.1-8.6,3.7-8.6,8.3c-0.1,9.8,0,19.6,0,29.5c0,1.8,0,3.6,0,5.6c-6.7,0-12.7,0-19.1,0c0-18.6,0-36.8,0-55.5
			c5.9,0,11.8,0,18,0c0.3,1.3,0.6,2.8,1,4.5c0.8-0.4,1.5-0.6,2.1-1c4.9-3.8,10.3-6,16.7-5.2c8.9,1.2,13.7,5.2,14.3,15.1
			C674.2,162.8,673.6,176.8,673.6,191.3z"/>
		<path class="st0" d="M559.9,135.3c6,0,12,0,18.7,0c0,6.1,0,12.1,0,18c0,5.8,0,11.7,0,17.5c0,3.8,0,7.7,5.4,7.7
			c4.9,0.1,8.9-3.7,8.9-8.5c0-9.8,0-19.6,0-29.5c0-1.6,0-3.2,0-5.1c6.4,0,12.3,0,18.7,0c0,18.4,0,36.7,0,55.5c-5.6,0-11.3,0-17.2,0
			c-0.5-1.4-1-3-1.7-5c-5.3,4.3-10.9,7.2-17.8,6.6c-8.5-0.7-14.2-5-14.7-13.4C559.4,164.8,559.9,150.3,559.9,135.3z"/>
		<path class="st0" d="M328.5,66.6c-1.4-4.1-3-8.6-4.6-13.4c11.2-6.1,22.8-9.1,35.1-6.3c9.7,2.2,14.5,8.5,14.8,18.6
			c0.2,6.6,0,13.3,0.1,20c0,1.3-0.2,3.4,0.5,3.8c5.9,3.7,2.3,9.2,3.6,14.4c-8.3,0.4-15.6,0.4-20.1-5.2c-6,2.3-11.3,5.2-16.9,6.3
			c-7.7,1.4-14.6-3-16.9-9.4c-2.6-7.2-0.2-15.8,7-19.4c6.3-3.1,13.4-4.5,20.2-6.6c0.9-0.3,1.9-0.3,2.8-0.4c1.4-6-0.5-8.9-6.2-7.9
			C341.4,62.2,335.3,64.6,328.5,66.6z M354.1,78.3c-3.5,1.4-7.1,2.2-9.7,4.3c-1.4,1.1-2,4.7-1.3,6.5c0.5,1.3,3.8,2.4,5.8,2.2
			C354.4,90.8,355.7,87.7,354.1,78.3z"/>
		<path class="st0" d="M339.4,192.7c-17.6,0-28.7-11.5-28.6-30c0-17.1,12.1-29.3,28.8-29.1c16.6,0.2,28.3,12.1,28.4,29
			C368,181.1,357,192.7,339.4,192.7z M349.5,163.4c-1-3.7-1.5-7.6-3.1-11c-2.9-6.1-10.7-6.3-13.9-0.3c-3.9,7.3-3.8,15.1,0.1,22.4
			c3,5.8,10.6,5.7,13.6-0.1C347.9,171.1,348.4,167.2,349.5,163.4z"/>
		<path class="st0" d="M530.3,75.7c-0.3,18-11.9,29.6-29,29.3c-17.7-0.3-28.7-12.3-28.4-31c0.3-16.6,12.5-28.3,29.3-28
			C519.1,46.2,530.6,58.4,530.3,75.7z M511.6,75.5c-0.9-3.6-1.4-7.5-2.9-10.8c-2.9-6.2-10.6-6.4-13.8-0.5c-3.9,7.3-3.8,15.1,0,22.4
			c3.1,6,10.9,5.8,13.9-0.3C510.2,83.1,510.6,79.4,511.6,75.5z"/>
		<path class="st0" d="M700.1,167.6c2.5,11.2,9.5,12.7,25.8,6c2.4,3.6,4.9,7.3,7.3,10.9c-6.6,7.9-26.6,10.8-37.1,5.7
			c-10.3-5-16.5-16.2-15.5-28.9c1.6-20.6,19.8-32.6,39.1-25.8c11.5,4.1,19.1,18.9,15.1,30.1c-0.4,1-2.5,1.9-3.8,2
			c-8.3,0.2-16.6,0.1-25,0.1C704.2,167.6,702.4,167.6,700.1,167.6z M717.1,157.2c-0.2-7.1-2.5-10-7.4-10c-5,0-8.4,3.7-8.8,10
			C706.1,157.2,711.4,157.2,717.1,157.2z"/>
		<path class="st0" d="M384.9,26c6.5,0,12.4,0,18.6,0c0,25.8,0,51.3,0,77.2c-6.2,0-12.3,0-18.6,0C384.9,77.4,384.9,51.9,384.9,26z"
			/>
		<path class="st0" d="M577.9,46.5c-0.8,5.8-1.5,11-2.2,16.9c-2.2-0.2-4.3-0.4-6.4-0.4c-7.9-0.3-12.9,4.5-12.9,12.3
			c0,9.1,0,18.3,0,27.8c-6.4,0-12.5,0-18.9,0c0-18.4,0-36.8,0-55.5c5.7,0,11.4,0,17.5,0c0.5,1.9,0.9,3.9,1.6,6.5
			C561.9,46.5,568.7,43.7,577.9,46.5z"/>
		<path class="st1" d="M57.9,144.4c1.5-0.2,2.8-0.4,4.3-0.6c0.2-0.6,0.5-1.2,0.5-1.8c0-9.7,0.6-19.4-0.2-28.9
			c-0.4-5-3.6-9.8-4.9-14.8c-1.2-4.6-1.6-9.5-2.4-14.7c4.4,0,7.6,0,10.9,0c0.2,1.8,0.4,3.5,0.7,5.5c2.8,0,5.5,0,8.5,0
			c0.2-1.7,0.5-3.5,0.8-5.5c3.1,0,6.2,0,9.6,0c0.2,1.7,0.5,3.5,0.8,5.6c2.7,0,5.5,0,8.5,0c0.2-1.8,0.4-3.5,0.6-5.6
			c3.5,0,6.7,0,10.1,0c0.2,1.8,0.3,3.5,0.5,5.5c2.7,0,5.4,0,8.4,0c0.2-1.6,0.5-3.4,0.8-5.5c3.1,0,6.2,0,9.7,0
			c0.3,1.6,0.5,3.3,0.9,5.5c2.6,0,5.4,0,8.5,0c0.2-1.6,0.4-3.4,0.7-5.5c3,0,6.1,0,9.6,0c0.2,1.6,0.4,3.4,0.7,5.5c2.8,0,5.7,0,8.6,0
			c0.3-1.9,0.5-3.7,0.8-5.6c3.3,0,6.4,0,10.1,0c-0.4,6.1,1.8,12.1-3.4,17.4c-1.8,1.8-2.7,5.2-2.7,7.8c-0.3,11.6-0.1,23.2-0.1,35.1
			c1.2,0.2,2.6,0.4,4.2,0.7c-0.3,4.7-1.8,7.7-7,7.8c-2.1,0-4.3,0.8-6.3,1.5c-9.3,3.5-18.5,3.4-27.7-0.1c-7.6-2.9-15.4-2.9-22.9,0
			c-9.3,3.6-18.5,3.5-27.7,0.1c-1.9-0.7-3.8-1.4-5.8-1.4C60.3,152.1,58,149.7,57.9,144.4z M127.2,147.8c0.7-0.2,1.4-0.4,2-0.6
			c0-9.5-0.1-18.9,0-28.4c0.1-7,3.9-11.5,9.7-11.6c6.1-0.1,9.9,4.4,10,11.8c0,8.9,0,17.9,0,26.8c0.4,0.1,0.9,0.3,1.3,0.4
			c0.6-1.2,1.6-2.5,1.7-3.7c0.1-8.8,0.4-17.7,0-26.5c-0.4-9.8-11-15.1-19.5-10.1c-1.2,0.7-2.4,1.4-3.7,2.2
			c-3.5-8.7-9.6-13.8-18.7-13.7c-9.1,0.1-14.8,5.8-18.3,14c-4.6-4.2-9.6-5.7-15.1-3.4c-4.6,2-7.6,5.6-7.7,10.7c-0.2,9-0.2,18,0,27
			c0,1.1,1.1,2.2,1.7,3.3c0.4-0.2,0.8-0.3,1.3-0.5c0-8.3,0-16.6,0-24.9c0-8.8,3.4-13.3,9.8-13.3c6.4,0,9.6,4.5,9.6,13.5
			c0,7.8-0.1,15.7,0,23.5c0,1.2,0.4,2.3,0.6,3.5c0.6,0,1.1,0.1,1.7,0.1c0.3-1.7,1-3.4,1-5.1c0.1-9.2,0-18.3,0.2-27.5
			c0-2.5,0.2-5,1-7.3c2.4-6.9,9.6-11.2,16.5-10.1c7.9,1.2,13.5,7,13.7,14.7c0.3,10.1,0,20.3,0.1,30.5
			C126.1,144.6,126.8,146.2,127.2,147.8z M118.1,144.1c0-10.6,0.2-20.7-0.1-30.8c-0.1-4.2-3-6.6-7.1-7c-4.2-0.3-7.8,1.8-7.9,5.9
			c-0.5,10.6-0.2,21.2-0.2,31.9C108,144.1,112.7,144.1,118.1,144.1z M134.8,148.2c0.4,0.5,0.9,1,1.3,1.5c2.5-1.3,7-2.4,7.1-3.8
			c0.6-9.6,0.5-19.3,0.1-28.9c-0.1-1.4-3-4-4.1-3.8c-1.7,0.4-4.2,2.7-4.2,4.2C134.6,127.6,134.8,137.9,134.8,148.2z M86,148.4
			c0-9.9,0-19.5,0-29.1c0-3.2-0.4-6.4-4.4-6.4c-4,0-4.6,3.1-4.6,6.3c0,7.3,0,14.6,0,21.9C77,148.8,77.1,148.9,86,148.4z"/>
		<path class="st1" d="M126.1,79.4c-0.7-7.3-1.3-14.4-2-21.7c1.9-0.3,3.4-0.5,5-0.8c-0.2-0.4-0.4-0.8-0.7-1.2
			c2.4-1.3,4.8-2.5,7.8-4.1c0.5,2.7,0.8,3.9,1.1,5.4c2.5,0,4.9,0,6.2,0c2.4-2,4.1-3.5,5.2-4.4c6.1,9.5,11.5,17.9,17.3,26.9
			C152.4,79.4,139.4,79.4,126.1,79.4z"/>
		<path class="st1" d="M71.8,52.6c2.4-0.9,4,0.8,3.7,4.7c3.6-0.7,7.4,2,8.8-3.7c0.6-2.7,5.8-0.6,7.2,3.4c1.4,0.1,2.9,0.3,4.9,0.5
			c-0.6,6.8-1,13.5-1.8,20.2c-0.1,0.8-1.8,2-2.8,2c-12.1,0.1-24.2,0.1-37.4,0.1C60.3,70.6,65.6,62.3,71.8,52.6z"/>
		<path class="st1" d="M156.9,157.2c-6.5,11.5-15.4,13.4-27.4,11.6c-1.6-0.2-3.3-0.7-4.8-1.3c-9.6-3.7-19-3.5-28.7-0.2
			c-4.4,1.5-9.4,1.8-14.2,1.8c-8,0-13.7-4.3-18.2-11.9c3.6,0.9,6.4,1.3,9,2.3c8.3,3,16.6,3,24.8-0.2c8.4-3.2,16.9-3.4,25.3-0.1
			c8.8,3.4,17.5,3.2,26.3,0C151.3,158.5,153.8,158,156.9,157.2z"/>
		<path class="st1" d="M109.9,51.3c-1.8,0-3.6-0.1-5.5,0c-2.9,0.1-5.6,0.2-7.1-3.1c-1.5-3.5-1.5-6.9,0.9-9.8c1.3-1.6,3.4-2.6,5-4
			c1.4-1.3,2.7-2.8,4.1-4.1c0.9-0.8,2-2,3.1-2c1,0,2.1,1.3,3,2.1c1.4,1.3,2.8,2.6,4.2,4c2.1,2.2,5,4.1,6.1,6.7
			c2.3,5.6-1.3,10.1-7.3,10.1C114.2,51.3,112.1,51.3,109.9,51.3z"/>
		<path class="st1" d="M181.7,128.1c-1.6-3.8-2.9-6.6-4.1-9.6c-3.2,0.4-6.1,0.8-10.8,1.3c6.6-5.7,7.9-10.9,0.8-16.5
			c7.9,2,13,0.5,13.9-8.9c1.8,8.5,6,11.5,14,9.4c-1.8,2.5-3.7,5-5.6,7.6c2,2.6,3.8,5.1,6.3,8.5c-4.1-0.5-7.1-0.9-10.4-1.4
			C184.6,121.4,183.4,124.3,181.7,128.1z"/>
		<path class="st1" d="M43.2,98.1c-8.1,4.4-10.4,10.2-6.9,15.8c3.4,5.4,9.4,5.9,16,1.4c-1,7.5-7.9,12.5-15.6,11.3
			c-8.4-1.3-14.2-9.4-12.5-17.3C26.1,100.5,33.7,95.9,43.2,98.1z"/>
		<path class="st1" d="M104.1,79.5c-2.3,0-4,0-5.9,0c-0.1-0.9-0.2-1.6-0.2-2.2c0.6-7.5,1.2-14.9,1.8-22.7c6.9,0,13.7,0,20.9,0
			c0.7,8.2,1.4,16.3,2.1,24.9c-2.1,0.1-3.8,0.2-6.1,0.3c-0.3-3.4-0.6-6.6-0.8-9.9c-0.2-2.2,0.3-4.6-0.6-6.4c-1-2.1-3.1-4.6-5-5
			c-3.3-0.6-4.9,2.3-5.2,5.4C104.7,69.1,104.4,74.2,104.1,79.5z"/>
		<path class="st1" d="M131.6,175c-10.8,5.1-32.2,5.1-42,0.3C105,168.6,108.8,168.6,131.6,175z"/>
		<path class="st1" d="M133.4,51.9c-2-2.1-3.3-3.3-4.5-4.6c1.5-1.4,3.1-4.1,4.4-3.9c1.8,0.2,3.3,2.6,4.9,4
			C136.8,48.7,135.5,49.9,133.4,51.9z"/>
		<path class="st1" d="M86.6,52c-1.9-2.2-3-3.4-4.1-4.6c1.6-1.4,3.2-3.7,4.9-3.9c1.3-0.1,2.9,2.5,4.3,4C90.4,48.7,88.9,50,86.6,52z"
			/>
		<path class="st1" d="M68.4,48.9c1.3-1.4,2.5-2.8,3.8-4.2c1.3,1.2,2.6,2.4,3.8,3.6c-1.9,0.9-3.9,1.8-5.8,2.7
			C69.6,50.3,69,49.6,68.4,48.9z"/>
		<path class="st1" d="M148.3,51.5c-1.5-1.5-2.5-2.4-3.4-3.4c1.2-1.1,2.4-3.2,3.6-3.2c1.2,0.1,2.4,2.1,3.5,3.3
			C150.9,49.1,149.9,50,148.3,51.5z"/>
		<path class="st1" d="M611.9,66.2c0,5.1-2.4,8.3-6.5,8.4c-4.2,0.1-6.8-2.9-6.9-7.9c-0.1-5.4,2.5-8.6,6.7-8.6
			C609.4,58,611.9,61.1,611.9,66.2z"/>
		<path class="st1" d="M606.7,114.6c-2.4-0.3-5.3-0.2-7.8-1.2c-1.4-0.6-2.1-3-3.1-4.6c1.5-0.9,2.9-2.4,4.4-2.4
			c4.8,0,9.6,0.4,14.3,1.1c1.6,0.2,2.9,2,4.3,3.1c-1.3,1.1-2.4,2.7-3.8,3.1C612.5,114.4,609.8,114.3,606.7,114.6z"/>
		<path class="st1" d="M285.8,56.1c2,6.5,3.9,13,5.9,19.6c0.2,0.6,0.1,1.3,0.2,2.3c-4.4,0-8.6,0-13.5,0c2.2-7.6,4.4-14.8,6.5-22.1
			C285.2,55.9,285.5,56,285.8,56.1z"/>
		<path class="st1" d="M432.5,75.4c0-2.3,0.2-4.7,0-7c-0.6-5,2.5-6.9,6.5-7.8c4.4-1,8.2,1,8.7,5.3c0.7,6.4,0.5,13.1-0.4,19.5
			c-0.6,4.3-4.6,5.9-9,4.8c-4-1-6.3-3.3-5.8-7.8C432.7,80,432.5,77.7,432.5,75.4z"/>
		<path class="st1" d="M354.1,78.3c1.6,9.4,0.3,12.5-5.3,13c-1.9,0.2-5.2-0.9-5.8-2.2c-0.7-1.8-0.1-5.4,1.3-6.5
			C347.1,80.6,350.7,79.7,354.1,78.3z"/>
		<path class="st1" d="M349.5,163.4c-1.1,3.8-1.6,7.7-3.3,11c-3,5.8-10.5,5.9-13.6,0.1c-3.9-7.3-4-15.1-0.1-22.4
			c3.2-6,10.9-5.8,13.9,0.3C348,155.8,348.5,159.6,349.5,163.4z"/>
		<path class="st1" d="M511.6,75.5c-1,3.8-1.4,7.6-2.9,10.8c-2.9,6.1-10.7,6.4-13.9,0.3c-3.8-7.3-3.9-15.1,0-22.4
			c3.2-6,10.9-5.7,13.8,0.5C510.3,68,510.7,71.9,511.6,75.5z"/>
		<path class="st1" d="M717.1,157.2c-5.7,0-11,0-16.3,0c0.5-6.3,3.8-10,8.8-10C714.6,147.2,716.8,150.2,717.1,157.2z"/>
		<path class="st0" d="M127.2,147.8c-0.4-1.6-1.1-3.1-1.1-4.7c-0.1-10.2,0.1-20.3-0.1-30.5c-0.2-7.8-5.8-13.5-13.7-14.7
			c-6.9-1.1-14.1,3.2-16.5,10.1c-0.8,2.3-1,4.9-1,7.3c-0.1,9.2,0,18.3-0.2,27.5c0,1.7-0.7,3.4-1,5.1c-0.6,0-1.1-0.1-1.7-0.1
			c-0.2-1.2-0.6-2.3-0.6-3.5c0-7.8,0-15.7,0-23.5c0-9-3.2-13.5-9.6-13.5c-6.4,0-9.8,4.6-9.8,13.3c0,8.3,0,16.6,0,24.9
			c-0.4,0.2-0.8,0.3-1.3,0.5c-0.6-1.1-1.7-2.2-1.7-3.3c-0.1-9-0.2-18,0-27c0.1-5.1,3.1-8.8,7.7-10.7c5.5-2.3,10.4-0.8,15.1,3.4
			c3.5-8.2,9.1-13.8,18.3-14c9.2-0.1,15.2,4.9,18.7,13.7c1.3-0.8,2.5-1.5,3.7-2.2c8.5-4.9,19,0.4,19.5,10.1c0.4,8.8,0.2,17.6,0,26.5
			c0,1.2-1.1,2.5-1.7,3.7c-0.4-0.1-0.9-0.3-1.3-0.4c0-8.9,0-17.9,0-26.8c0-7.3-3.9-11.8-10-11.8c-5.8,0.1-9.7,4.6-9.7,11.6
			c-0.1,9.5,0,18.9,0,28.4C128.5,147.4,127.8,147.6,127.2,147.8z"/>
		<path class="st0" d="M118.1,144.1c-5.4,0-10.1,0-15.3,0c0-10.7-0.3-21.3,0.2-31.9c0.2-4.1,3.7-6.2,7.9-5.9c4.1,0.3,7,2.7,7.1,7
			C118.3,123.4,118.1,133.6,118.1,144.1z"/>
		<path class="st0" d="M134.8,148.2c0-10.3-0.2-20.6,0.2-30.9c0.1-1.6,2.5-3.9,4.2-4.2c1.1-0.2,4,2.4,4.1,3.8
			c0.4,9.6,0.5,19.3-0.1,28.9c-0.1,1.4-4.6,2.6-7.1,3.8C135.7,149.2,135.2,148.7,134.8,148.2z"/>
		<path class="st0" d="M86,148.4c-8.9,0.5-9,0.4-9-7.3c0-7.3,0-14.6,0-21.9c0-3.2,0.6-6.4,4.6-6.3c4,0,4.4,3.2,4.4,6.4
			C86,128.9,86,138.5,86,148.4z"/>
	</g>
</g>
</svg>
