<?xml version="1.0" encoding="utf-8"?>
<!-- Generator: Adobe Illustrator 19.2.0, SVG Export Plug-In . SVG Version: 6.00 Build 0)  -->
<svg version="1.1" id="Layer_1" xmlns="http://www.w3.org/2000/svg" xmlns:xlink="http://www.w3.org/1999/xlink" x="0px" y="0px"
	 viewBox="0 0 327.3 205" style="enable-background:new 0 0 327.3 205;" xml:space="preserve">
<style type="text/css">
	.st0{fill:#E36A25;}
</style>
<path class="st0" d="M109.2,121.4c0.9-5.6,2-11.1,2.7-16.5c0.4-2.7,0.5-5.4,0.2-8.1c-0.6-5.5-4.8-8.8-11.6-9.1
	c-8.4-0.4-16.9-0.4-25.3-0.5c-1,0-2.1,0-3.5,0c0.7-4.5,1.3-8.7,2.1-12.8c0.1-0.5,1.7-0.9,2.6-1c12.7-0.1,25.4-0.1,38.2,0
	c2.4,0,3.2-0.6,3.6-3c2.7-16.2,5.7-32.3,8.6-48.5c0.1-0.6,0-1.2,0-2.2c-4.5,0-9-0.2-13.5,0c-11,0.5-21.8,2.1-31.7,7.3
	C73.9,31,67.9,36.7,66,45.6c-1.8,8.8-3.2,17.8-4.8,26.7c-2.3,13-4.5,26-6.8,39c-1.3,7-5.8,10.7-12.9,10.8c-8,0-16,0-24.1,0
	c-0.9,0-1.7-0.1-2.9-0.1c0.9-5.2,1.8-10.3,2.7-15.3c3.1-17.4,6.4-34.9,9.1-52.4C30.8,26.3,48,8.2,75.8,2.7C85.3,0.8,94.9,0,104.6,0
	c20.5,0,41,0,61.4,0c0.7,0,1.4,0,2.5,0c-0.7,4.2-1.3,8-2,11.9c-3.9,22.3-7.9,44.7-11.8,67c-2,11.4-4,22.8-6.3,34.1
	c-1.2,6.2-4.2,8.5-10.3,8.6c-9.1,0.2-18.3,0.1-27.5,0.1C110.3,121.7,109.8,121.5,109.2,121.4z"/>
<path class="st0" d="M235,87.1c0.8-4.5,1.5-8.7,2.4-12.9c0.1-0.5,1.5-0.9,2.3-0.9c6.7-0.5,13.4-0.6,20-1.6
	c14.5-2.1,20.4-8.1,23-22.5c0.9-5.2,1.7-10.5,2.3-15.7c0.9-7.5-2.7-12.3-10.2-13.3c-2.5-0.3-5-0.5-7.5-0.5c-10-0.1-20-0.1-30.1-0.1
	c-1,0-2,0-3.2,0c-1.8,10.4-3.6,20.6-5.4,30.8c-3,17.3-6.1,34.6-9.2,51.8c-0.7,3.9-1.3,7.9-2.4,11.7c-1.4,5.3-4.3,7.6-9.8,7.8
	c-9.2,0.2-18.5,0.1-27.7,0.1c-0.4,0-0.8-0.2-1.4-0.3c1.3-7.4,2.6-14.8,3.9-22.1c3.4-19.3,6.8-38.7,10.2-58
	c2.3-13.1,4.6-26.2,6.9-39.3c0.2-1.2,0.6-2,2.1-2c32.2,0.1,64.5,0,96.7,0.2c4.8,0,9.7,1.2,14.2,2.9c9.3,3.4,13.5,10.9,14.7,20.4
	c1.2,9.2-1.1,18-2.9,26.8c-0.6,2.8-1.2,5.6-1.9,8.4c-3.7,14.9-13.3,23.7-28.2,26.6c-5.2,1-10.5,1.5-15.8,1.6
	c-13.2,0.2-26.5,0.1-39.7,0.1C237.4,87.1,236.3,87.1,235,87.1z"/>
<path class="st0" d="M80.8,198.2c0.1,0.3,0.2,0.5,0.2,0.6c-1.3,5.9,0.5,5.8-6.6,5.9c-5.7,0-11.3,0.1-17,0.1
	c-7.2-0.1-10.7-3.7-10-10.8c0.5-5.3,1.5-10.5,2.8-15.6c1.3-5.4,6.6-9.2,12.2-9.3c5.5-0.1,11-0.1,16.4,0c6.3,0.1,9.9,4.6,8.8,10.8
	c-1.3,7.2-4.9,10.6-12.4,11c-4.9,0.3-9.7,0.3-14.6,0.4c-0.3,0-0.7-0.1-1.3-0.3c0.3-1.7,0.4-3.5,1-5.1c0.2-0.6,1.4-1,2.2-1.1
	c4.4-0.2,8.9-0.2,13.3-0.5c3.1-0.3,5.2-3.9,4-6.8c-0.4-0.9-1.8-1.8-2.7-1.8c-5.1-0.2-10.3-0.1-15.4-0.1c-2,0-3.6,1.1-4,3.1
	c-1,5.4-1.9,10.8-2.8,16.2c-0.3,2.1,0.9,3.1,2.8,3.2c4.9,0.1,9.7,0.2,14.6,0.2C75.1,198.2,78,198.2,80.8,198.2z"/>
<path class="st0" d="M15.9,184.4c0.3-2,0.4-3.7,0.9-5.3c0.2-0.5,1.3-1,2-1c3.3-0.1,6.6-0.1,9.9-0.2c3.7-0.1,4.8-0.9,5.7-4.4
	c0.6-2.3,1-4.6,1.2-6.9c0.2-2-0.6-3.4-2.8-3.6c-2.3-0.1-4.5-0.3-6.8-0.4c-3.6-0.1-7.3,0-11.2,0c-1,5.3-1.9,10.7-2.9,16.1
	c-1.4,8-2.8,16.1-4.3,24.1c-0.1,0.8-1.3,1.7-2.2,1.8c-1.7,0.3-3.4,0.1-5.6,0.1c0.7-4.2,1.3-8,2-11.9c2-11.5,4.2-23.1,6.1-34.6
	c0.3-1.7,1-2.2,2.5-2.2c8.1,0.1,16.2,0.1,24.3,0.4c5.6,0.2,9,4.6,8.2,10.1c-0.3,2.6-0.7,5.2-1.4,7.7c-1.5,6.1-6.6,10.1-12.9,10.2
	C24.7,184.4,20.5,184.4,15.9,184.4z"/>
<path class="st0" d="M230.8,205c-3.2-0.2-6.4-0.3-9.6-0.8c-3.8-0.6-6.8-3.7-6.4-7.4c0.7-6.7,1.6-13.5,3.5-19.9
	c1.5-5.1,6-7.7,11.5-7.9c4.8-0.1,9.5-0.1,14.3,0c5.7,0.1,9.6,4.2,8.9,9.9c-0.6,5.2-1.5,10.5-2.8,15.6c-1.5,6.2-6.3,9.8-12.6,10.2
	c-2.3,0.1-4.5,0-6.8,0C230.8,204.8,230.8,204.9,230.8,205z M231.7,198.4c0-0.1,0-0.2,0-0.3c1.8,0,3.7,0.1,5.5,0c4.2-0.4,5-1,5.9-5.2
	c0.9-4.4,1.7-8.9,2.4-13.3c0.4-2.6-0.7-4-3.4-4c-4.2-0.1-8.4-0.1-12.5,0c-2.1,0-4,0.9-4.4,3c-1.1,5.4-2,10.9-2.9,16.4
	c-0.3,1.8,0.7,2.8,2.5,3C227.1,198.1,229.4,198.2,231.7,198.4z"/>
<path class="st0" d="M179.4,168.8c0.3,0.8,0.4,1,0.4,1.1c-0.7,5.9-0.7,5.8-6.6,5.7c-4.7-0.1-9.4,0-14.1,0c-0.7,0-1.5-0.1-2,0.3
	c-0.9,0.7-2.2,1.6-2.3,2.6c-0.1,0.6,1.2,2.1,2.1,2.3c4.7,1.3,9.5,2.2,14.2,3.3c1.3,0.3,2.7,0.6,4,1.1c3.2,1.3,4.6,3.9,4.2,7.3
	c-0.8,7-4.1,11.2-11,11.8c-7.6,0.7-15.2,0.2-23.2,0.2c0.5-2.8,0.9-4.9,1.2-6.6c4.1,0,7.9,0,11.7,0c3.3,0,6.6,0.1,9.9-0.3
	c1.3-0.2,2.7-1.5,3.5-2.7c1.2-2,0.5-3.2-1.8-3.8c-4.9-1.2-9.8-2.4-14.7-3.6c-5.4-1.3-7.5-3.5-7.4-7.6c0-5.4,3.1-9.6,8.1-10.4
	c4.3-0.6,8.7-0.6,13-0.7C172.2,168.7,175.9,168.8,179.4,168.8z"/>
<path class="st0" d="M94.9,204.5c0.6-3.8,1.1-7.5,1.7-11.1c0.8-4.6,1.6-9.2,2.6-13.8c1.4-6.5,6.4-10.5,13-10.6
	c4.6-0.1,9.2-0.1,13.8,0c5.7,0.1,9.4,3.7,8.8,9.3c-0.7,7-2.2,13.9-3.3,20.8c0,0.1-0.1,0.2-0.1,0.2c-1.3,5.9-1.9,6.3-8.4,5
	c0.8-4.4,1.7-8.8,2.5-13.2c0.7-4,1.3-8.1,1.9-12.1c0.3-2.4-1.1-3.4-3.2-3.5c-4.3-0.1-8.5-0.1-12.8,0c-2.6,0.1-4.2,1.5-4.7,4.1
	c-1.2,6.7-2.4,13.3-3.6,20c-0.9,5.3-0.9,5.3-6.4,5.2C96.3,204.7,95.7,204.6,94.9,204.5z"/>
<path class="st0" d="M261.1,204.7c1.8-9.2,3.2-18,5.2-26.7c1.3-5.5,6.5-9,12.1-9.1c4.8-0.1,9.6-0.1,14.3,0c6,0.1,9.7,4.7,8.7,10.7
	c-1.3,7.6-2.6,15.2-3.9,22.8c-0.1,0.7-0.4,1.3-0.6,2.1c-2.4,0-4.7,0-7.3,0c1-5.2,1.9-10.2,2.9-15.2c0.6-3.2,1.1-6.5,1.6-9.8
	c0.4-2.7-0.6-4-3.4-4.1c-4.2-0.1-8.4-0.1-12.5,0c-3.1,0.1-4.4,1.4-5.1,5c-1.3,7.1-2.6,14.2-3.6,21.3c-0.3,2.3-1,3.3-3.4,3
	C264.6,204.6,263.1,204.7,261.1,204.7z"/>
<path class="st0" d="M204.1,169.5c-0.8,4.7-1.5,9-2.3,13.4c-1.2,6.7-2.4,13.3-3.6,20c-0.2,1.4-0.7,2-2.1,1.9c-1.8-0.1-3.6,0-5.8,0
	c0.9-5.4,1.8-10.4,2.7-15.4c1-5.5,2-10.9,2.8-16.4c0.4-2.5,1.2-4,4-3.5C201.2,169.7,202.5,169.5,204.1,169.5z"/>
</svg>
