<?xml version="1.0" encoding="utf-8"?>
<!-- Generator: Adobe Illustrator 19.2.0, SVG Export Plug-In . SVG Version: 6.00 Build 0)  -->
<svg version="1.1" id="Layer_1" xmlns="http://www.w3.org/2000/svg" xmlns:xlink="http://www.w3.org/1999/xlink" x="0px" y="0px"
	 viewBox="0 0 758.3 418.4" style="enable-background:new 0 0 758.3 418.4;" xml:space="preserve">
<style type="text/css">
	.st0{fill:#211F5E;}
</style>
<g>
	<path class="st0" d="M477.1,4.9c2.6,6.8-0.1,12.6-1.2,18.4c-4.3,22.4-16.4,41.1-29.8,58.9c-13.9,18.5-29.3,35.7-42.9,54.4
		c-12.4,17.1-22.1,35.8-26.4,56.9c-2.5,12.4-3.4,24.6-1.9,37.3c1.9,15.2,4.9,30.1,11.2,43.9c6.6,14.4,14.3,28.3,21.6,42.4
		c1.5,2.9,3.4,5.5,5.3,8.6c-13.5,2.5-26.3,0.7-39.2-0.6c-17.4-1.7-33.8-7-49.9-13.3c-4.9-1.9-7.8-4.7-8.9-10.4
		c-1.9-10.4-5.7-20.5-7.3-30.9c-1.5-10.3-1.1-20.9-1.6-31.3c-0.5-10.8,0.9-21.3,2.9-31.9c2.6-13.7,8.1-26.1,14.2-38.4
		c5.9-12.1,13.9-22.8,23.7-31.8c7.6-7.1,16.6-12.8,25-19c19.1-14,38.8-27.3,57.3-42c13.3-10.6,24.2-23.9,33.8-38.3
		c5.9-8.9,9.1-18.7,12.1-28.6c0.2-0.8,0.4-1.6,0.7-2.3C476.1,6.4,476.4,6,477.1,4.9z"/>
	<path class="st0" d="M262.6,264c-4-5.3-8.4-9.7-11.2-14.9c-9.7-18-19.8-35.8-23.3-56.3c-1-6-2.4-11.9-2.8-17.9
		c-0.7-11.6-1-23.2-1.1-34.8c0-9.5,3.9-17.5,10-24.8c11-13.2,24.2-23.7,38.2-33.2c13.2-9,28.5-14,44-16.9
		c30.1-5.5,60.7-8.5,90.3-17.1c13.8-4,25.9-10.6,37-19.4c8.9-7,15-16.3,20.8-25.8c0.7-1.1,1.5-2.2,2.7-3c-1,12.2-7.4,21.9-14.2,31.2
		c-11.8,16.1-26,29.9-43.9,39c-20.8,10.6-42.1,20.4-63,30.8c-16.1,8-30.9,18.1-43.1,31.5c-16.1,17.6-27.4,38-32.9,61.1
		c-3.2,13.3-4.6,27.1-6.1,40.7C263.2,243.7,263.2,253.3,262.6,264z"/>
	<path class="st0" d="M471.9,308.7c-14.9-11.1-27.1-24.5-36.4-40.4c-8.8-15-15-30.8-17.5-48.4c-2.7-19.2-1.3-37.9,4.8-55.8
		c5-14.7,12.5-28.9,20.5-42.3c12-20.2,25.4-39.7,33.5-62c3.7-10.2,6.6-20.8,9.1-31.4c1.3-5.5,1.1-11.3,1.6-18
		c0.9,1.6,1.6,2.2,1.6,2.9c0.1,11.5,1.1,23.2-0.2,34.6c-1.7,14.4-4.7,28.7-8.3,42.7c-4.2,16.4-10.3,32.3-14.4,48.7
		c-4.6,18.4-6.8,37.1-0.1,55.8c5,13.9,12.6,25.8,24.9,34c14,9.3,28.6,17.6,43.1,26.4C517.4,276.7,497.8,296.3,471.9,308.7z"/>
</g>
<g>
	<path class="st0" d="M29.1,417.8l-3.2-7.9H11.1l-3.2,7.9H0l15-35.3h7.1l15,35.3H29.1z M18.5,391.8l-4.7,11.4h9.3L18.5,391.8z"/>
	<path class="st0" d="M75.1,417.8l-3.2-7.9H57l-3.2,7.9H46l15-35.3h7.1l15,35.3H75.1z M64.4,391.8l-4.7,11.4h9.3L64.4,391.8z"/>
	<path class="st0" d="M96,417.8v-35h7.7v28h17.5v7H96z"/>
	<path class="st0" d="M151.1,417.8h-16.7v-35h16.3c7.2,0,11.6,3.5,11.6,9.1v0.1c0,4-2.1,6.2-4.6,7.6c4.1,1.5,6.6,3.9,6.6,8.6v0.1
		C164.2,414.6,159,417.8,151.1,417.8z M154.6,393.1c0-2.3-1.8-3.6-5.1-3.6h-7.6v7.4h7.1C152.4,396.9,154.6,395.8,154.6,393.1
		L154.6,393.1z M156.5,407.1c0-2.4-1.8-3.8-5.7-3.8h-8.9v7.7h9.2C154.5,411,156.5,409.8,156.5,407.1L156.5,407.1z"/>
	<path class="st0" d="M195,418.4c-10.8,0-18.6-8-18.6-18v-0.1c0-10,7.9-18.1,18.7-18.1c10.8,0,18.6,8.1,18.6,18v0.1
		C213.7,410.2,205.8,418.4,195,418.4z M205.6,400.3c0-6-4.4-11-10.6-11s-10.5,4.9-10.5,10.9v0.1c0,6,4.4,11,10.6,11
		C201.3,411.3,205.6,406.4,205.6,400.3L205.6,400.3z"/>
	<path class="st0" d="M249.3,417.8l-7.5-11.2h-6.1v11.2H228v-35h16c8.3,0,13.2,4.3,13.2,11.6v0.1c0,5.7-3.1,9.2-7.5,10.9l8.6,12.5
		H249.3z M249.4,394.7c0-3.3-2.3-5-6.1-5h-7.7v10.1h7.8c3.8,0,5.9-2,5.9-5V394.7z"/>
	<path class="st0" d="M288.5,418.4c-10.9,0-18.4-7.7-18.4-18v-0.1c0-10,7.8-18.1,18.4-18.1c6.3,0,10.1,1.7,13.8,4.8l-4.9,5.9
		c-2.7-2.3-5.1-3.6-9.2-3.6c-5.6,0-10.1,5-10.1,10.9v0.1c0,6.4,4.4,11.1,10.6,11.1c2.8,0,5.3-0.7,7.2-2.1v-5h-7.8v-6.7h15.2v15.2
		C299.9,415.9,294.9,418.4,288.5,418.4z"/>
	<path class="st0" d="M355.5,418.3c-9.4,0-15.2-5.2-15.2-15.6v-20h7.7v19.8c0,5.7,2.9,8.7,7.6,8.7c4.7,0,7.5-2.8,7.5-8.4v-20.1h7.7
		v19.8C370.8,413.1,364.9,418.3,355.5,418.3z"/>
	<path class="st0" d="M410.7,417.8l-17-22.3v22.3h-7.6v-35h7.1l16.4,21.6v-21.6h7.6v35H410.7z"/>
	<path class="st0" d="M433.5,417.8v-35h7.7v35H433.5z"/>
	<path class="st0" d="M475.4,418h-6.8l-14.2-35.3h8.5l9.2,24.7l9.2-24.7h8.3L475.4,418z"/>
	<path class="st0" d="M502.5,417.8v-35h26.4v6.9h-18.8v7.1h16.5v6.9h-16.5v7.4h19v6.9H502.5z"/>
	<path class="st0" d="M564.7,417.8l-7.5-11.2h-6.1v11.2h-7.7v-35h16c8.3,0,13.2,4.3,13.2,11.6v0.1c0,5.7-3.1,9.2-7.5,10.9l8.6,12.5
		H564.7z M564.9,394.7c0-3.3-2.3-5-6.1-5h-7.7v10.1h7.8c3.8,0,5.9-2,5.9-5V394.7z"/>
	<path class="st0" d="M599.6,418.3c-5.3,0-10.7-1.8-14.9-5.6l4.6-5.5c3.2,2.6,6.5,4.2,10.5,4.2c3.2,0,5.1-1.2,5.1-3.3v-0.1
		c0-2-1.2-3-7.1-4.5c-7.1-1.8-11.6-3.8-11.6-10.7v-0.1c0-6.4,5.1-10.6,12.3-10.6c5.1,0,9.5,1.6,13,4.5l-4,5.8
		c-3.1-2.1-6.2-3.5-9.1-3.5s-4.5,1.4-4.5,3.1v0.1c0,2.3,1.5,3.1,7.6,4.6c7.1,1.8,11.1,4.4,11.1,10.5v0.1
		C612.4,414.4,607.1,418.3,599.6,418.3z"/>
	<path class="st0" d="M627,417.8v-35h7.7v35H627z"/>
	<path class="st0" d="M666.8,389.9v27.9h-7.7v-27.9h-10.7v-7.1h29v7.1H666.8z"/>
	<path class="st0" d="M690.8,417.8v-35h26.4v6.9h-18.8v7.1H715v6.9h-16.5v7.4h19v6.9H690.8z"/>
	<path class="st0" d="M747.7,389.9v27.9H740v-27.9h-10.7v-7.1h29v7.1H747.7z"/>
</g>
</svg>
