<?xml version="1.0" encoding="utf-8"?>
<!-- Generator: Adobe Illustrator 19.2.0, SVG Export Plug-In . SVG Version: 6.00 Build 0)  -->
<svg version="1.1" id="Layer_1" xmlns="http://www.w3.org/2000/svg" xmlns:xlink="http://www.w3.org/1999/xlink" x="0px" y="0px"
	 viewBox="0 0 500.1 137.2" style="enable-background:new 0 0 500.1 137.2;" xml:space="preserve">
<style type="text/css">
	.st0{fill:#F68929;}
</style>
<g id="vsVm46.tif">
	<g>
		<path class="st0" d="M0,38c1-8.2,2-16.5,3-24.7c0.4-2.8,0.9-5.6,1.4-8.8c11.8,0,23.5,0,34.2,0C38,21.8,36.8,38.9,37.1,56
			c0.2,9.3,2.7,18.7,4.9,27.9c0.8,3.6,3.1,7,5.4,10c4.2,5.4,10.2,7,15.9,3.2c5.1-3.3,9.9-7.4,13.6-12.2C90.5,67,97.8,46,104,24.7
			c1.9-6.7,3.5-13.5,5.2-20.4c11,0,21.7,0,33.2,0c1,8,2.2,15.9,2.9,23.8c2.1,25.8,2.8,51.6-2.4,77.2c-0.5,2.3-1.2,4.5-1.7,6.8
			c-3.4,13.5-12.1,21.6-25.8,22.7c-18.7,1.5-37.5,2.4-56.3,2.4c-10.4,0-20.9-1.7-31.2-3.4c-11.3-1.8-18.8-8.6-21.6-19.6
			C4,105.4,2.8,96.3,1.1,87.3C0.7,85.2,0.4,83.1,0,81C0,66.7,0,52.3,0,38z"/>
		<path class="st0" d="M449,0c4.4,0.6,8.8,1.3,13.2,1.9C485.6,5,492.9,12,496.9,35.4c4.4,25.5,3.6,51.1,1.6,76.7
			c-0.5,6.1-1.5,12.2-2.6,18.3c-0.2,1.2-1.8,3.1-2.8,3.1c-10.8,0.2-21.6,0.1-32.8,0.1c0.8-7.4,1.8-14.2,2.3-21.2
			c1.3-17.7,1.9-35.3-2.7-52.7c-1.4-5.4-3.8-10.7-6.9-15.3c-4.3-6.5-11.2-8.1-17.4-3.4c-5.9,4.4-11.4,9.9-15.5,15.9
			c-12.5,18.2-19.4,38.9-25.2,60c-1.5,5.4-2.8,10.9-4.2,16.7c-10.2,0-20.2,0.1-30.2-0.1c-1.1,0-3-2-3.2-3.3
			c-4.2-26.6-5.3-53.3-3-80.2c8.2,2.1,11.6,0.9,13.4-4.8c2.4-7.5-1.3-15-9-18c2.2-14.7,11.4-22.7,29-25.2c5.1-0.7,10.2-1.4,15.3-2.1
			C418.3,0,433.7,0,449,0z M394,39.7c-2.2-3-4.1-6.4-6.9-8.9c-1-0.9-4.7-0.2-6.1,1c-3.3,2.9-3.4,7.1-2,11c1.4,3.8,3.7,7.1,8.3,6.1
			C391.8,48.1,392.5,44.3,394,39.7z M415.8,46.4c0.1-6.2-3-10.6-6.2-10.4c-4,0.2-5.1,3.4-5.3,6.7c-0.3,4.2,3.2,9.1,6.1,8.2
			C412.9,50.1,414.7,47.4,415.8,46.4z"/>
		<path class="st0" d="M281,0c-3.6,14.8-6.8,29.7-11.2,44.3c-0.8,2.6-6.2,4.2-9.8,5.4c-1.1,0.4-3.3-1.9-4.7-3.4
			C243,33.1,230.8,19.7,218.5,6.5c-1.1-1.2-2.4-2-4.7-3.8c8.2-1,14.7-1.8,21.2-2.6c2.3,0,4.7,0,7,0c-1.9,6.9-1.5,13.5,3.5,19.1
			c6.1,6.8,15.6,4.8,18.5-3.9c1.8-5.4,1-10.5-1.9-15.2C268.3,0,274.7,0,281,0z"/>
		<path class="st0" d="M248.4,54.8c-6.1,3.9-12,7.2-17.4,11.3c-4,3-7.7,6.5-10.7,10.4c-6.5,8.4-4.8,16.6,4.4,21.8
			c4.7,2.6,10.1,4,15.3,5.8c1.9,0.7,3.9,0.9,6.4,1.5c-4.6,10-9.1,19.8-13.7,29.5c-0.4,0.9-2.2,1.8-3.1,1.6
			c-11.8-1.9-23.7-3.3-35.3-6.1c-11.4-2.7-17.8-11-20.1-22.5c-3.9-19.3-3.7-38.8-2.3-58.2c0.6-8.7,2.1-17.5,4.5-26
			c3.1-10.8,17.3-20.1,28.2-19.6c0.9,0,1.9,0.6,2.6,1.2C215.6,12.1,241.9,43.6,248.4,54.8z"/>
		<path class="st0" d="M280.8,41.8c2.9-13.7,5.7-27.1,8.6-41.2c11.5,1.1,22.8,2.2,34.4,3.3c0,9.6,0,18.5,0,27.6
			C309.6,34.9,295.5,38.3,280.8,41.8z"/>
		<path class="st0" d="M288.8,137.1c-13.1,0-25.2,0-37.6,0c3.3-9.4,6.5-18.8,9.8-28.1c0.3-0.9,1.5-1.9,2.3-2c4-0.2,8-0.1,12,0
			c0.8,0,1.9,0.8,2.2,1.5C281.3,117.8,284.9,127,288.8,137.1z"/>
		<path class="st0" d="M324,101.4c0,10,0.1,19.4-0.1,28.9c0,1.2-1.9,2.4-2.9,3.5c-0.1,0.1-0.3,0-0.5,0.1c-12.6,2-12.6,2-17.9-9.8
			c-1.4-3-2.8-6-4.3-9c-1.4-2.8-2.7-5.7-4.4-9.1C304,104.5,313.7,103,324,101.4z"/>
	</g>
</g>
</svg>
