<?xml version="1.0" encoding="utf-8"?>
<!-- Generator: Adobe Illustrator 20.0.0, SVG Export Plug-In . SVG Version: 6.00 Build 0)  -->
<svg version="1.1" id="Layer_1" xmlns="http://www.w3.org/2000/svg" xmlns:xlink="http://www.w3.org/1999/xlink" x="0px" y="0px"
	 viewBox="0 0 360.5 46.9" style="enable-background:new 0 0 360.5 46.9;" xml:space="preserve">
<style type="text/css">
	.st0{fill:#FFFFFF;}
</style>
<path class="st0" d="M77.6,46.9c-2.4,0-4.6-0.4-6.6-1.2c-2-0.8-3.7-1.9-5.1-3.3c-1.4-1.4-2.5-3.1-3.3-5c-0.8-1.9-1.2-4-1.2-6.2v-1.2
	c0-2.6,0.4-4.9,1.3-7c0.8-2.1,1.9-3.8,3.3-5.3c1.4-1.5,3-2.6,4.9-3.4c1.9-0.8,3.8-1.2,5.9-1.2c2.4,0,4.5,0.4,6.3,1.2
	c1.8,0.8,3.3,1.9,4.5,3.3c1.2,1.4,2.1,3.1,2.8,5.1c0.6,2,0.9,4.1,0.9,6.5v3H68.6c0.1,1.3,0.4,2.4,0.9,3.5c0.5,1.1,1.2,2,2,2.8
	c0.8,0.8,1.8,1.4,2.9,1.9c1.1,0.5,2.3,0.7,3.6,0.7c1.8,0,3.5-0.4,5-1.1c1.5-0.7,2.8-1.7,3.8-3l3.9,3.7c-0.5,0.8-1.2,1.5-2,2.3
	c-0.8,0.7-1.8,1.4-2.9,2c-1.1,0.6-2.3,1-3.7,1.4C80.7,46.7,79.2,46.9,77.6,46.9z M76.7,18.9c-1,0-1.9,0.2-2.8,0.5
	c-0.9,0.4-1.6,0.9-2.3,1.6c-0.7,0.7-1.3,1.5-1.7,2.5c-0.5,1-0.8,2.1-1,3.4h15.3v-0.5c-0.1-1-0.2-1.9-0.6-2.8
	c-0.3-0.9-0.8-1.7-1.4-2.4c-0.6-0.7-1.4-1.3-2.3-1.7C79,19.1,77.9,18.9,76.7,18.9z"/>
<path class="st0" d="M113.6,46.9c-2.4,0-4.6-0.4-6.6-1.2c-2-0.8-3.7-1.9-5.1-3.3c-1.4-1.4-2.5-3.1-3.3-5c-0.8-1.9-1.2-4-1.2-6.2
	v-1.2c0-2.6,0.4-4.9,1.3-7c0.8-2.1,1.9-3.8,3.3-5.3c1.4-1.5,3-2.6,4.9-3.4c1.9-0.8,3.8-1.2,5.9-1.2c2.4,0,4.5,0.4,6.3,1.2
	c1.8,0.8,3.3,1.9,4.5,3.3c1.2,1.4,2.1,3.1,2.8,5.1c0.6,2,0.9,4.1,0.9,6.5v3h-22.6c0.1,1.3,0.4,2.4,0.9,3.5c0.5,1.1,1.2,2,2,2.8
	c0.8,0.8,1.8,1.4,2.9,1.9c1.1,0.5,2.3,0.7,3.6,0.7c1.8,0,3.5-0.4,5-1.1c1.5-0.7,2.8-1.7,3.8-3l3.9,3.7c-0.5,0.8-1.2,1.5-2,2.3
	c-0.8,0.7-1.8,1.4-2.9,2c-1.1,0.6-2.3,1-3.7,1.4C116.7,46.7,115.2,46.9,113.6,46.9z M112.7,18.9c-1,0-1.9,0.2-2.8,0.5
	c-0.9,0.4-1.6,0.9-2.3,1.6c-0.7,0.7-1.3,1.5-1.7,2.5c-0.5,1-0.8,2.1-1,3.4h15.3v-0.5c-0.1-1-0.2-1.9-0.6-2.8
	c-0.3-0.9-0.8-1.7-1.4-2.4c-0.6-0.7-1.4-1.3-2.3-1.7C115,19.1,113.9,18.9,112.7,18.9z"/>
<path class="st0" d="M212.8,32.8c-0.2,2.1-0.7,4-1.5,5.8c-0.8,1.7-1.9,3.2-3.2,4.5c-1.3,1.2-2.9,2.2-4.7,2.9c-1.8,0.7-3.8,1-6,1
	c-2.7,0-5-0.5-7-1.6c-2-1-3.6-2.4-5-4.2c-1.3-1.8-2.3-3.8-3-6.2c-0.7-2.4-1-4.9-1-7.6v-6c0-2.7,0.4-5.2,1.1-7.6
	c0.7-2.4,1.7-4.5,3-6.2c1.3-1.8,3-3.2,5-4.2c2-1,4.3-1.6,6.9-1.6c2.3,0,4.4,0.3,6.2,1c1.8,0.7,3.4,1.6,4.6,2.9
	c1.3,1.2,2.3,2.8,3.1,4.6c0.8,1.8,1.3,3.8,1.5,6h-7.2c-0.1-1.3-0.4-2.5-0.7-3.5c-0.4-1.1-0.9-2-1.5-2.7c-0.6-0.8-1.5-1.3-2.4-1.7
	c-1-0.4-2.1-0.6-3.5-0.6c-1.6,0-3,0.4-4.1,1.1c-1.1,0.7-2,1.7-2.7,3c-0.7,1.3-1.2,2.7-1.5,4.4c-0.3,1.6-0.4,3.4-0.4,5.2v6.1
	c0,1.9,0.1,3.7,0.4,5.3c0.3,1.7,0.8,3.1,1.4,4.4c0.7,1.2,1.5,2.2,2.7,3c1.1,0.7,2.5,1.1,4.1,1.1c2.5,0,4.5-0.7,5.8-2.2
	c1.3-1.4,2.1-3.5,2.4-6.1H212.8z"/>
<path class="st0" d="M218.9,0h17.6v40.3h9.9v6h-27.6v-6h10.4V6h-10.4V0z"/>
<path class="st0" d="M252.7,13.7h17.4v26.6h9.7v6h-27.1v-6h10.1V19.7h-10.1V13.7z"/>
<path class="st0" d="M299,41.2c0.9,0,1.7-0.1,2.6-0.4c0.8-0.3,1.6-0.7,2.2-1.2c0.6-0.5,1.2-1.1,1.5-1.8c0.4-0.7,0.5-1.4,0.5-2.2h6.8
	c0,1.6-0.3,3-1.1,4.4c-0.7,1.4-1.7,2.6-3,3.6c-1.3,1-2.7,1.8-4.4,2.4c-1.6,0.6-3.4,0.9-5.2,0.9c-2.5,0-4.7-0.4-6.6-1.3
	c-1.9-0.9-3.5-2-4.7-3.5c-1.3-1.5-2.2-3.2-2.8-5.2c-0.6-2-0.9-4.1-0.9-6.3v-1.1c0-2.2,0.3-4.3,0.9-6.3c0.6-2,1.6-3.7,2.8-5.2
	c1.3-1.5,2.8-2.7,4.7-3.5c1.9-0.9,4.1-1.3,6.6-1.3c2,0,3.8,0.3,5.5,0.9c1.7,0.6,3.1,1.4,4.3,2.5c1.2,1.1,2.2,2.4,2.8,3.9
	c0.7,1.5,1,3.2,1,4.9h-6.8c0-0.9-0.1-1.7-0.5-2.5s-0.8-1.5-1.4-2c-0.6-0.6-1.4-1-2.2-1.4c-0.8-0.3-1.8-0.5-2.8-0.5
	c-1.5,0-2.8,0.3-3.8,0.9c-1,0.6-1.8,1.4-2.4,2.4c-0.6,1-1,2.1-1.3,3.4c-0.3,1.3-0.4,2.6-0.4,3.9v1.1c0,1.3,0.1,2.6,0.4,3.9
	c0.3,1.3,0.7,2.4,1.3,3.4c0.6,1,1.4,1.8,2.4,2.4C296.2,40.9,297.5,41.2,299,41.2z"/>
<path class="st0" d="M329.9,32l-3.9,3.7v10.5h-7.2V0h7.2v27.3l3-3.4l9.6-10.2h8.7l-12.6,13.6l14.5,19h-9L329.9,32z"/>
<g>
	<path class="st0" d="M356.2,22.3c-0.8,0-1.5-0.2-2.2-0.6c-0.7-0.4-1.2-0.9-1.6-1.6c-0.4-0.7-0.6-1.4-0.6-2.2s0.2-1.5,0.6-2.2
		c0.4-0.7,0.9-1.2,1.6-1.6c0.7-0.4,1.4-0.6,2.2-0.6c0.8,0,1.5,0.2,2.2,0.6c0.7,0.4,1.2,0.9,1.6,1.6c0.4,0.7,0.6,1.4,0.6,2.2
		c0,0.8-0.2,1.5-0.6,2.2c-0.4,0.7-0.9,1.2-1.6,1.6C357.7,22.1,357,22.3,356.2,22.3z M356.2,14.3c-0.7,0-1.3,0.2-1.8,0.5
		c-0.6,0.3-1,0.8-1.3,1.4c-0.3,0.6-0.5,1.2-0.5,1.9c0,0.7,0.2,1.3,0.5,1.9c0.3,0.6,0.8,1,1.4,1.3c0.6,0.3,1.2,0.5,1.8,0.5
		c0.6,0,1.3-0.2,1.8-0.5c0.6-0.3,1-0.8,1.4-1.3c0.3-0.6,0.5-1.2,0.5-1.9c0-0.7-0.2-1.3-0.5-1.9c-0.3-0.6-0.8-1-1.3-1.4
		C357.5,14.5,356.9,14.3,356.2,14.3z M357.3,20.5l-1.9-2.2v2.2h-0.7v-5.1h1.6c0.5,0,0.9,0.1,1.2,0.4c0.3,0.3,0.5,0.6,0.5,1.1
		c0,0.4-0.2,0.8-0.5,1.1c-0.3,0.3-0.6,0.4-1.1,0.4l1.9,2.1H357.3z M356.2,17.7c0.3,0,0.5-0.1,0.7-0.2c0.2-0.2,0.3-0.4,0.3-0.6
		c0-0.2-0.1-0.4-0.2-0.6c-0.2-0.1-0.4-0.2-0.6-0.2h-0.8v1.6H356.2z"/>
</g>
<path class="st0" d="M16.3,24.4V30h7.9l-0.1,2.8c-0.2,2.6-1,4.7-2.4,6.1c-1.3,1.4-3.3,2.2-5.8,2.2c-1.6,0-3-0.4-4.1-1.1
	c-1.1-0.7-2-1.7-2.7-3c-0.7-1.2-1.1-2.7-1.4-4.4c-0.3-1.7-0.4-3.4-0.4-5.3v-6.1c0-1.8,0.1-3.5,0.4-5.2c0.3-1.6,0.8-3.1,1.5-4.4
	c0.7-1.3,1.6-2.3,2.7-3C13,8,14.4,7.7,16,7.7c1.3,0,2.5,0.2,3.5,0.6c1,0.4,1.8,1,2.4,1.7c0.6,0.8,1.1,1.7,1.5,2.7
	c0.4,1.1,0.6,2.2,0.7,3.5h7.2c-0.2-2.2-0.7-4.2-1.5-6c-0.8-1.8-1.8-3.3-3.1-4.6c-1.3-1.2-2.8-2.2-4.6-2.9c-1.8-0.7-3.9-1-6.2-1
	c-2.6,0-4.9,0.5-6.9,1.6c-2,1-3.7,2.4-5,4.2c-1.3,1.8-2.3,3.9-3,6.2c-0.7,2.4-1,4.9-1.1,7.6v6c0,2.7,0.4,5.2,1,7.6
	c0.7,2.4,1.7,4.4,3,6.2c1.3,1.8,3,3.2,5,4.2c2,1,4.3,1.6,7,1.6c2.2,0,4.2-0.3,6-1c1.8-0.7,3.4-1.6,4.7-2.9c1.3-1.2,2.4-2.7,3.2-4.5
	c0.8-1.7,1.3-3.7,1.5-5.8v-8.5H16.3z"/>
<circle class="st0" cx="174" cy="42.7" r="3.6"/>
<circle class="st0" cx="266.4" cy="4.3" r="4.3"/>
<g>
	<path class="st0" d="M163.4,46.3h-7V26.1c0-2.5-0.5-4.4-1.5-5.7c-1-1.2-2.6-1.9-4.9-1.9c-3,0-5.1,0.9-6.5,2.6
		c-1.4,1.7-2.1,4.7-2.1,8.8v16.4h-7V13.7h5.5l1,4h0.4c1-1.6,2.4-2.8,4.2-3.6c1.8-0.9,3.8-1.3,6.1-1.3c7.9,0,11.8,4,11.8,12.1V46.3z"
		/>
	<rect x="134.5" y="13.7" class="st0" width="6.8" height="11.4"/>
</g>
<g>
	<path class="st0" d="M56.1,12.5c1.4,0,2.6,0.1,3.5,0.3L59,19.4c-1-0.2-2-0.4-3.1-0.4C53,19,50.7,20,49,21.8
		c-1.7,1.8-2.6,4.2-2.6,7.2v17.3h-7V13.7h5.5l0.9,5.3h0.4c1.1-2,2.5-3.5,4.3-4.7C52.2,13.1,54.1,12.5,56.1,12.5z"/>
	<rect x="39.3" y="13.7" class="st0" width="6.8" height="11.5"/>
</g>
</svg>
